<svg width="174" height="38" viewBox="0 0 174 38" fill="none" xmlns="http://www.w3.org/2000/svg">
<g clip-path="url(#clip0_665_30968)">
<path fill-rule="evenodd" clip-rule="evenodd" d="M30.0668 34H0V4H30.0668V34ZM20.2899 8.99744L1.83873 21.4007V27.6637L22.7001 8.92068C21.9002 8.89591 21.0897 8.91713 20.2899 8.99744ZM23.0846 8.94313L1.83873 29.8302V31.8029H15.6919L25.78 9.28786C24.8879 9.10488 23.9862 8.98918 23.0846 8.94313ZM12.8711 11.3031L1.83873 16.2793V19.9392L19.7645 9.04821C16.674 9.5476 12.8711 11.3031 12.8711 11.3031ZM27.782 9.82031C27.2235 9.63733 26.6662 9.48385 26.1054 9.35753L18.3281 31.8029H27.782V9.82031ZM102.851 18.9066C102.673 18.9226 102.494 18.9286 102.315 18.9246C101.526 18.9246 101.065 18.656 100.572 18.3682C100.2 18.151 99.8089 17.9229 99.2433 17.7909C96.5783 17.7909 95.4146 16.5471 95.4146 14.4848C95.4034 14.0083 95.4947 13.535 95.6824 13.0967C95.8701 12.6584 96.1498 12.2654 96.5027 11.9441C96.8555 11.6229 97.2733 11.3808 97.7278 11.2343C98.1823 11.0878 98.6631 11.0402 99.1376 11.0947C101.466 11.0947 102.7 12.3014 102.7 14.1972C102.782 14.8042 102.684 15.422 102.417 15.9736C102.15 16.5253 101.726 16.9864 101.199 17.2996C101.419 17.3323 101.607 17.4232 101.81 17.5212C102.12 17.6712 102.465 17.8377 103.013 17.8377H103.363L102.851 18.9066ZM99.08 12.3949C98.1372 12.3949 97.7409 13.1834 97.7409 14.4201C97.7409 16.0738 98.2417 16.4812 99.1028 16.4812C99.9891 16.4812 100.372 16.0642 100.372 14.4009C100.372 12.7844 99.9771 12.3949 99.08 12.3949ZM70.3161 14.6058C70.3161 16.5471 71.6204 17.791 73.9707 17.791C76.8687 17.791 77.6013 16.0546 77.6013 14.1972C77.6013 12.776 76.7991 11.0947 74.0404 11.0947C73.5562 11.0429 73.0664 11.0964 72.6049 11.2516C72.1434 11.4068 71.7211 11.66 71.3672 11.9937C71.0132 12.3275 70.7359 12.7338 70.5545 13.1847C70.373 13.6357 70.2917 14.1205 70.3161 14.6058ZM72.6436 14.4201C72.6436 13.1834 73.04 12.3949 73.9827 12.3949C74.8787 12.3949 75.275 12.7844 75.275 14.4009C75.275 16.0642 74.8907 16.4812 74.0056 16.4812C73.1445 16.4812 72.6436 16.0738 72.6436 14.4201ZM66.3616 17.7913C65.335 17.8038 64.317 17.6047 63.3711 17.2066L64.1037 15.9052C64.8204 16.2322 65.5965 16.4096 66.3844 16.4264C67.1998 16.4264 67.5253 16.1844 67.5253 15.8321C67.5253 15.5445 67.2695 15.4139 66.711 15.3024L65.7563 15.1071C64.5817 14.8662 63.7782 14.345 63.7782 13.2305C63.7782 11.9483 65.1041 11.0939 66.92 11.0939C67.9232 11.0669 68.9178 11.284 69.818 11.7266L68.8176 12.9058C68.2502 12.6192 67.6255 12.4636 66.9897 12.4504C66.4552 12.4504 66.1634 12.6541 66.1634 12.9154C66.1634 13.1287 66.3495 13.342 66.9548 13.463L67.7811 13.6308C68.6542 13.8069 69.9117 14.1221 69.9117 15.4223C69.9117 16.9741 68.4681 17.7913 66.3616 17.7913ZM58.6914 16.8995C58.3893 17.1779 58.0328 17.3909 57.6442 17.5252C57.2557 17.6594 56.8435 17.712 56.4335 17.6796H53.4887V11.2063H56.3531C57.0204 11.1722 57.6853 11.3096 58.2843 11.6053C58.7439 11.884 59.1134 12.2888 59.3487 12.7713C59.5841 13.2539 59.6752 13.7938 59.6113 14.3267C59.6519 14.7963 59.5907 15.2691 59.432 15.713C59.2733 16.1569 59.0207 16.5615 58.6914 16.8995ZM56.2126 12.5711H55.5724V16.2955H56.2714C56.8527 16.2955 57.3187 16.0642 57.3187 14.2716C57.3187 12.7665 56.8407 12.5711 56.2126 12.5711ZM50.2283 16.4356L50.6463 17.6794H52.9041L50.4493 11.2061H48.2839L45.6778 17.6794H47.8648L48.308 16.4356H50.2283ZM49.3084 13.0635C49.3285 13.3713 49.3792 13.6764 49.4597 13.9742L49.8092 15.1534H48.7619L49.0874 14.0953C49.1968 13.76 49.2709 13.4142 49.3084 13.0635ZM43.1139 17.6798L42.9157 15.0699C42.8809 14.6612 42.8581 14.3269 42.8581 13.7697H42.846C42.793 14.1833 42.6993 14.5907 42.5662 14.986L41.5778 17.6798H39.8087L38.9476 15.0615C38.8088 14.6397 38.719 14.2035 38.6798 13.7613H38.6678C38.6678 14.3365 38.6558 14.6888 38.633 15.0974L38.4696 17.6798H36.3751L37.1666 11.2065H39.7151L40.5065 13.7697C40.6347 14.1689 40.7244 14.5794 40.7743 14.9956H40.7864C40.8431 14.5462 40.9482 14.1043 41.0998 13.6774L41.9273 11.2065H44.3941L45.1387 17.6798H43.1139ZM41.1212 27.7641H36.2056V21.2879H40.9684L40.8155 22.6538H38.3106V23.7409H40.3568V25.0603H38.3106V26.3796H41.1212V27.7641ZM48.1778 27.7641H46.014L44.5675 25.5155C44.3323 25.1501 44.1206 24.7443 43.9324 24.2983C44.0108 24.7134 44.05 25.2616 44.05 25.9429V27.7641H42.0508V21.2879H44.0736L45.5671 23.5086C45.8101 23.8678 46.0375 24.2798 46.2492 24.7443C46.2021 24.4408 46.1786 23.9577 46.1786 23.2949V21.2879H48.1778V27.7641ZM54.7347 22.663L54.9816 21.2879H48.7959V22.663H50.701V27.7641H52.8296V22.663H54.7347ZM60.3336 27.7641H55.4179V21.2879H60.1807L60.0278 22.6538H57.5229V23.7409H59.5692V25.0603H57.5229V26.3796H60.3336V27.7641ZM65.1908 27.7641H67.6251C67.2018 27.0022 66.7902 26.296 66.3904 25.6456C66.1473 25.2492 65.8729 25.0169 65.5672 24.9488C66.0768 24.8806 66.4805 24.701 66.7784 24.4099C67.1077 24.0939 67.2723 23.6696 67.2723 23.1369C67.2723 21.9042 66.21 21.2879 64.0854 21.2879H61.263V27.7641H63.368V25.1996C63.6503 25.1996 63.862 25.2709 64.0031 25.4133C64.0893 25.4939 64.1991 25.6735 64.3324 25.9522L65.1908 27.7641ZM63.368 22.6538H63.956C64.6068 22.6538 64.9321 22.8582 64.9321 23.267C64.9321 23.7378 64.6107 23.9732 63.9678 23.9732H63.368V22.6538ZM73.6426 21.2879L73.3957 22.663H71.4906V27.7641H69.362V22.663H67.4569V21.2879H73.6426ZM78.0066 27.7641H80.288L77.8066 21.2879H75.6193L72.985 27.7641H75.1959L75.6428 26.519H77.5832L78.0066 27.7641ZM76.807 24.0568L77.1598 25.2368H76.1014L76.4307 24.1776C76.5483 23.7935 76.6228 23.4497 76.6542 23.1462C76.6698 23.4621 76.7208 23.7656 76.807 24.0568ZM82.788 27.7641H80.6359V21.2879H82.788V27.7641ZM88.1703 27.7641H90.3342V21.2879H88.335V23.2949C88.335 23.9577 88.3585 24.4408 88.4055 24.7443C88.1938 24.2798 87.9665 23.8678 87.7234 23.5086L86.2299 21.2879H84.2072V27.7641H86.2064V25.9429C86.2064 25.2616 86.1672 24.7134 86.0888 24.2983C86.277 24.7443 86.4887 25.1501 86.7239 25.5155L88.1703 27.7641ZM100.395 27.7641H98.3493L98.1493 25.1532C98.1101 24.639 98.0905 24.2054 98.0905 23.8524H98.0788C97.9847 24.416 97.8906 24.8218 97.7965 25.0695L96.7969 27.7641H95.0094L94.1392 25.1439C94.0059 24.7474 93.9157 24.3138 93.8687 23.8431H93.8569C93.8569 24.3634 93.8452 24.8094 93.8217 25.181L93.657 27.7641H91.5402L92.3399 21.2879H94.9153L95.715 23.8524C95.8404 24.2488 95.9306 24.6576 95.9855 25.0788H95.9973C96.06 24.639 96.1658 24.1992 96.3148 23.7594L97.1497 21.2879H99.6429L100.395 27.7641ZM101.617 27.7641H106.532V26.3796H103.722V25.0603H105.768V23.7409H103.722V22.6538H106.227L106.379 21.2879H101.617V27.7641ZM113.589 27.7641H111.425L109.978 25.5155C109.743 25.1501 109.532 24.7443 109.343 24.2983C109.422 24.7134 109.461 25.2616 109.461 25.9429V27.7641H107.462V21.2879H109.485L110.978 23.5086C111.221 23.8678 111.448 24.2798 111.66 24.7443C111.613 24.4408 111.59 23.9577 111.59 23.2949V21.2879H113.589V27.7641ZM120.146 22.663L120.393 21.2879H114.207V22.663H116.112V27.7641H118.241V22.663H120.146ZM62.7775 11.2057H60.6481V17.6791H62.7775V11.2057ZM82.548 17.6798L81.1153 15.4329C80.8758 15.0433 80.6658 14.6363 80.4871 14.2154C80.5712 14.7593 80.6102 15.3092 80.6036 15.8595V17.6798H78.6256V11.2065H80.6265L82.1049 13.4258C82.3628 13.8188 82.5886 14.2319 82.7798 14.6612C82.7266 14.1802 82.7037 13.6963 82.7114 13.2125V11.2065H84.6894V17.6798L82.548 17.6798ZM88.2943 17.2066C89.2402 17.6047 90.2582 17.8038 91.2848 17.7914C93.3913 17.7914 94.8349 16.9741 94.8349 15.4223C94.8349 14.1221 93.5775 13.8069 92.7043 13.6308L91.8793 13.463C91.274 13.342 91.0878 13.1287 91.0878 12.9154C91.0878 12.6542 91.3784 12.4504 91.9129 12.4504C92.5487 12.4636 93.1734 12.6192 93.7408 12.9058L94.7412 11.7267C93.8411 11.2839 92.8464 11.0667 91.8432 11.0939C90.0273 11.0939 88.7014 11.9484 88.7014 13.2306C88.7014 14.345 89.5049 14.8663 90.6795 15.1071L91.6343 15.3024C92.1915 15.4139 92.4485 15.5445 92.4485 15.8321C92.4485 16.1844 92.1231 16.4265 91.3076 16.4265C90.5197 16.4097 89.7436 16.2323 89.0269 15.9052L88.2943 17.2066ZM108.242 17.6212C108.738 17.44 109.184 17.1417 109.539 16.7516C109.713 16.4238 109.782 16.0508 109.738 15.6827V11.2057H107.655V15.4598C107.655 16.0925 107.445 16.4268 106.699 16.4268C105.966 16.4268 105.733 16.0266 105.733 15.4322V11.2057H103.639V15.6096C103.639 16.4724 103.721 16.6401 104.034 16.984C104.397 17.2933 104.82 17.5246 105.277 17.6636C105.734 17.8025 106.214 17.8461 106.688 17.7917C107.212 17.8608 107.745 17.8023 108.242 17.6212ZM115.018 17.6794L114.6 16.4356H112.679L112.237 17.6794H110.049L112.656 11.2061H114.82L117.276 17.6794H115.018ZM113.832 13.9742C113.751 13.6765 113.7 13.3714 113.68 13.0635C113.643 13.4143 113.569 13.7601 113.458 14.0953L113.133 15.1534H114.181L113.832 13.9742ZM120.899 15.8691L121.748 17.6798H124.156C123.89 17.1969 123.204 15.9986 122.935 15.5624C122.757 15.2393 122.468 14.9918 122.121 14.8661C122.351 14.858 122.577 14.8046 122.787 14.7091C122.996 14.6136 123.184 14.4778 123.341 14.3095C123.498 14.1412 123.62 13.9437 123.7 13.7283C123.78 13.5129 123.817 13.2839 123.808 13.0543C123.808 11.977 123.041 11.2065 120.654 11.2065H117.861V17.6798H119.943V15.1166C120.399 15.1166 120.585 15.2005 120.899 15.8691ZM119.943 12.5714H120.526C121.178 12.5714 121.493 12.72 121.493 13.1837C121.493 13.6211 121.248 13.8907 120.539 13.8907H119.943V12.5714ZM124.896 11.2065H129.609L129.459 12.5714H126.979V13.6582H129.004V14.9764H126.979V16.2957H129.761V17.6798H124.896V11.2065ZM136.868 12.4505C137.46 12.4344 138.04 12.6106 138.522 12.9526L139.673 11.9208C138.835 11.3688 137.849 11.0838 136.845 11.1036C136.212 11.0812 135.58 11.1952 134.995 11.4379C134.373 11.6862 133.843 12.1205 133.479 12.6811C133.114 13.2418 132.933 13.9013 132.959 14.5691C132.94 14.9552 132.997 15.3414 133.129 15.7049C133.261 16.0685 133.464 16.4022 133.727 16.6866C134.108 17.0789 134.572 17.3817 135.085 17.5728C135.599 17.7639 136.148 17.8386 136.694 17.7914C137.705 17.8101 138.706 17.5904 139.616 17.1503V13.9927H136.311L136.544 15.3109H137.532V16.3331C137.287 16.4035 137.031 16.4351 136.776 16.4265C135.81 16.4265 135.333 15.7938 135.333 14.5032C135.333 13.0545 135.775 12.4505 136.868 12.4505ZM145.07 17.6794L144.651 16.4356H142.731L142.288 17.6794H140.101L142.708 11.2061H144.872L147.328 17.6794H145.07ZM143.884 13.9742C143.803 13.6763 143.752 13.3713 143.73 13.0635C143.695 13.4144 143.621 13.7604 143.51 14.0953L143.185 15.1534H144.232L143.884 13.9742ZM150.95 15.8691L151.799 17.6798H154.208C153.94 17.1969 153.253 15.9986 152.986 15.5624C152.808 15.2393 152.518 14.9918 152.171 14.8661C152.401 14.8581 152.628 14.8048 152.837 14.7093C153.047 14.6138 153.235 14.478 153.392 14.3097C153.549 14.1414 153.671 13.9438 153.751 13.7284C153.831 13.513 153.867 13.2839 153.859 13.0543C153.859 11.977 153.091 11.2065 150.706 11.2065H147.913V17.6798H149.995V15.1166C150.449 15.1166 150.636 15.2005 150.95 15.8691ZM149.995 12.5714H150.578C151.23 12.5714 151.543 12.72 151.543 13.1837C151.543 13.6211 151.299 13.8907 150.588 13.8907H149.995V12.5714ZM160.149 16.8995C159.847 17.1778 159.49 17.3908 159.102 17.5251C158.713 17.6593 158.301 17.7119 157.891 17.6796H154.947V11.2063H157.809C158.477 11.1721 159.142 11.3095 159.742 11.6053C160.201 11.884 160.571 12.2888 160.806 12.7714C161.041 13.2539 161.133 13.7939 161.069 14.3267C161.109 14.7963 161.048 15.2691 160.889 15.713C160.731 16.1569 160.478 16.5616 160.149 16.8995ZM157.67 12.5712H157.03V16.2955H157.729C158.31 16.2955 158.775 16.0643 158.775 14.2716C158.775 12.7665 158.298 12.5712 157.67 12.5712ZM166.806 11.2065H162.092V17.6798H166.957V16.2957H164.176V14.9764H166.199V13.6582H164.176V12.5714H166.655L166.806 11.2065ZM171.86 17.6798L170.428 15.4329C170.188 15.0436 169.978 14.6366 169.799 14.2154C169.883 14.7593 169.922 15.3092 169.915 15.8595V17.6798H167.936V11.2065H169.938L171.417 13.4258C171.675 13.819 171.901 14.2321 172.093 14.6612C172.039 14.1803 172.015 13.6964 172.022 13.2125V11.2065H174V17.6798L171.86 17.6798Z" fill="#7E5181"/>
</g>
<defs>
<clipPath id="clip0_665_30968">
<rect width="174" height="30" fill="white" transform="translate(0 4)"/>
</clipPath>
</defs>
</svg>
