<svg width="90" height="38" viewBox="0 0 90 38" fill="none" xmlns="http://www.w3.org/2000/svg">
<g clip-path="url(#clip0_665_30974)">
<path fill-rule="evenodd" clip-rule="evenodd" d="M3.4426 24.2653C3.14648 23.7818 2.91991 22.9826 2.91991 21.9416C2.91991 19.4179 3.62968 16.7899 4.78881 15.0256L4.78882 15.0256C5.37802 14.1282 6.04978 13.4541 6.80934 13.1459C6.97446 13.0789 7.14373 13.0292 7.3172 12.9983C7.45598 12.9735 7.59744 12.9607 7.74163 12.9607L7.74163 12.9607C9.16681 12.9607 10.0599 13.8595 10.7546 14.6037C11.1017 14.9756 11.5845 15.589 12.1456 16.3949L10.9962 18.176C10.7446 18.5656 10.4569 19.0238 10.1487 19.5146L10.1486 19.5147C9.4123 20.6872 8.55893 22.046 7.80085 23.1039C6.45841 24.9763 5.7618 25.1669 5.00033 25.1669C4.40995 25.1669 3.83086 24.8986 3.4426 24.2653ZM0.728748 25.5012C0.240396 24.4916 0 23.2391 0 21.8364C0 18.9211 0.793431 15.8826 2.30228 13.5362C3.30629 11.9755 4.64398 10.7667 6.18486 10.2599C6.44979 10.1728 6.72072 10.1064 6.997 10.0625C7.25635 10.0213 7.52041 10 7.78863 10H7.78863C9.07186 10 10.3476 10.383 11.6797 11.4799C12.3818 12.0578 13.1063 12.8158 13.8853 13.8103C14.5182 12.9481 15.2009 12.1326 15.9354 11.4865C17.0222 10.5309 18.1945 10 19.3743 10C21.355 10 23.2418 11.1576 24.6858 13.3286C26.2661 15.7063 27.0332 18.7012 27.0332 21.7918C27.0332 23.3995 26.7582 24.634 26.2801 25.6321C26.2118 25.7746 26.1394 25.9124 26.063 26.0457C25.5095 27.0127 24.4636 27.9789 22.7401 28.0959C22.6252 28.1037 22.5073 28.1077 22.3863 28.1077C21.183 28.1077 20.117 27.8442 18.9381 26.7226C18.0318 25.8618 16.9724 24.3326 16.1573 22.9579L13.7328 18.8737C13.6637 18.7572 13.5949 18.6425 13.5265 18.5294L13.3173 18.9031L12.4656 20.4247C10.7546 23.4841 10.3212 24.1809 9.46575 25.3309C7.96631 27.3445 6.68591 28.1077 5.00033 28.1077C3.00076 28.1077 1.73634 27.2346 0.953245 25.9187C0.873338 25.7846 0.798513 25.6454 0.728748 25.5012ZM15.2119 15.6549C15.6618 16.3281 16.132 17.0765 16.6274 17.9086L17.3221 19.0766C18.9992 21.8942 19.9534 23.3438 20.5118 24.0273C21.23 24.9052 21.733 25.1669 22.3863 25.1669C24.0437 25.1669 24.4573 23.631 24.4573 21.8733C24.4573 19.3686 23.8782 16.5889 22.6025 14.6028C21.6972 13.194 20.524 12.3331 19.2333 12.3331C17.8372 12.3331 16.7138 13.395 15.4513 15.2882C15.3718 15.4074 15.292 15.5296 15.2119 15.6549ZM32.7094 10.5727H36.0873L41.8307 21.0502L47.5742 10.5727H50.8789V27.7892H48.123V14.5941L43.0868 23.7311H40.5015L35.4653 14.5941V27.7892H32.7094V10.5727ZM59.7682 28.0966C58.4918 28.0966 57.37 27.8117 56.4027 27.2419C55.4352 26.6721 54.6811 25.883 54.1406 24.8746C53.5999 23.8662 53.3296 22.7102 53.3297 21.4067C53.3297 20.0869 53.5939 18.9186 54.1223 17.9019C54.6507 16.8855 55.3844 16.0902 56.3234 15.5161C57.2624 14.9424 58.3416 14.6555 59.561 14.6553C60.7722 14.6553 61.8148 14.9443 62.6888 15.5223C63.5626 16.1004 64.2353 16.91 64.7069 17.9511C65.1783 18.9924 65.4141 20.2139 65.4142 21.6158V22.3781H56.0612C56.232 23.4277 56.6527 24.2537 57.3234 24.8561C57.994 25.4587 58.8415 25.76 59.8658 25.7599C60.6869 25.7599 61.3941 25.637 61.9876 25.391C62.581 25.1451 63.1379 24.7721 63.6583 24.272L65.1216 26.0797C63.6662 27.4244 61.8818 28.0967 59.7682 28.0966ZM61.7803 17.8834C61.203 17.2891 60.447 16.9919 59.5122 16.9918C58.6016 16.9918 57.8395 17.2952 57.2258 17.9019C56.6119 18.5086 56.2237 19.3244 56.0612 20.3491H62.7681C62.6867 19.2997 62.3575 18.4778 61.7803 17.8834ZM66.2192 17.238H68.7557V23.3252C68.7556 26.4897 70.1904 28.072 73.0602 28.072C73.4581 28.0731 73.8555 28.0443 74.2492 27.9859C74.5932 27.9359 74.9334 27.8619 75.2674 27.7645V25.5141C74.9747 25.5634 74.7065 25.6023 74.4626 25.6309C74.2185 25.6596 73.9218 25.6739 73.5724 25.6739C72.7837 25.6741 72.2268 25.4691 71.9018 25.0591C71.5766 24.6491 71.414 23.9646 71.414 23.0055V17.238H75.2674V14.9629H71.414V11.1999H68.7557V14.9629H66.2192V17.238ZM89.1204 27.7891H86.5108V25.9936C86.0474 26.666 85.4581 27.1845 84.7427 27.5492C84.0273 27.9139 83.2143 28.0964 82.3038 28.0966C81.182 28.0966 80.1882 27.8076 79.3223 27.2295C78.4565 26.6515 77.7757 25.8563 77.2798 24.8439C76.7839 23.8313 76.5359 22.6733 76.5359 21.3698C76.5359 20.0581 76.788 18.898 77.292 17.8895C77.796 16.8812 78.4931 16.0901 79.3833 15.5161C80.2735 14.9424 81.2958 14.6555 82.4501 14.6553C83.32 14.6553 84.1004 14.8255 84.7914 15.1658C85.4731 15.4983 86.0635 15.9944 86.5108 16.6106V14.9628H89.1204V27.7891ZM86.4621 19.4514C86.1774 18.7217 85.7282 18.1458 85.1146 17.7235C84.5007 17.3014 83.7914 17.0903 82.9867 17.0903C81.8485 17.0903 80.942 17.4756 80.2674 18.2462C79.5926 19.0169 79.2552 20.0581 79.2553 21.3698C79.2553 22.6899 79.5805 23.7352 80.2308 24.5057C80.8811 25.2764 81.7632 25.6617 82.877 25.6616C83.698 25.6616 84.4296 25.4485 85.0719 25.0221C85.714 24.596 86.1774 24.0221 86.4621 23.3005L86.4621 19.4514Z" fill="#7E5181"/>
</g>
<defs>
<clipPath id="clip0_665_30974">
<rect width="89.1204" height="18.1077" fill="white" transform="translate(0 10)"/>
</clipPath>
</defs>
</svg>
