<svg width="139" height="24" viewBox="0 0 139 24" fill="none" xmlns="http://www.w3.org/2000/svg">
<g clip-path="url(#clip0_600_852)">
<path fill-rule="evenodd" clip-rule="evenodd" d="M23.9921 24H0.0379639V0H23.9921V24ZM16.2029 3.99795L1.50287 13.9206V18.931L18.1231 3.93655C17.4858 3.91672 16.8401 3.93371 16.2029 3.99795ZM18.4295 3.95451L1.50287 20.6641V22.2423H12.5396L20.5768 4.23029C19.8661 4.0839 19.1478 3.99134 18.4295 3.95451ZM10.2923 5.84251L1.50287 9.82346V12.7513L15.7843 4.03857C13.3221 4.43808 10.2923 5.84251 10.2923 5.84251ZM22.1718 4.65625C21.7269 4.50986 21.2829 4.38708 20.8361 4.28602L14.6399 22.2423H22.1718V4.65625ZM81.9793 11.9253C81.8375 11.9381 81.695 11.9429 81.5526 11.9397C80.9233 11.9397 80.5566 11.7249 80.1637 11.4946C79.8672 11.3209 79.5557 11.1384 79.105 11.0328C76.9818 11.0328 76.0547 10.0377 76.0547 8.3879C76.0458 8.00672 76.1186 7.62805 76.2681 7.27744C76.4176 6.92682 76.6405 6.6124 76.9216 6.35538C77.2027 6.09836 77.5355 5.90472 77.8976 5.7875C78.2598 5.67028 78.6428 5.63221 79.0208 5.67586C80.8761 5.67586 81.8588 6.64123 81.8588 8.15782C81.9243 8.64345 81.8459 9.13768 81.6332 9.57898C81.4206 10.0203 81.0831 10.3892 80.6628 10.6398C80.8386 10.6659 80.9885 10.7387 81.15 10.8171C81.3972 10.937 81.6716 11.0702 82.1085 11.0702H82.3869L81.9793 11.9253ZM78.9749 6.716C78.2238 6.716 77.9081 7.3468 77.9081 8.33613C77.9081 9.65908 78.3071 9.98502 78.9931 9.98502C79.6992 9.98502 80.0045 9.65141 80.0045 8.32079C80.0045 7.02757 79.6897 6.716 78.9749 6.716ZM56.0588 8.48473C56.0588 10.0378 57.0979 11.0328 58.9704 11.0328C61.2792 11.0328 61.8629 9.64374 61.8629 8.15783C61.8629 7.02086 61.2237 5.67587 59.0259 5.67587C58.6401 5.6344 58.2499 5.67722 57.8823 5.80138C57.5146 5.92554 57.1782 6.12809 56.8961 6.39507C56.6141 6.66205 56.3932 6.98711 56.2487 7.34786C56.1041 7.70862 56.0393 8.09648 56.0588 8.48473ZM57.9131 8.33614C57.9131 7.3468 58.2289 6.71601 58.98 6.71601C59.6938 6.71601 60.0095 7.02757 60.0095 8.3208C60.0095 9.65141 59.7033 9.98502 58.9981 9.98502C58.3121 9.98502 57.9131 9.65908 57.9131 8.33614ZM52.9082 11.0331C52.0903 11.043 51.2792 10.8838 50.5257 10.5652L51.1093 9.52414C51.6803 9.78573 52.2986 9.92764 52.9263 9.94116C53.576 9.94116 53.8353 9.74751 53.8353 9.46566C53.8353 9.23559 53.6315 9.13109 53.1866 9.04194L52.4259 8.88568C51.4901 8.69299 50.85 8.27598 50.85 7.38443C50.85 6.35866 51.9064 5.67514 53.3531 5.67514C54.1523 5.65349 54.9447 5.82722 55.6619 6.18131L54.8649 7.12463C54.4128 6.89538 53.9151 6.77088 53.4086 6.76034C52.9828 6.76034 52.7503 6.92331 52.7503 7.1323C52.7503 7.30294 52.8986 7.47358 53.3808 7.5704L54.0391 7.70462C54.7347 7.84554 55.7365 8.09767 55.7365 9.13781C55.7365 10.3793 54.5864 11.0331 52.9082 11.0331ZM46.7973 10.3195C46.5566 10.5422 46.2726 10.7127 45.963 10.8201C45.6534 10.9275 45.325 10.9695 44.9985 10.9436H42.6523V5.76493H44.9343C45.466 5.73771 45.9958 5.84762 46.4729 6.08416C46.8391 6.30711 47.1335 6.63094 47.321 7.01699C47.5085 7.40303 47.5811 7.83499 47.5302 8.26127C47.5625 8.63693 47.5138 9.01517 47.3873 9.3703C47.2609 9.72543 47.0596 10.0492 46.7973 10.3195ZM44.8224 6.85684H44.3124V9.83634H44.8693C45.3324 9.83634 45.7036 9.65132 45.7036 8.21717C45.7036 7.0131 45.3228 6.85684 44.8224 6.85684ZM40.0549 9.94846L40.3879 10.9435H42.1867L40.2309 5.76489H38.5058L36.4295 10.9435H38.1719L38.5249 9.94846H40.0549ZM39.322 7.25081C39.338 7.49706 39.3784 7.74112 39.4425 7.97938L39.7209 8.9227H38.8866L39.1459 8.07621C39.2331 7.80796 39.2921 7.53133 39.322 7.25081ZM34.3868 10.9439L34.2289 8.85596C34.2012 8.52906 34.183 8.2616 34.183 7.81582H34.1734C34.1312 8.14672 34.0565 8.47263 33.9505 8.78886L33.163 10.9439H31.7536L31.0676 8.84925C30.957 8.51185 30.8854 8.16286 30.8542 7.80911H30.8446C30.8446 8.26927 30.8351 8.55111 30.8169 8.87801L30.6868 10.9439H29.0181L29.6486 5.76526H31.679L32.3095 7.81582C32.4117 8.13516 32.4831 8.46356 32.5229 8.79653H32.5325C32.5777 8.43705 32.6614 8.0835 32.7822 7.742L33.4415 5.76526H35.4068L36 10.9439H34.3868ZM32.7993 19.0113H28.883V13.8303H32.6775L32.5557 14.923H30.56V15.7927H32.1903V16.8482H30.56V17.9037H32.7993V19.0113ZM38.4212 19.0113H36.6972L35.5448 17.2124C35.3575 16.9201 35.1888 16.5955 35.0389 16.2387C35.1014 16.5707 35.1326 17.0093 35.1326 17.5544V19.0113H33.5398V13.8303H35.1513L36.3412 15.6069C36.5348 15.8943 36.716 16.2238 36.8846 16.5955C36.8471 16.3527 36.8284 15.9661 36.8284 15.4359V13.8303H38.4212V19.0113ZM43.6451 14.9304L43.8418 13.8303H38.9137V14.9304H40.4315V19.0113H42.1273V14.9304H43.6451ZM48.1056 19.0113H44.1893V13.8303H47.9838L47.862 14.923H45.8664V15.7927H47.4966V16.8482H45.8664V17.9037H48.1056V19.0113ZM51.9754 19.0113H53.9148C53.5775 18.4017 53.2496 17.8368 52.9311 17.3165C52.7374 16.9993 52.5188 16.8135 52.2752 16.759C52.6812 16.7045 53.0029 16.5608 53.2403 16.3279C53.5026 16.0752 53.6338 15.7357 53.6338 15.3095C53.6338 14.3234 52.7874 13.8303 51.0947 13.8303H48.8461V19.0113H50.5232V16.9597C50.7481 16.9597 50.9167 17.0167 51.0291 17.1307C51.0978 17.1951 51.1853 17.3388 51.2915 17.5618L51.9754 19.0113ZM50.5232 14.923H50.9917C51.5101 14.923 51.7693 15.0865 51.7693 15.4136C51.7693 15.7902 51.5132 15.9785 51.001 15.9785H50.5232V14.923ZM58.709 13.8303L58.5122 14.9304H56.9944V19.0113H55.2986V14.9304H53.7808V13.8303H58.709ZM62.1857 19.0113H64.0033L62.0264 13.8303H60.2837L58.1851 19.0113H59.9465L60.3025 18.0152H61.8484L62.1857 19.0113ZM61.23 16.0454L61.5111 16.9894H60.6679L60.9302 16.142C61.0239 15.8348 61.0833 15.5598 61.1082 15.317C61.1207 15.5697 61.1613 15.8125 61.23 16.0454ZM65.9951 19.0113H64.2805V13.8303H65.9951V19.0113ZM70.2831 19.0113H72.007V13.8303H70.4143V15.4359C70.4143 15.9661 70.433 16.3527 70.4705 16.5955C70.3019 16.2238 70.1207 15.8943 69.9271 15.6069L68.7372 13.8303H67.1257V19.0113H68.7185V17.5544C68.7185 17.0093 68.6873 16.5707 68.6248 16.2387C68.7747 16.5955 68.9433 16.9201 69.1307 17.2124L70.2831 19.0113ZM80.023 19.0113H78.3927L78.2335 16.9225C78.2022 16.5112 78.1866 16.1644 78.1866 15.8819H78.1772C78.1023 16.3328 78.0273 16.6574 77.9524 16.8556L77.156 19.0113H75.7319L75.0386 16.9151C74.9324 16.598 74.8606 16.2511 74.8231 15.8745H74.8137C74.8137 16.2907 74.8043 16.6475 74.7856 16.9448L74.6544 19.0113H72.968L73.6051 13.8303H75.6569L76.294 15.8819C76.394 16.199 76.4658 16.5261 76.5095 16.8631H76.5189C76.5689 16.5112 76.6532 16.1594 76.7719 15.8076L77.4371 13.8303H79.4233L80.023 19.0113ZM80.9958 19.0113H84.9121V17.9037H82.6729V16.8482H84.3031V15.7927H82.6729V14.923H84.6685L84.7903 13.8303H80.9958V19.0113ZM90.5339 19.0113H88.81L87.6576 17.2124C87.4702 16.9201 87.3016 16.5955 87.1517 16.2387C87.2141 16.5707 87.2454 17.0093 87.2454 17.5544V19.0113H85.6526V13.8303H87.2641L88.454 15.6069C88.6476 15.8943 88.8288 16.2238 88.9974 16.5955C88.9599 16.3527 88.9412 15.9661 88.9412 15.4359V13.8303H90.5339V19.0113ZM95.7579 14.9304L95.9547 13.8303H91.0265V14.9304H92.5443V19.0113H94.2401V14.9304H95.7579ZM50.0528 5.76453H48.3563V10.9432H50.0528V5.76453ZM65.8039 10.9439L64.6624 9.14641C64.4716 8.83469 64.3043 8.50912 64.162 8.17241C64.229 8.60753 64.26 9.04745 64.2548 9.48769V10.9439H62.6789V5.76526H64.273L65.4508 7.54069C65.6564 7.85509 65.8362 8.18563 65.9886 8.52906C65.9462 8.14425 65.9279 7.75715 65.934 7.37005V5.76526H67.5099V10.9439L65.8039 10.9439ZM70.3819 10.5653C71.1355 10.8838 71.9466 11.043 72.7644 11.0331C74.4427 11.0331 75.5928 10.3793 75.5928 9.13782C75.5928 8.09768 74.591 7.84555 73.8954 7.70463L73.2381 7.57042C72.7558 7.4736 72.6075 7.30296 72.6075 7.13232C72.6075 6.92333 72.8391 6.76036 73.2649 6.76036C73.7714 6.7709 74.2691 6.89539 74.7211 7.12465L75.5182 6.18133C74.8011 5.82713 74.0086 5.65339 73.2094 5.67516C71.7626 5.67516 70.7063 6.35868 70.7063 7.38444C70.7063 8.27599 71.3464 8.69301 72.2822 8.88569L73.0429 9.04196C73.4868 9.13111 73.6916 9.23561 73.6916 9.46568C73.6916 9.74753 73.4323 9.94118 72.7826 9.94118C72.1549 9.92777 71.5366 9.78586 70.9656 9.52416L70.3819 10.5653ZM86.2741 10.8969C86.6697 10.752 87.0243 10.5133 87.3078 10.2012C87.4462 9.93893 87.5013 9.64056 87.4657 9.34606V5.76453H85.8066V9.16775C85.8066 9.67392 85.6391 9.94139 85.0449 9.94139C84.4613 9.94139 84.2756 9.6212 84.2756 9.1457V5.76453H82.6069V9.28757C82.6069 9.97781 82.672 10.112 82.9217 10.3872C83.211 10.6346 83.5481 10.8196 83.9119 10.9308C84.2757 11.0419 84.6585 11.0768 85.0363 11.0333C85.4539 11.0886 85.8785 11.0418 86.2741 10.8969ZM91.673 10.9435L91.34 9.94846H89.8091L89.457 10.9435H87.7137L89.7909 5.76489H91.5151L93.4718 10.9435H91.673ZM90.7277 7.97938C90.663 7.74122 90.6227 7.49712 90.6071 7.25081C90.5773 7.53142 90.5179 7.80809 90.4301 8.07621L90.1708 8.9227H91.0061L90.7277 7.97938ZM96.3583 9.49539L97.0348 10.9439H98.9532C98.7408 10.5576 98.1945 9.59892 97.9801 9.24997C97.8386 8.99148 97.608 8.79348 97.3314 8.69299C97.5147 8.68646 97.695 8.64376 97.8618 8.56734C98.0286 8.49092 98.1788 8.38229 98.3037 8.24765C98.4285 8.11301 98.5257 7.95501 98.5895 7.78271C98.6534 7.6104 98.6827 7.42717 98.6757 7.24351C98.6757 6.38167 98.0643 5.76526 96.1631 5.76526H93.9375V10.9439H95.5967V8.89335C95.9593 8.89335 96.1076 8.96046 96.3583 9.49539ZM95.5967 6.85717H96.0607C96.5803 6.85717 96.831 6.97604 96.831 7.34704C96.831 7.69695 96.6358 7.91265 96.0713 7.91265H95.5967V6.85717ZM99.5426 5.76526H103.297L103.178 6.85717H101.202V7.72667H102.815V8.78119H101.202V9.83667H103.419V10.9439H99.5426V5.76526ZM109.081 6.7604C109.552 6.74749 110.014 6.88848 110.398 7.16208L111.315 6.33667C110.648 5.89503 109.862 5.66702 109.063 5.68287C108.558 5.66497 108.055 5.75619 107.588 5.95034C107.093 6.14894 106.671 6.49638 106.38 6.94491C106.09 7.39345 105.945 7.92108 105.966 8.4553C105.951 8.76419 105.997 9.07308 106.102 9.36393C106.207 9.65477 106.369 9.92175 106.578 10.1492C106.882 10.4632 107.251 10.7053 107.66 10.8582C108.069 11.0111 108.507 11.0708 108.942 11.0331C109.747 11.048 110.545 10.8723 111.27 10.5202V7.99419H108.637L108.822 9.04871H109.61V9.86644C109.414 9.92281 109.211 9.94804 109.007 9.94122C108.238 9.94122 107.858 9.43505 107.858 8.40258C107.858 7.24356 108.21 6.7604 109.081 6.7604ZM115.615 10.9435L115.281 9.94846H113.751L113.398 10.9435H111.656L113.733 5.76489H115.457L117.414 10.9435H115.615ZM114.67 7.97938C114.606 7.74107 114.565 7.49706 114.547 7.25081C114.519 7.53154 114.461 7.80833 114.372 8.07621L114.113 8.9227H114.947L114.67 7.97938ZM120.3 9.49539L120.976 10.9439H122.895C122.682 10.5576 122.135 9.59892 121.921 9.24997C121.78 8.99148 121.549 8.79348 121.273 8.69299C121.456 8.68654 121.636 8.6439 121.803 8.5675C121.97 8.49111 122.12 8.38247 122.245 8.24782C122.37 8.11316 122.467 7.95514 122.531 7.78279C122.595 7.61045 122.624 7.42719 122.617 7.24351C122.617 6.38167 122.006 5.76526 120.105 5.76526H117.88V10.9439H119.539V8.89335C119.901 8.89335 120.05 8.96046 120.3 9.49539ZM119.539 6.85717H120.003C120.522 6.85717 120.772 6.97604 120.772 7.34704C120.772 7.69695 120.578 7.91265 120.012 7.91265H119.539V6.85717ZM127.628 10.3195C127.387 10.5422 127.103 10.7126 126.794 10.82C126.484 10.9274 126.156 10.9695 125.829 10.9436H123.484V5.76495H125.764C126.296 5.73763 126.826 5.84755 127.304 6.08419C127.67 6.30714 127.964 6.63097 128.152 7.01702C128.339 7.40306 128.412 7.83501 128.361 8.26129C128.393 8.63696 128.345 9.01519 128.218 9.37033C128.092 9.72546 127.891 10.0492 127.628 10.3195ZM125.653 6.85686H125.143V9.83636H125.7C126.163 9.83636 126.534 9.65134 126.534 8.2172C126.534 7.01312 126.154 6.85686 125.653 6.85686ZM132.932 5.76526H129.176V10.9439H133.053V9.83667H130.837V8.78119H132.449V7.72667H130.837V6.85717H132.811L132.932 5.76526ZM136.958 10.9439L135.818 9.14641C135.626 8.83493 135.459 8.50933 135.316 8.17241C135.383 8.60753 135.414 9.04745 135.409 9.48769V10.9439H133.832V5.76526H135.427L136.605 7.54069C136.811 7.85528 136.991 8.18578 137.144 8.52906C137.101 8.14429 137.082 7.75719 137.088 7.37005V5.76526H138.663V10.9439L136.958 10.9439Z" fill="#7E5181"/>
</g>
<defs>
<clipPath id="clip0_600_852">
<rect width="138.625" height="24" fill="white" transform="translate(0.0379639)"/>
</clipPath>
</defs>
</svg>
