<svg width="71" height="38" viewBox="0 0 71 38" fill="none" xmlns="http://www.w3.org/2000/svg">
<g clip-path="url(#clip0_665_30974)">
<path fill-rule="evenodd" clip-rule="evenodd" d="M2.74264 21.0292C2.50672 20.6554 2.32622 20.0375 2.32622 19.2327C2.32622 17.2815 2.89167 15.2496 3.81512 13.8856L3.81514 13.8855L3.81519 13.8856C4.4433 12.9571 5.18919 12.3378 6.06284 12.2919C6.09047 12.2904 6.11823 12.2895 6.14611 12.2892L6.16756 12.2891L6.16762 12.2891C7.30303 12.2891 8.01452 12.984 8.568 13.5594C8.84448 13.8469 9.22909 14.3211 9.67616 14.9442L8.76041 16.3213C8.55994 16.6226 8.3307 16.9768 8.08512 17.3563C7.49854 18.2628 6.81869 19.3134 6.21474 20.1313C5.14525 21.579 4.59028 21.7263 3.98364 21.7263C3.5133 21.7263 3.05195 21.5189 2.74264 21.0292ZM0.580575 21.9847C0.191517 21.2042 0 20.2359 0 19.1513C0 16.8974 0.632107 14.5482 1.83417 12.734C2.90066 11.1251 4.43975 10 6.20501 10H6.20507C7.22738 10 8.2437 10.2961 9.30496 11.1442C9.86435 11.591 10.4415 12.177 11.0621 12.9459C11.5663 12.2793 12.1102 11.6488 12.6954 11.1493C13.5612 10.4105 14.4951 10 15.435 10C17.013 10 18.5162 10.895 19.6665 12.5735C20.9255 14.4118 21.5367 16.7273 21.5367 19.1169H21.5367C21.5367 20.5374 21.2506 21.5811 20.7638 22.4058C20.3964 23.0287 19.7566 23.6512 18.7592 23.8938C18.5595 23.9424 18.3455 23.9758 18.1165 23.9909C18.025 23.9969 17.9311 24 17.8347 24H17.8346C16.876 24 16.0267 23.7962 15.0876 22.9291C14.3656 22.2636 13.5215 21.0813 12.8722 20.0184L10.9407 16.8607C10.8856 16.7707 10.8307 16.6819 10.7762 16.5945L10.6096 16.8835L9.93101 18.0599C8.56793 20.4252 8.22267 20.964 7.54113 21.8531C6.34656 23.4099 5.3265 24 3.98364 24C2.39063 24 1.3833 23.3249 0.759426 22.3075C0.695766 22.2039 0.636155 22.0963 0.580575 21.9847ZM12.1189 14.372C12.4774 14.8925 12.852 15.4712 13.2467 16.1146L13.8001 17.0176C15.1362 19.196 15.8964 20.3168 16.3413 20.8452C16.9135 21.524 17.3141 21.7263 17.8346 21.7263L12.1189 14.372ZM12.1189 14.372C12.1828 14.2752 12.2463 14.1807 12.3097 14.0886C13.3155 12.6248 14.2105 11.8039 15.3227 11.8039C16.351 11.8039 17.2857 12.4694 18.0069 13.5586C19.0232 15.0942 19.4846 17.2434 19.4846 19.1799C19.4846 20.3902 19.2232 21.4645 18.2332 21.685C18.1116 21.7121 17.9791 21.7263 17.8347 21.7263L12.1189 14.372ZM26.0589 10.4428H28.7499L33.3256 18.5435L37.9012 10.4428H40.534V23.7538H38.3384V13.552L34.3262 20.6163H32.2666L28.2544 13.552V23.7538H26.0589V10.4428ZM47.616 23.9914C46.5991 23.9914 45.7053 23.7712 44.9347 23.3306C44.1639 22.8901 43.5632 22.28 43.1326 21.5004C42.7018 20.7207 42.4864 19.827 42.4865 18.8192C42.4865 17.7987 42.697 16.8955 43.118 16.1094C43.5389 15.3236 44.1235 14.7087 44.8715 14.2648C45.6196 13.8213 46.4794 13.5994 47.4508 13.5993C48.4158 13.5993 49.2464 13.8227 49.9427 14.2696C50.6388 14.7165 51.1747 15.3425 51.5505 16.1474C51.926 16.9525 52.1139 17.8969 52.1139 18.9808V19.5702H44.6626C44.7987 20.3817 45.1339 21.0203 45.6682 21.486C46.2025 21.952 46.8777 22.1849 47.6937 22.1849C48.3478 22.1849 48.9112 22.0898 49.3841 21.8996C49.8568 21.7095 50.3004 21.4211 50.715 21.0345L51.8808 22.4321C50.7214 23.4717 49.2998 23.9915 47.616 23.9914ZM49.2189 16.0951C48.759 15.6356 48.1567 15.4058 47.412 15.4058C46.6865 15.4058 46.0794 15.6403 45.5904 16.1094C45.1014 16.5785 44.7921 17.2092 44.6626 18.0015H50.0059C49.941 17.1901 49.6787 16.5547 49.2189 16.0951ZM52.7553 15.5961H54.776V20.3024C54.7759 22.7491 55.919 23.9724 58.2053 23.9724C58.5223 23.9733 58.8389 23.9511 59.1525 23.9059C59.4266 23.8672 59.6977 23.81 59.9637 23.7347V21.9948C59.7306 22.0329 59.5169 22.063 59.3226 22.0851C59.1281 22.1073 58.8917 22.1184 58.6134 22.1184C57.985 22.1185 57.5413 21.96 57.2824 21.643C57.0234 21.326 56.8938 20.7968 56.8938 20.0552V15.5961H59.9637V13.8371H56.8938V10.9278H54.776V13.8371H52.7553V15.5961ZM71 23.7537H68.921V22.3655C68.5519 22.8854 68.0823 23.2863 67.5124 23.5683C66.9424 23.8502 66.2948 23.9913 65.5694 23.9914C64.6757 23.9914 63.8839 23.768 63.1941 23.321C62.5044 22.8742 61.962 22.2594 61.5669 21.4766C61.1718 20.6938 60.9743 19.7984 60.9743 18.7906C60.9743 17.7765 61.1751 16.8795 61.5766 16.0998C61.9781 15.3203 62.5335 14.7086 63.2427 14.2648C63.9519 13.8213 64.7663 13.5994 65.686 13.5993C66.379 13.5993 67.0007 13.7309 67.5512 13.9939C68.0943 14.251 68.5647 14.6346 68.921 15.1111V13.8371H71V23.7537ZM68.8822 17.3074C68.6554 16.7433 68.2976 16.298 67.8087 15.9715C67.3196 15.6451 66.7545 15.4819 66.1135 15.4819C65.2066 15.4819 64.4845 15.7798 63.9471 16.3756C63.4094 16.9714 63.1406 17.7764 63.1407 18.7906C63.1407 19.8112 63.3998 20.6194 63.9179 21.2151C64.436 21.811 65.1387 22.1089 66.0261 22.1088C66.6801 22.1088 67.263 21.944 67.7747 21.6144C68.2862 21.285 68.6554 20.8413 68.8822 20.2833V17.3074Z" fill="#7E5181"/>
</g>
<defs>
<clipPath id="clip0_665_30974">
<rect width="71" height="14" fill="white" transform="translate(0 10)"/>
</clipPath>
</defs>
</svg>
