<svg width="96" height="38" viewBox="0 0 96 38" fill="none" xmlns="http://www.w3.org/2000/svg">
<path fill-rule="evenodd" clip-rule="evenodd" d="M85.3377 0L92.3148 11.2233H88.4385L81.1367 4.85763L75.6297 11.2233H73.3578L77.7105 1.87031L81.1366 4.85692L85.3377 0ZM89.7086 28.5453C89.1529 28.5088 88.5889 28.3521 88.0163 28.0741C87.3563 27.7542 86.8292 27.3198 86.4348 26.7714L84.3872 28.6913C85.0242 29.4536 85.8433 30.0286 86.8442 30.4171C87.4267 30.6433 88.017 30.8015 88.6148 30.896L89.7086 28.5453ZM86.4008 21.9485C86.7875 22.2993 87.2233 22.5808 87.709 22.794C88.1943 23.0077 88.6796 23.1907 89.1651 23.3426C89.6655 23.5106 90.1436 23.6707 90.5987 23.8227C91.0103 23.9609 91.37 24.1217 91.6827 24.3032L92.8689 21.7543C92.8577 21.7496 92.8465 21.7448 92.8353 21.7399C92.8236 21.7349 92.812 21.7297 92.8003 21.7246C92.7608 21.7073 92.7212 21.6899 92.6803 21.6742C92.1264 21.4608 91.5918 21.2706 91.0764 21.1026C90.6212 20.9655 90.2039 20.8283 89.8249 20.6912C89.4456 20.5542 89.1233 20.3941 88.8579 20.2112C88.5923 20.0282 88.3838 19.8075 88.2324 19.5484C88.0804 19.2892 88.0048 18.9769 88.0048 18.6113C88.0048 18.2151 88.0919 17.8762 88.2666 17.5939C88.4406 17.3122 88.6648 17.0836 88.9376 16.9083C89.2106 16.7333 89.514 16.6035 89.8478 16.5198C90.1812 16.4362 90.515 16.3941 90.8488 16.3941C91.4097 16.3941 91.967 16.5275 92.5212 16.7939C93.0744 17.061 93.2443 17.1828 94.4973 18.2514L95.4484 16.2107L95.6719 15.7308C95.0498 15.1522 94.3185 14.7178 93.4767 14.4281C92.6349 14.1389 91.8045 13.9942 90.9854 13.9942C90.2573 13.9942 89.5406 14.0894 88.8354 14.2795C88.1297 14.4704 87.5004 14.7596 86.9467 15.1481C86.3932 15.5371 85.9457 16.0284 85.6045 16.6225C85.2632 17.217 85.0924 17.9254 85.0924 18.7483C85.0924 19.5104 85.2137 20.1465 85.4563 20.6571C85.699 21.1677 86.0141 21.598 86.4008 21.9485ZM4.06509 14.4055L2.89495 16.9198H10.3977V14.4055H4.06509ZM2.86672 16.9807L0 23.1407V30.5887H2.86672V23.777H9.96554V21.3543H2.86672V16.9807ZM80.7471 17.7882C80.4432 17.3922 80.0149 17.061 79.4616 16.7939C78.9074 16.5275 78.3501 16.3941 77.789 16.3941C77.4554 16.3941 77.1213 16.4362 76.788 16.5198C76.4542 16.6035 76.151 16.7333 75.8777 16.9083C75.6052 17.0836 75.381 17.3122 75.2068 17.5939C75.0321 17.8762 74.9452 18.2151 74.9452 18.6113C74.9452 18.9769 75.0208 19.2892 75.1728 19.5484C75.3243 19.8075 75.5327 20.0282 75.7983 20.2112C76.0637 20.3941 76.386 20.5542 76.7653 20.6912C77.1443 20.8283 77.5616 20.9655 78.0168 21.1026C78.5322 21.2706 79.0668 21.4608 79.6207 21.6742C80.1742 21.8877 80.6822 22.1697 81.145 22.52C81.6076 22.8707 81.9869 23.3123 82.2829 23.8455C82.5784 24.3792 82.7263 25.0422 82.7263 25.8343C82.7263 26.7029 82.5671 27.4611 82.2486 28.1085C81.9299 28.7564 81.5054 29.2937 80.9744 29.7199C80.4432 30.1469 79.8217 30.4668 79.1089 30.6801C78.3958 30.8936 77.6449 31.0001 76.8562 31.0001C75.8098 31.0001 74.7861 30.8058 73.7847 30.4171C72.7837 30.0286 71.9646 29.4536 71.3276 28.6913L73.3752 26.7714C73.7696 27.3198 74.2967 27.7542 74.9567 28.0741C75.6162 28.3944 76.2647 28.5542 76.9017 28.5542C77.2352 28.5542 77.5767 28.5124 77.9258 28.4287C78.2745 28.3451 78.5889 28.204 78.8698 28.0056C79.1505 27.808 79.3779 27.5599 79.5525 27.2628C79.7265 26.9657 79.8141 26.5967 79.8141 26.1543C79.8141 25.7276 79.7153 25.3735 79.5183 25.0913C79.3209 24.8095 79.0555 24.5655 78.722 24.36C78.3881 24.1542 77.994 23.9753 77.5389 23.8227C77.0838 23.6707 76.6059 23.5106 76.1053 23.3426C75.62 23.1907 75.1345 23.0077 74.6492 22.794C74.1637 22.5808 73.7279 22.2993 73.3412 21.9485C72.9543 21.598 72.6394 21.1677 72.3968 20.6571C72.1541 20.1465 72.0328 19.5104 72.0328 18.7483C72.0328 17.9254 72.2037 17.217 72.5446 16.6225C72.8861 16.0284 73.3331 15.5371 73.8871 15.1481C74.4405 14.7596 75.0701 14.4704 75.7756 14.2795C76.481 14.0894 77.1977 13.9942 77.9258 13.9942C78.7449 13.9942 79.575 14.1389 80.4171 14.4281C81.2587 14.7178 81.9904 15.1522 82.6126 15.7311L80.7471 17.7882ZM58.655 14.4055H69.3257V16.9198H61.5217V21.034H68.916V23.457H61.5217V28.0287H69.7354V30.5887H58.655V14.4055ZM40.9081 14.4055H44.7076L52.1934 26.52H52.2388V14.4055H55.1055V30.5887H51.4652L43.8203 18.0853H43.7748V30.5887H40.9081V14.4055ZM29.2819 14.4055H32.1488V28.0287H38.9971V30.5887H29.2819V14.4055ZM25.8694 24.6456C25.8694 25.6211 25.7023 26.501 25.3688 27.2856C25.0349 28.0705 24.58 28.7372 24.0036 29.2858C23.4271 29.8344 22.7444 30.2572 21.956 30.5543C21.167 30.8517 20.3099 31.0001 19.3848 31.0001C18.4594 31.0001 17.6025 30.8517 16.8141 30.5543C16.0251 30.2572 15.3386 29.8344 14.7547 29.2858C14.1709 28.7372 13.7157 28.0705 13.3896 27.2856C13.0634 26.501 12.9007 25.6211 12.9007 24.6456V14.4055H15.7674V24.5314C15.7674 25.004 15.8277 25.4725 15.9495 25.937C16.0706 26.4022 16.2714 26.8171 16.5523 27.1827C16.8327 27.5486 17.2044 27.8458 17.6671 28.0741C18.1297 28.3028 18.7026 28.4172 19.3848 28.4172C20.0675 28.4172 20.6399 28.3028 21.1027 28.0741C21.5652 27.8458 21.9368 27.5486 22.2178 27.1827C22.4982 26.8171 22.699 26.4022 22.8205 25.937C22.9419 25.4725 23.0026 25.004 23.0026 24.5314V14.4055H25.8694V24.6456Z" fill="#7E5181"/>
</svg>
