<svg width="125" height="18" viewBox="0 0 125 18" fill="none" xmlns="http://www.w3.org/2000/svg">
<g clip-path="url(#clip0_600_851)">
<path d="M0.340302 0.000488281V7.7115H7.89931V0.000488281H0.340302ZM5.23534 4.99559H3.00198V2.71754H5.23534V4.99559ZM16.318 10.1823H19.7319C21.018 10.1823 21.6364 10.7498 21.6364 11.7911C21.6364 13.151 20.649 13.473 19.5101 13.473H16.318V10.1823ZM10.8799 17.6768H20.8945C24.012 17.6768 27.0775 15.8451 27.0775 12.3097C27.0775 9.71306 25.5937 8.45262 24.012 7.90691C25.3237 7.1918 26.1857 6.22544 26.1857 4.44606C26.1861 2.63915 25.1995 0.019609 20.5492 0.019609H10.8799V17.6768ZM16.318 4.22235H19.1881C20.301 4.22235 21.0421 4.54358 21.0421 5.4346C21.0421 6.57229 20.3251 6.89428 19.1881 6.89428H16.318V4.22235ZM32.2908 9.81172C32.5149 8.42738 33.3539 7.66064 34.8155 7.66064C36.0749 7.66064 36.9648 8.62432 36.9648 9.81363H32.2911L32.2908 9.81172ZM41.6648 12.3586C41.6648 7.36427 39.4628 4.5191 34.3689 4.5191C30.3102 4.5191 27.5911 7.56198 27.5911 11.2966C27.5911 15.5736 30.6834 17.9977 34.7899 17.9977C37.7059 17.9977 40.4039 16.7116 41.3913 13.9403H36.8175C36.4213 14.559 35.5548 14.8554 34.7616 14.8554C33.2319 14.8554 32.3906 13.8152 32.2663 12.3575L41.664 12.3567L41.6648 12.3586ZM47.8027 0.932815H42.9042V4.84186H40.7282V7.85796H42.9042V13.993C42.9042 17.5036 45.2049 17.8248 47.283 17.8248C48.3209 17.8248 49.4353 17.6772 50.4242 17.6772V13.9651C50.0521 14.0175 49.6823 14.0408 49.3098 14.0408C48.0746 14.0408 47.8012 13.5215 47.8012 12.3353V7.8572H50.4234V4.84186H47.8V0.932815H47.8027ZM51.2369 17.6768H56.1331V10.9005C56.1331 8.84689 57.2459 8.42508 58.0884 8.42508C59.521 8.42508 59.6946 9.46525 59.6946 10.9483V17.6768H64.5934V8.8706C64.5934 5.92792 62.4882 4.51872 60.1871 4.51872C58.1121 4.51872 57.0218 5.23766 56.1805 6.22505H56.1319V0.019609H51.2369V17.6768ZM69.926 9.81172C70.1478 8.42738 70.9907 7.66064 72.4508 7.66064C73.7128 7.66064 74.6 8.62432 74.6 9.81363H69.9264L69.926 9.81172ZM79.3 12.3586C79.3 7.36427 77.101 4.5191 72.0041 4.5191C67.9465 4.5191 65.226 7.56198 65.226 11.2966C65.226 15.5736 68.3186 17.9977 72.427 17.9977C75.3411 17.9977 78.041 16.4757 79.0265 13.7055H74.4543C74.0604 14.3238 73.1923 14.8546 72.3991 14.8546C70.8679 14.8546 70.0254 13.8145 69.9034 12.3575H79.3011L79.3 12.3586ZM91.6202 8.57499C91.4993 5.28699 88.1592 4.51987 85.389 4.51987C82.8164 4.51987 79.3283 5.36118 79.3283 8.601C79.3283 10.8014 80.8362 11.9892 84.5713 12.6316C86.8468 13.0271 87.2674 13.2496 87.2674 13.993C87.2674 14.7349 86.254 14.9824 85.6123 14.9824C85.0176 14.9824 84.5491 14.8313 84.3006 14.6103C83.9285 14.2906 83.7331 14.1552 83.709 13.7078H79.0357C79.1076 17.0233 82.424 18.0004 85.4383 18.0004C88.555 18.0004 91.9709 17.034 91.9709 13.4726C91.9709 11.3693 90.5352 10.4056 88.9027 9.88553C87.2697 9.3425 85.4176 9.24307 84.6004 8.89507C84.33 8.7727 84.0329 8.60061 84.0329 8.22776C84.0329 7.38836 84.823 7.24036 85.5167 7.24036C85.9121 7.24036 86.3095 7.36388 86.6028 7.61131C86.9271 7.83311 87.1477 8.15434 87.1745 8.57499L91.6221 8.57348L91.6202 8.57499ZM106.062 0.019609H101.167V6.25067H101.116C100.375 5.16156 99.0626 4.51987 97.604 4.51987C93.3002 4.51987 92.138 8.1811 92.138 11.1968C92.138 14.4129 93.8933 18 97.5302 18C99.9299 18 100.67 17.0837 101.289 16.2657H101.34V17.6768H106.063V0.0207562L106.062 0.019609ZM101.34 11.2473C101.34 12.7785 100.944 14.4366 99.1907 14.4366C97.4334 14.4366 97.0361 12.7785 97.0361 11.2473C97.0361 9.73868 97.4319 8.08091 99.1891 8.08091C100.941 8.08091 101.338 9.73868 101.338 11.2473M115.305 13.1013C115.23 14.4366 114.366 15.1028 113.251 15.1028C112.364 15.1028 111.717 14.5112 111.717 13.9196C111.717 13.0515 112.286 12.7785 113.374 12.5334C114.045 12.3819 114.711 12.2106 115.304 11.9139V13.1013H115.305ZM120.005 9.53982C120.005 7.06751 120.051 4.51872 113.918 4.51872C110.876 4.51872 107.464 5.11223 107.316 8.7226H111.864C111.891 8.18034 112.19 7.41207 113.696 7.41207C114.49 7.41207 115.305 7.73521 115.305 8.60138C115.305 9.41822 114.635 9.61478 113.97 9.73944C111.47 10.209 106.725 10.0591 106.725 14.1181C106.725 16.8126 108.774 17.9996 111.25 17.9996C112.835 17.9996 114.34 17.6516 115.38 16.4654H115.43C115.404 16.8122 115.477 17.3327 115.603 17.6776H120.599C120.053 16.8615 120.007 15.7732 120.007 14.8076V9.54174L120.005 9.53982ZM121.435 6.83692H121.063V5.32255H120.494V5.00133H121.987V5.32255H121.436V6.83692H121.435ZM122.555 6.83692H122.206V5.00133H122.789L123.121 6.26827L123.454 5.00171H124.038V6.8373H123.684V5.37342L123.285 6.83692H122.951L122.557 5.3738L122.557 6.83845L122.555 6.83692Z" fill="#7E5181"/>
</g>
<defs>
<clipPath id="clip0_600_851">
<rect width="123.698" height="18" fill="white" transform="translate(0.340302)"/>
</clipPath>
</defs>
</svg>
