<svg width="163" height="38" viewBox="0 0 163 38" fill="none" xmlns="http://www.w3.org/2000/svg">
<path d="M16.8703 9.90929C17.6382 9.90929 18.3026 9.63581 18.8635 9.08966C19.3624 8.60592 19.622 8.10166 19.6424 7.57604C19.6628 7.2196 19.5279 6.86727 19.2377 6.52069C18.9466 6.17411 18.5835 6 18.1473 6C17.3989 6 16.7193 6.25295 16.1066 6.75558C15.4931 7.26067 15.1766 7.78711 15.1563 8.33244C15.1147 9.38367 15.6866 9.90929 16.8703 9.90929ZM58.4987 16.7136C58.4563 17.7295 58.1559 18.7019 57.595 19.6333C56.9307 20.7559 56.1305 21.3161 55.1971 21.3161C54.7813 21.3161 54.4589 21.0836 54.2307 20.618C54.0236 20.2155 53.9294 19.7499 53.9507 19.2201C53.9907 18.1442 54.3125 17.0958 54.8857 16.1732C55.5696 15.0094 56.4419 14.4272 57.5017 14.4272C57.8326 14.4272 58.0872 14.6661 58.2645 15.1417C58.441 15.618 58.5191 16.142 58.4987 16.7136ZM42.9148 19.0214C42.9029 18.7487 42.9029 18.6108 42.9148 18.6108C42.9343 17.8133 43.2669 16.9781 43.9093 16.1059C44.5524 15.2337 45.1837 14.7976 45.8065 14.7976C46.2834 14.7976 46.5108 15.0817 46.4913 15.6484C46.4701 16.0689 46.1587 16.6159 45.5579 17.2885C44.8269 18.0559 43.9223 18.649 42.9148 19.0214ZM57.7512 11.8352C55.4873 11.8352 53.6087 12.6787 52.1136 14.3647C50.7203 15.8841 50.0772 17.5505 50.1815 19.3639C50.1892 19.4977 50.2002 19.6267 50.2138 19.7556C50.1365 19.7901 50.061 19.8254 49.9804 19.8591C48.2146 20.6336 46.5838 21.0196 45.0895 21.0196C44.3412 21.0196 43.7803 20.7568 43.4069 20.2303C45.4205 19.8928 47.0929 19.1027 48.4225 17.8593C49.6682 16.7218 50.2503 15.6155 50.1671 14.5413C50.0424 12.856 48.9622 12.0126 46.9274 12.0126C44.7264 12.0126 42.8155 12.8585 41.1957 14.5462C39.721 16.0894 38.9726 17.7147 38.953 19.4246C38.9471 19.7121 38.9615 19.988 38.9955 20.2541C38.6467 20.4866 38.3828 20.6048 38.2063 20.6048C37.8101 20.6048 37.5615 20.5211 37.458 20.3527C37.3544 20.1843 37.3129 19.8796 37.3332 19.437C37.3332 19.2686 37.463 18.6223 37.7235 17.4971C37.9823 16.3711 38.1223 15.5129 38.1436 14.924C38.1843 14.0617 38.018 13.3989 37.6446 12.9357C37.2085 12.3674 36.4923 12.1251 35.4953 12.2097C34.6655 12.2738 33.8653 12.5908 33.0966 13.1607C32.6401 13.4991 32.1734 13.9525 31.6965 14.5224C31.5293 14.6703 31.3741 14.8091 31.2281 14.9347C31.2476 14.0691 31.0822 13.403 30.73 12.939C30.293 12.3682 29.5667 12.1259 28.5493 12.2097C27.3656 12.3156 26.2957 12.7912 25.3411 13.6354C24.9253 13.9952 24.5613 14.4181 24.2507 14.9035C24.2915 14.713 24.3118 14.5126 24.3118 14.3015C24.3118 13.6469 24.1455 13.0712 23.8129 12.5743C23.4811 12.0783 23.045 11.8516 22.5053 11.8943C22.1939 11.9157 21.6025 12.3378 20.7302 13.1607C19.5253 14.3015 18.872 14.9142 18.7676 14.9979L19.5143 15.8537C20.0964 15.4267 20.4494 15.2131 20.5749 15.2131C20.8023 15.2131 20.8957 15.402 20.8549 15.7806C20.8346 16.3292 20.7387 17.0922 20.5681 18.072C20.4745 18.5933 20.3975 19.1172 20.3373 19.6431L20.3102 19.6669C19.5618 20.2927 19.0425 20.6048 18.7523 20.6048C18.0879 20.6048 17.7655 20.1531 17.7867 19.2473C18.0981 17.2696 18.3891 15.6394 18.6598 14.3549C18.7413 13.5977 18.6225 12.9833 18.3009 12.5086C17.9785 12.0348 17.4753 11.8303 16.7905 11.8927C16.3535 11.9354 15.6892 12.3584 14.7965 13.1607C14.4863 13.4467 14.1761 13.7325 13.8657 14.0182C13.8046 12.5234 13.1343 11.7547 11.8504 11.7161C9.92769 11.6537 8.62606 12.7567 7.943 15.0292C8.26427 14.882 8.61433 14.803 8.96971 14.7976C9.67568 14.7976 9.98709 15.2016 9.90393 16.0065C9.86236 16.4951 9.55095 17.2055 8.97056 18.1385C8.38848 19.0715 7.95234 19.538 7.66214 19.538C7.28795 19.538 6.94599 18.8194 6.63458 17.3813C6.52937 16.9583 6.34269 15.88 6.07371 14.1455C5.82425 12.5382 5.15986 11.7884 4.07969 11.8935C3.62318 11.9354 2.93758 12.3584 2.02457 13.1607C1.36018 13.7734 0.683908 14.3853 0 14.9979L0.65336 15.8537C1.27448 15.4102 1.63764 15.1885 1.74116 15.1885C2.21719 15.1885 2.66266 15.9482 3.07758 17.4667L4.19763 21.6446C4.75681 23.1639 5.44072 23.9236 6.24936 23.9236C7.55438 23.9236 9.15045 22.6753 11.0367 20.1819C12.3621 18.4473 13.22 16.9813 13.6145 15.7814C14.1381 15.3881 14.4613 15.1885 14.5784 15.1885C14.9518 15.1885 15.1393 15.4636 15.1393 16.0114C15.1393 16.1174 14.9357 16.8984 14.5318 18.3545C14.1262 19.8115 13.9132 20.8882 13.8937 21.5846C13.8725 22.2605 14.0337 22.8083 14.3756 23.2305C14.7176 23.6526 15.2114 23.8637 15.8555 23.8637C17.247 23.8637 18.6378 23.2518 20.0302 22.0281C20.1541 21.9172 20.2737 21.8055 20.3917 21.6914C20.502 22.1653 20.6903 22.5562 20.9644 22.8576C21.5626 23.5113 22.5749 23.8169 24.0004 23.7741C23.8103 23.3093 23.7357 22.4864 23.7781 21.3029C23.8403 19.9935 24.1796 18.7105 24.7751 17.5332C25.3776 16.3292 25.9401 15.7264 26.4603 15.7264C27.0627 15.7264 27.3444 16.1174 27.3029 16.8984C27.2816 17.4273 27.1798 18.0293 26.9974 18.7052C26.8154 19.3673 26.7126 20.0474 26.6911 20.7321C26.6486 21.8105 26.8862 22.58 27.4055 23.0457C27.9842 23.5729 28.9999 23.8169 30.4483 23.7741C30.2319 23.2896 30.1446 22.5915 30.1861 21.6823C30.2481 20.3946 30.6766 19.0641 31.4682 17.6909C32.2183 16.3818 32.8641 15.7264 33.4054 15.7264C33.906 15.7264 34.1453 16.1288 34.1241 16.9296C34.1037 17.4577 33.9731 18.1968 33.7346 19.1471C33.4971 20.0965 33.3664 20.9087 33.346 21.5846C33.3044 23.104 33.9578 23.8637 35.3086 23.8637C36.7002 23.8637 38.0909 23.2518 39.4834 22.0281L39.5504 21.9657C39.5979 22.0495 39.6463 22.1324 39.7006 22.2129C40.4269 23.3528 41.6318 23.9236 43.3144 23.9236C45.5774 23.9236 47.8099 23.2806 50.011 21.9936C50.2587 21.8524 50.4929 21.7103 50.7169 21.569C50.8561 21.854 51.0173 22.1217 51.2091 22.3689C52.061 23.4448 53.3066 23.9828 54.9477 23.9828C56.9196 23.9828 58.5708 23.2765 59.9005 21.8638C61.2293 20.4504 61.9352 18.7734 62.0184 16.8327C62.0803 15.3996 61.7596 14.2292 61.0528 13.3217C60.3044 12.3312 59.2038 11.8352 57.7512 11.8352ZM80.1369 21.592V10.177H81.5055V21.2988C81.5055 22.5882 82.1097 22.7837 82.6323 22.7837C82.8139 22.7837 82.9752 22.7648 82.9752 22.7648V23.9565C82.9752 23.9565 82.7333 23.9959 82.472 23.9959C81.626 23.9959 80.1369 23.7413 80.1369 21.592ZM84.4075 11.8385H85.8372V10.177H84.4075V11.8393V11.8385ZM84.4482 23.9179H85.8168V14.0863H84.4482V23.9171V23.9179ZM90.8528 23.9179L86.9683 14.0863H88.4176L91.2347 21.2988C91.4162 21.7875 91.5775 22.4716 91.5775 22.4716H91.6173C91.6173 22.4716 91.7786 21.8064 91.9797 21.2988L94.7781 14.0863H96.207L92.342 23.9171H90.8528V23.9179ZM96.6533 18.8596C96.6533 15.6344 98.9078 13.6995 101.645 13.6995C104.444 13.6995 105.872 15.7913 105.872 18.2346C105.872 18.4687 105.833 18.9187 105.833 18.9187H98.0627C98.1229 21.4401 99.8947 22.8075 101.988 22.8075C103.839 22.8075 105.068 21.6158 105.068 21.6158L105.692 22.6317C105.692 22.6317 104.222 24 101.947 24C98.9282 24 96.6533 21.8893 96.6533 18.8596ZM98.1229 17.824H104.483C104.403 15.7716 103.115 14.814 101.605 14.814C99.9142 14.814 98.4454 15.8496 98.1229 17.824ZM106.903 22.5734L107.648 21.6158C107.648 21.6158 108.774 22.8075 110.667 22.8075C111.754 22.8075 112.7 22.2802 112.7 21.2446C112.7 19.0945 107.245 19.6218 107.245 16.4163C107.245 14.6579 108.875 13.6995 110.707 13.6995C112.841 13.6995 113.827 14.7754 113.827 14.7754L113.203 15.7913C113.203 15.7913 112.337 14.892 110.667 14.892C109.64 14.892 108.654 15.3224 108.654 16.4163C108.654 18.5861 114.109 17.9997 114.109 21.2446C114.109 22.8469 112.68 24 110.647 24C108.191 24 106.903 22.5734 106.903 22.5734ZM116.267 20.3412V15.3174H114.938V14.2046H116.287V11.3695H117.636V14.2029H120.172V15.3174H117.635V20.204C117.635 22.5102 119.145 22.8034 119.91 22.8034C120.191 22.8034 120.373 22.7648 120.373 22.7648V23.9565C120.373 23.9565 120.151 23.9959 119.789 23.9959C118.622 23.9959 116.267 23.6247 116.267 20.3412ZM121.866 23.9179V14.0863H123.215V15.8258C123.215 16.2561 123.175 16.6077 123.175 16.6077H123.215C123.698 15.122 124.825 13.9886 126.415 13.9886C126.697 13.9886 126.958 14.0469 126.958 14.0469V15.3568C126.958 15.3568 126.717 15.3174 126.455 15.3174C125.026 15.3174 123.96 16.4122 123.517 17.8585C123.325 18.4797 123.23 19.1253 123.235 19.7737V23.9179H121.866ZM127.445 18.8596C127.445 15.6344 129.7 13.6995 132.437 13.6995C135.236 13.6995 136.664 15.7913 136.664 18.2346C136.664 18.4687 136.624 18.9187 136.624 18.9187H128.855C128.915 21.4401 130.686 22.8075 132.78 22.8075C134.631 22.8075 135.86 21.6158 135.86 21.6158L136.483 22.6317C136.483 22.6317 135.014 24 132.739 24C129.72 24 127.445 21.8893 127.445 18.8596ZM128.915 17.824H135.275C135.195 15.7716 133.907 14.814 132.397 14.814C130.706 14.814 129.237 15.8496 128.915 17.824ZM137.695 21.0877C137.695 17.7648 142.143 17.6876 143.895 17.6876H144.458V17.433C144.458 15.5367 143.392 14.892 141.942 14.892C140.271 14.892 139.084 15.8299 139.084 15.8299L138.44 14.814C138.44 14.814 139.768 13.6995 142.042 13.6995C144.478 13.6995 145.827 15.0094 145.827 17.4725V23.7659H144.518V22.6901C144.518 22.2022 144.558 21.8696 144.558 21.8696H144.518C144.518 21.8696 143.673 24 141.137 24C139.446 24 137.695 23.0424 137.695 21.0877ZM139.103 21.0097C139.103 21.9287 139.848 22.8658 141.358 22.8658C143.291 22.8658 144.458 20.912 144.458 19.2111V18.7816H143.874C142.284 18.7816 139.104 18.8399 139.104 21.0097H139.103ZM147.722 23.9171V14.0871H149.072V15.5531C149.072 15.9827 149.031 16.335 149.031 16.335H149.072C149.554 15.0062 151.165 13.8523 152.735 13.8523C154.606 13.8523 155.573 14.6933 155.874 16.3153H155.915C156.458 14.9864 157.928 13.8523 159.639 13.8523C162.095 13.8523 163 15.2402 163 17.6638V23.9187H161.631V17.9964C161.631 16.3933 161.289 15.0645 159.437 15.0645C157.888 15.0645 156.62 16.3933 156.237 17.8404C156.096 18.2699 156.056 18.7389 156.056 19.267V23.9187H154.687V17.9964C154.687 16.5107 154.466 15.0645 152.554 15.0645C150.903 15.0645 149.655 16.4524 149.232 17.957C149.133 18.387 149.086 18.8265 149.091 19.267V23.9187H147.722V23.9171ZM71.0602 19.4526C71.2588 19.4526 71.4553 19.4148 71.6388 19.3413C71.8222 19.2677 71.9889 19.16 72.1293 19.0241C72.2697 18.8882 72.381 18.7269 72.457 18.5494C72.533 18.3719 72.5721 18.1816 72.5721 17.9895C72.5721 17.7973 72.533 17.607 72.457 17.4295C72.381 17.252 72.2697 17.0907 72.1293 16.9548C71.9889 16.8189 71.8222 16.7112 71.6388 16.6377C71.4553 16.5641 71.2588 16.5263 71.0602 16.5263C70.6594 16.5264 70.2749 16.6806 69.9915 16.955C69.708 17.2293 69.5488 17.6015 69.5488 17.9895C69.5488 18.3775 69.708 18.7496 69.9915 19.024C70.2749 19.2983 70.6594 19.4525 71.0602 19.4526Z" fill="#7E5181"/>
</svg>
