<svg width="203" height="38" viewBox="0 0 203 38" fill="none" xmlns="http://www.w3.org/2000/svg">
<path d="M20.9728 13.017C21.9274 13.017 22.7534 12.666 23.4506 11.9651C24.0709 11.3443 24.3937 10.6971 24.419 10.0226C24.4443 9.56516 24.2766 9.11301 23.9158 8.66822C23.554 8.22344 23.1025 8 22.5603 8C21.6299 8 20.785 8.32463 20.0234 8.96966C19.2607 9.61786 18.8672 10.2935 18.8419 10.9933C18.7902 12.3424 19.5012 13.017 20.9728 13.017ZM72.7243 21.7492C72.6715 23.053 72.2981 24.3009 71.6008 25.4961C70.7749 26.9369 69.7801 27.6557 68.6198 27.6557C68.1029 27.6557 67.7021 27.3574 67.4183 26.7598C67.1609 26.2434 67.0438 25.6458 67.0702 24.966C67.12 23.5852 67.52 22.2397 68.2326 21.0557C69.0829 19.5622 70.1673 18.8149 71.4848 18.8149C71.8962 18.8149 72.2126 19.1216 72.4331 19.7319C72.6525 20.3432 72.7496 21.0156 72.7243 21.7492ZM53.3507 24.7109C53.3359 24.361 53.3359 24.1839 53.3507 24.1839C53.3749 23.1605 53.7884 22.0886 54.587 20.9693C55.3865 19.8499 56.1714 19.2903 56.9456 19.2903C57.5385 19.2903 57.8212 19.6549 57.7969 20.3822C57.7705 20.9218 57.3834 21.6238 56.6366 22.487C55.7278 23.4718 54.6031 24.233 53.3507 24.7109ZM71.7949 15.4885C68.9805 15.4885 66.6451 16.571 64.7864 18.7348C63.0543 20.6847 62.2547 22.8232 62.3845 25.1504C62.394 25.3222 62.4077 25.4877 62.4246 25.6531C62.3286 25.6974 62.2347 25.7427 62.1345 25.786C59.9393 26.7799 57.9119 27.2752 56.0543 27.2752C55.1239 27.2752 54.4266 26.938 53.9625 26.2624C56.4657 25.8292 58.5448 24.8152 60.1978 23.2195C61.7463 21.7597 62.4699 20.34 62.3666 18.9614C62.2115 16.7986 60.8687 15.7162 58.3391 15.7162C55.6028 15.7162 53.2272 16.8018 51.2135 18.9677C49.3802 20.9482 48.4498 23.034 48.4255 25.2284C48.4181 25.5973 48.4361 25.9514 48.4783 26.2929C48.0447 26.5912 47.7167 26.743 47.4972 26.743C47.0046 26.743 46.6955 26.6355 46.5669 26.4194C46.4382 26.2033 46.3865 25.8123 46.4118 25.2442C46.4118 25.0281 46.5732 24.1987 46.897 22.7547C47.2188 21.3097 47.3928 20.2083 47.4192 19.4526C47.4698 18.3459 47.2631 17.4953 46.7989 16.9009C46.2567 16.1715 45.3664 15.8606 44.127 15.9692C43.0953 16.0514 42.1006 16.4582 41.1449 17.1897C40.5774 17.6239 39.9972 18.2057 39.4043 18.9372C39.1965 19.1269 39.0035 19.305 38.8221 19.4663C38.8463 18.3554 38.6406 17.5006 38.2029 16.9051C37.6596 16.1726 36.7566 15.8617 35.4919 15.9692C34.0203 16.1051 32.6902 16.7154 31.5034 17.7989C30.9866 18.2605 30.534 18.8033 30.1479 19.4262C30.1986 19.1817 30.2239 18.9245 30.2239 18.6537C30.2239 17.8136 30.0171 17.0748 29.6036 16.4371C29.1912 15.8005 28.649 15.5096 27.9781 15.5644C27.591 15.5918 26.8557 16.1336 25.7713 17.1897C24.2734 18.6537 23.4612 19.4399 23.3314 19.5474L24.2597 20.6457C24.9833 20.0976 25.4222 19.8236 25.5783 19.8236C25.861 19.8236 25.977 20.066 25.9264 20.5519C25.9011 21.2559 25.7819 22.2351 25.5698 23.4925C25.4534 24.1615 25.3577 24.8339 25.2829 25.5088L25.2492 25.5393C24.3188 26.3425 23.6732 26.743 23.3124 26.743C22.4865 26.743 22.0856 26.1633 22.112 25.0007C22.4991 22.4627 22.861 20.3706 23.1975 18.7222C23.2987 17.7504 23.151 16.962 22.7512 16.3528C22.3504 15.7447 21.7249 15.4822 20.8736 15.5623C20.3303 15.6171 19.5044 16.1599 18.3947 17.1897C18.0091 17.5566 17.6234 17.9234 17.2375 18.29C17.1615 16.3718 16.3282 15.3853 14.7322 15.3357C12.3419 15.2556 10.7237 16.6711 9.87456 19.5875C10.2739 19.3986 10.7091 19.2973 11.1509 19.2903C12.0286 19.2903 12.4157 19.8088 12.3123 20.8417C12.2607 21.4688 11.8735 22.3805 11.152 23.5779C10.4284 24.7752 9.88616 25.3738 9.5254 25.3738C9.0602 25.3738 8.6351 24.4516 8.24796 22.6061C8.11716 22.0633 7.88509 20.6794 7.5507 18.4534C7.24057 16.3908 6.41461 15.4285 5.07177 15.5634C4.50426 15.6171 3.65193 16.1599 2.5169 17.1897C1.69094 17.9759 0.850219 18.7612 0 19.5474L0.812242 20.6457C1.5844 20.0765 2.03588 19.792 2.16457 19.792C2.75635 19.792 3.31015 20.7669 3.82598 22.7157L5.2184 28.0773C5.91355 30.0272 6.76377 31.0021 7.76905 31.0021C9.39143 31.0021 11.3756 29.4001 13.7206 26.2002C15.3683 23.9742 16.4347 22.0928 16.9253 20.5529C17.5761 20.0481 17.978 19.792 18.1236 19.792C18.5877 19.792 18.8208 20.145 18.8208 20.848C18.8208 20.984 18.5677 21.9863 18.0656 23.8551C17.5613 25.7248 17.2966 27.1066 17.2723 28.0004C17.2459 28.8678 17.4464 29.5708 17.8715 30.1125C18.2966 30.6543 18.9105 30.9252 19.7111 30.9252C21.4411 30.9252 23.17 30.14 24.9011 28.5695C25.0551 28.4272 25.2038 28.2839 25.3504 28.1374C25.4876 28.7455 25.7217 29.2472 26.0625 29.634C26.8061 30.473 28.0646 30.8651 29.8368 30.8103C29.6005 30.2137 29.5076 29.1576 29.5604 27.6389C29.6377 25.9585 30.0596 24.3119 30.7998 22.8011C31.5488 21.2559 32.2482 20.4823 32.8948 20.4823C33.6437 20.4823 33.994 20.984 33.9423 21.9863C33.9159 22.6651 33.7893 23.4377 33.5625 24.3051C33.3363 25.1548 33.2085 26.0275 33.1817 26.9063C33.129 28.2902 33.4243 29.2778 34.0699 29.8754C34.7893 30.5521 36.052 30.8651 37.8526 30.8103C37.5837 30.1884 37.475 29.2926 37.5267 28.1258C37.6037 26.4731 38.1364 24.7657 39.1206 23.0034C40.0531 21.3234 40.8558 20.4823 41.5288 20.4823C42.1512 20.4823 42.4487 20.9988 42.4223 22.0264C42.397 22.7041 42.2345 23.6527 41.9381 24.8721C41.6428 26.0906 41.4803 27.1329 41.455 28.0004C41.4033 29.9502 42.2156 30.9252 43.8949 30.9252C45.6249 30.9252 47.3538 30.14 49.0848 28.5695L49.1681 28.4894C49.2272 28.5969 49.2873 28.7034 49.3549 28.8067C50.2578 30.2696 51.7557 31.0021 53.8475 31.0021C56.6608 31.0021 59.4362 30.1768 62.1725 28.5253C62.4805 28.344 62.7716 28.1616 63.0501 27.9803C63.2231 28.3461 63.4235 28.6897 63.6619 29.0069C64.721 30.3876 66.2696 31.078 68.3097 31.078C70.7612 31.078 72.8139 30.1716 74.4669 28.3587C76.1188 26.5448 76.9964 24.3926 77.0998 21.902C77.1768 20.0628 76.7781 18.5609 75.8994 17.3963C74.969 16.1251 73.6008 15.4885 71.7949 15.4885ZM99.6243 28.0099V13.3606H101.326V27.6336C101.326 29.2883 102.077 29.5392 102.727 29.5392C102.952 29.5392 103.153 29.5149 103.153 29.5149V31.0443C103.153 31.0443 102.852 31.0949 102.527 31.0949C101.476 31.0949 99.6243 30.7681 99.6243 28.0099ZM104.933 15.4928H106.711V13.3606H104.933V15.4938V15.4928ZM104.984 30.9947H106.686V18.3775H104.984V30.9937V30.9947ZM112.946 30.9947L108.117 18.3775H109.919L113.421 27.6336C113.647 28.2607 113.847 29.1387 113.847 29.1387H113.897C113.897 29.1387 114.097 28.2849 114.347 27.6336L117.826 18.3775H119.602L114.797 30.9937H112.946V30.9947ZM120.157 24.5033C120.157 20.3643 122.96 17.8811 126.363 17.8811C129.842 17.8811 131.618 20.5656 131.618 23.7012C131.618 24.0016 131.569 24.5791 131.569 24.5791H121.909C121.984 27.8149 124.187 29.5697 126.789 29.5697C129.091 29.5697 130.618 28.0404 130.618 28.0404L131.394 29.3442C131.394 29.3442 129.567 31.1001 126.738 31.1001C122.985 31.1001 120.157 28.3914 120.157 24.5033ZM121.984 23.1742H129.891C129.791 20.5403 128.19 19.3113 126.313 19.3113C124.211 19.3113 122.385 20.6404 121.984 23.1742ZM132.899 29.2694L133.825 28.0404C133.825 28.0404 135.226 29.5697 137.578 29.5697C138.929 29.5697 140.106 28.8931 140.106 27.564C140.106 24.8047 133.325 25.4814 133.325 21.3677C133.325 19.1111 135.351 17.8811 137.629 17.8811C140.281 17.8811 141.508 19.2618 141.508 19.2618L140.731 20.5656C140.731 20.5656 139.655 19.4115 137.578 19.4115C136.302 19.4115 135.076 19.9638 135.076 21.3677C135.076 24.1523 141.858 23.3997 141.858 27.564C141.858 29.6203 140.081 31.1001 137.554 31.1001C134.501 31.1001 132.899 29.2694 132.899 29.2694ZM144.54 26.4046V19.9574H142.888V18.5293H144.566V14.8909H146.242V18.5272H149.395V19.9574H146.241V26.2286C146.241 29.1882 148.118 29.5645 149.069 29.5645C149.419 29.5645 149.645 29.5149 149.645 29.5149V31.0443C149.645 31.0443 149.369 31.0949 148.919 31.0949C147.468 31.0949 144.54 30.6185 144.54 26.4046ZM151.501 30.9947V18.3775H153.179V20.6098C153.179 21.1621 153.128 21.6132 153.128 21.6132H153.177C153.779 19.7066 155.18 18.2521 157.156 18.2521C157.507 18.2521 157.832 18.3269 157.832 18.3269V20.008C157.832 20.008 157.532 19.9574 157.206 19.9574C155.43 19.9574 154.104 21.3624 153.553 23.2185C153.314 24.0157 153.196 24.8442 153.203 25.6763V30.9947H151.501ZM158.437 24.5033C158.437 20.3643 161.24 17.8811 164.643 17.8811C168.122 17.8811 169.898 20.5656 169.898 23.7012C169.898 24.0016 169.847 24.5791 169.847 24.5791H160.189C160.264 27.8149 162.466 29.5697 165.069 29.5697C167.371 29.5697 168.898 28.0404 168.898 28.0404L169.672 29.3442C169.672 29.3442 167.846 31.1001 165.018 31.1001C161.265 31.1001 158.437 28.3914 158.437 24.5033ZM160.264 23.1742H168.171C168.071 20.5403 166.47 19.3113 164.593 19.3113C162.491 19.3113 160.665 20.6404 160.264 23.1742ZM171.179 27.3627C171.179 23.0983 176.709 22.9992 178.887 22.9992H179.587V22.6725C179.587 20.2388 178.261 19.4115 176.459 19.4115C174.381 19.4115 172.905 20.6151 172.905 20.6151L172.105 19.3113C172.105 19.3113 173.757 17.8811 176.584 17.8811C179.611 17.8811 181.288 19.5622 181.288 22.7231V30.7997H179.662V29.419C179.662 28.793 179.711 28.3661 179.711 28.3661H179.662C179.662 28.3661 178.611 31.1001 175.458 31.1001C173.356 31.1001 171.179 29.8712 171.179 27.3627ZM172.93 27.2626C172.93 28.442 173.856 29.6446 175.734 29.6446C178.135 29.6446 179.587 27.1372 179.587 24.9544V24.4031H178.861C176.884 24.4031 172.931 24.478 172.931 27.2626H172.93ZM183.645 30.9937V18.3786H185.322V20.2599C185.322 20.8112 185.272 21.2633 185.272 21.2633H185.322C185.922 19.558 187.925 18.0771 189.876 18.0771C192.203 18.0771 193.405 19.1564 193.779 21.238H193.83C194.505 19.5327 196.332 18.0771 198.46 18.0771C201.512 18.0771 202.638 19.8584 202.638 22.9687V30.9958H200.936V23.3955C200.936 21.3381 200.511 19.6328 198.208 19.6328C196.282 19.6328 194.706 21.3381 194.231 23.1953C194.055 23.7465 194.005 24.3483 194.005 25.026V30.9958H192.303V23.3955C192.303 21.4889 192.029 19.6328 189.651 19.6328C187.599 19.6328 186.048 21.414 185.522 23.3449C185.399 23.8967 185.34 24.4608 185.347 25.026V30.9958H183.645V30.9937ZM88.3404 25.2642C88.5872 25.2643 88.8316 25.2157 89.0597 25.1214C89.2877 25.027 89.4949 24.8887 89.6694 24.7144C89.844 24.54 89.9824 24.333 90.0769 24.1052C90.1713 23.8774 90.2199 23.6332 90.2199 23.3866C90.2199 23.14 90.1713 22.8958 90.0769 22.6679C89.9824 22.4401 89.844 22.2331 89.6694 22.0587C89.4949 21.8844 89.2877 21.7461 89.0597 21.6517C88.8316 21.5574 88.5872 21.5089 88.3404 21.5089C87.8421 21.509 87.3641 21.7068 87.0118 22.0589C86.6594 22.4111 86.4615 22.8886 86.4615 23.3866C86.4615 23.8845 86.6594 24.362 87.0118 24.7142C87.3641 25.0663 87.8421 25.2642 88.3404 25.2642Z" fill="#7E5181"/>
</svg>
