<svg width="85" height="24" viewBox="0 0 85 24" fill="none" xmlns="http://www.w3.org/2000/svg">
<g clip-path="url(#clip0_600_853)">
<g clip-path="url(#clip1_600_853)">
<path d="M19.8513 11.3171C19.7685 13.1339 18.4989 15.6227 16.0449 18.7811C13.5081 22.0799 11.3613 23.7299 9.60449 23.7299C8.51729 23.7299 7.59689 22.7255 6.84449 20.7155C6.34289 18.8735 5.84009 17.0327 5.33849 15.1907C4.78049 13.1819 4.18169 12.1763 3.54089 12.1763C3.40169 12.1763 2.91209 12.4703 2.07569 13.0559L1.19849 11.9243C2.11889 11.1155 3.02729 10.3055 3.92129 9.4943C5.15009 8.4335 6.07169 7.8743 6.68729 7.8179C8.13929 7.6787 9.03329 8.6723 9.36929 10.7975C9.73169 13.0919 9.98249 14.5187 10.1229 15.0767C10.5417 16.9799 11.0025 17.9303 11.5053 17.9303C11.8965 17.9303 12.4833 17.3123 13.2657 16.0787C14.0469 14.8439 14.4657 13.9043 14.5221 13.2599C14.6337 12.1943 14.2149 11.6603 13.2657 11.6603C12.8181 11.6603 12.3573 11.7623 11.8845 11.9663C12.8013 8.9615 14.5533 7.5011 17.1405 7.5839C19.0581 7.6403 19.9617 8.8847 19.8513 11.3171Z" fill="#7E5181"/>
<path d="M27.7245 2.30169C27.6969 2.99769 27.3477 3.66489 26.6757 4.30449C25.9221 5.02689 25.0281 5.38809 23.9949 5.38809C22.4025 5.38809 21.6333 4.69329 21.6897 3.30369C21.7161 2.58129 22.1433 1.88529 22.9665 1.21809C23.7909 0.552085 24.7053 0.217285 25.7121 0.217285C26.2989 0.217285 26.7873 0.447685 27.1797 0.906085C27.5697 1.36449 27.7521 1.83009 27.7245 2.30169ZM31.3701 17.2045C30.5877 18.6829 29.5125 20.0233 28.1433 21.2233C26.2713 22.8421 24.4005 23.6521 22.5285 23.6521C21.6609 23.6521 20.9985 23.3725 20.5377 22.8133C20.0769 22.2553 19.8597 21.5305 19.8885 20.6365C19.9149 19.7161 20.2017 18.2917 20.7465 16.3645C21.2913 14.4385 21.5649 13.4053 21.5649 13.2661C21.5649 12.5401 21.3129 12.1765 20.8101 12.1765C20.6433 12.1765 20.1669 12.4705 19.3845 13.0561L18.4209 11.9245C19.3149 11.1157 20.2089 10.3057 21.1029 9.49449C22.3041 8.43369 23.1981 7.87449 23.7861 7.81809C24.7077 7.73529 25.3845 8.00648 25.8177 8.63288C26.2497 9.26048 26.4105 10.0729 26.3001 11.0749C25.9365 12.7729 25.5453 14.9293 25.1265 17.5453C25.0977 18.7429 25.5309 19.3405 26.4249 19.3405C26.8161 19.3405 27.5145 18.9277 28.5201 18.1009C29.3589 17.4121 30.0429 16.7641 30.5745 16.1569L31.3701 17.2045Z" fill="#7E5181"/>
<path d="M57.5397 17.2032C56.7573 18.6828 55.6821 20.022 54.3129 21.222C52.4409 22.8408 50.5689 23.6508 48.6981 23.6508C46.8813 23.6508 46.0017 22.6464 46.0581 20.6352C46.0845 19.7412 46.2597 18.6684 46.5813 17.412C46.9017 16.1544 47.0769 15.1776 47.1045 14.4792C47.1333 13.4196 46.8105 12.888 46.1373 12.888C45.4089 12.888 44.5401 13.7544 43.5309 15.486C42.4665 17.3028 41.8905 19.062 41.8077 20.766C41.7477 21.9684 41.8677 22.89 42.1593 23.532C40.2105 23.5884 38.8449 23.2668 38.0661 22.5684C37.3677 21.954 37.0485 20.9352 37.1049 19.5096C37.1289 18.6156 37.2681 17.7216 37.5165 16.8276C37.7625 15.9336 37.8993 15.138 37.9269 14.4384C37.9869 13.4052 37.6053 12.888 36.7941 12.888C36.0945 12.888 35.3385 13.6848 34.5285 15.2772C33.7173 16.8684 33.2697 18.5316 33.1857 20.2632C33.1257 21.8292 33.2337 22.9176 33.4857 23.532C31.5681 23.5884 30.2061 23.184 29.4009 22.32C28.7313 21.5964 28.4265 20.496 28.4829 19.0188C28.5069 18.2952 28.6377 17.2848 28.8681 15.99C29.0985 14.694 29.2269 13.6848 29.2533 12.96C29.3133 12.4596 29.1813 12.2076 28.8765 12.2076C28.7085 12.2076 28.2333 12.4908 27.4509 13.056L26.4453 11.9244C26.5857 11.814 27.4641 11.0028 29.0853 9.49439C30.2589 8.40599 31.0545 7.84679 31.4733 7.81919C32.2005 7.76279 32.7861 8.06279 33.2337 8.71919C33.6801 9.37559 33.9045 10.1376 33.9045 11.0028C33.9045 11.2824 33.8805 11.5476 33.8205 11.7996C34.2393 11.1576 34.7277 10.5972 35.2869 10.122C36.5721 9.00599 38.0109 8.37599 39.6033 8.23679C40.9725 8.12519 41.9493 8.44559 42.5373 9.20039C43.0113 9.81479 43.2345 10.6956 43.2069 11.8404C43.4025 11.6736 43.6125 11.4912 43.8369 11.2956C44.4777 10.542 45.1065 9.94199 45.7209 9.49439C46.7541 8.73959 47.8317 8.32079 48.9477 8.23679C50.2893 8.12519 51.2529 8.44439 51.8397 9.19679C52.3413 9.80879 52.5657 10.686 52.5105 11.826C52.4817 12.606 52.2933 13.74 51.9441 15.2292C51.5937 16.7184 51.4209 17.5728 51.4209 17.796C51.3921 18.3816 51.4485 18.7848 51.5877 19.0068C51.7281 19.23 52.0617 19.3404 52.5933 19.3404C52.9845 19.3404 53.6817 18.9276 54.6885 18.0996C55.5261 17.412 56.2113 16.764 56.7429 16.1568L57.5397 17.2032Z" fill="#7E5181"/>
<path d="M63.7413 12.7847C63.7677 12.0347 63.4617 11.6591 62.8209 11.6591C61.9833 11.6591 61.1325 12.2363 60.2685 13.3895C59.4033 14.5427 58.9569 15.6479 58.9293 16.7039C58.9137 16.7039 58.9137 16.8851 58.9293 17.2463C60.2961 16.7459 61.4817 15.9827 62.4861 14.9531C63.2949 14.0639 63.7125 13.3403 63.7413 12.7847ZM73.2537 17.1599C72.4437 18.5003 70.8513 19.8383 68.4765 21.1775C65.5161 22.8791 62.5113 23.7287 59.4669 23.7287C57.2049 23.7287 55.5825 22.9751 54.6057 21.4667C53.9073 20.4335 53.5725 19.2047 53.6001 17.7803C53.6277 15.5183 54.6345 13.3679 56.6181 11.3279C58.7961 9.0935 61.3665 7.9751 64.3281 7.9751C67.0665 7.9751 68.5185 9.0911 68.6865 11.3195C68.7981 12.7403 68.0157 14.2043 66.3393 15.7091C64.5513 17.3543 62.3013 18.3983 59.5929 18.8435C60.0945 19.5407 60.8481 19.8887 61.8549 19.8887C63.8661 19.8887 66.0597 19.3775 68.4345 18.3539C70.1385 17.6351 71.4801 16.8887 72.4581 16.1147L73.2537 17.1599Z" fill="#7E5181"/>
<path d="M79.8933 14.1936C79.9209 13.4376 79.8165 12.7452 79.5789 12.1152C79.3413 11.4864 78.9981 11.1696 78.5529 11.1696C77.1273 11.1696 75.9537 11.94 75.0333 13.4796C74.2497 14.7396 73.8297 16.0836 73.7757 17.5092C73.7469 18.21 73.8729 18.8268 74.1525 19.3572C74.4585 19.974 74.8917 20.2812 75.4521 20.2812C76.7085 20.2812 77.7849 19.5408 78.6789 18.0564C79.4325 16.824 79.8369 15.5364 79.8933 14.1936ZM84.6285 14.352C84.5169 16.9188 83.5677 19.1364 81.7797 21.0048C79.9917 22.8732 77.7693 23.808 75.1161 23.808C72.9093 23.808 71.2329 23.0964 70.0881 21.6732C69.2505 20.6136 68.7885 19.2888 68.7057 17.7C68.5641 15.3 69.4305 13.0968 71.3037 11.088C73.3149 8.85721 75.8421 7.74121 78.8877 7.74121C80.8425 7.74121 82.3233 8.39761 83.3301 9.70801C84.2805 10.908 84.7125 12.456 84.6285 14.352Z" fill="#7E5181"/>
</g>
</g>
<defs>
<clipPath id="clip0_600_853">
<rect width="84" height="24" fill="white" transform="translate(0.663452)"/>
</clipPath>
<clipPath id="clip1_600_853">
<rect width="84" height="24" fill="white" transform="translate(0.987305)"/>
</clipPath>
</defs>
</svg>
