<svg width="96" height="38" viewBox="0 0 96 38" fill="none" xmlns="http://www.w3.org/2000/svg">
<path fill-rule="evenodd" clip-rule="evenodd" d="M85.3377 3L92.3148 14.2233H88.4385L81.1367 7.85763L75.6297 14.2233H73.3578L77.7105 4.87031L81.1366 7.85692L85.3377 3ZM89.7086 31.5453C89.1529 31.5088 88.5889 31.3521 88.0163 31.0741C87.3563 30.7542 86.8292 30.3198 86.4348 29.7714L84.3872 31.6913C85.0242 32.4536 85.8433 33.0286 86.8442 33.4171C87.4267 33.6433 88.017 33.8015 88.6148 33.896L89.7086 31.5453ZM86.4008 24.9485C86.7875 25.2993 87.2233 25.5808 87.709 25.794C88.1943 26.0077 88.6796 26.1907 89.1651 26.3426C89.6655 26.5106 90.1436 26.6707 90.5987 26.8227C91.0103 26.9609 91.37 27.1217 91.6827 27.3032L92.8689 24.7543C92.8577 24.7496 92.8465 24.7448 92.8353 24.7399C92.8236 24.7349 92.812 24.7297 92.8003 24.7246C92.7608 24.7073 92.7212 24.6899 92.6803 24.6742C92.1264 24.4608 91.5918 24.2706 91.0764 24.1026C90.6212 23.9655 90.2039 23.8283 89.8249 23.6912C89.4456 23.5542 89.1233 23.3941 88.8579 23.2112C88.5923 23.0282 88.3838 22.8075 88.2324 22.5484C88.0804 22.2892 88.0048 21.9769 88.0048 21.6113C88.0048 21.2151 88.0919 20.8762 88.2666 20.5939C88.4406 20.3122 88.6648 20.0836 88.9376 19.9083C89.2106 19.7333 89.514 19.6035 89.8478 19.5198C90.1812 19.4362 90.515 19.3941 90.8488 19.3941C91.4097 19.3941 91.967 19.5275 92.5212 19.7939C93.0744 20.061 93.2443 20.1828 94.4973 21.2514L95.4484 19.2107L95.6719 18.7308C95.0498 18.1522 94.3185 17.7178 93.4767 17.4281C92.6349 17.1389 91.8045 16.9942 90.9854 16.9942C90.2573 16.9942 89.5406 17.0894 88.8354 17.2795C88.1297 17.4704 87.5004 17.7596 86.9467 18.1481C86.3932 18.5371 85.9457 19.0284 85.6045 19.6225C85.2632 20.217 85.0924 20.9254 85.0924 21.7483C85.0924 22.5104 85.2137 23.1465 85.4563 23.6571C85.699 24.1677 86.0141 24.598 86.4008 24.9485ZM4.06509 17.4055L2.89495 19.9198H10.3977V17.4055H4.06509ZM2.86672 19.9807L0 26.1407V33.5887H2.86672V26.777H9.96554V24.3543H2.86672V19.9807ZM80.7471 20.7882C80.4432 20.3922 80.0149 20.061 79.4616 19.7939C78.9074 19.5275 78.3501 19.3941 77.789 19.3941C77.4554 19.3941 77.1213 19.4362 76.788 19.5198C76.4542 19.6035 76.151 19.7333 75.8777 19.9083C75.6052 20.0836 75.381 20.3122 75.2068 20.5939C75.0321 20.8762 74.9452 21.2151 74.9452 21.6113C74.9452 21.9769 75.0208 22.2892 75.1728 22.5484C75.3243 22.8075 75.5327 23.0282 75.7983 23.2112C76.0637 23.3941 76.386 23.5542 76.7653 23.6912C77.1443 23.8283 77.5616 23.9655 78.0168 24.1026C78.5322 24.2706 79.0668 24.4608 79.6207 24.6742C80.1742 24.8877 80.6822 25.1697 81.145 25.52C81.6076 25.8707 81.9869 26.3123 82.2829 26.8455C82.5784 27.3792 82.7263 28.0422 82.7263 28.8343C82.7263 29.7029 82.5671 30.4611 82.2486 31.1085C81.9299 31.7564 81.5054 32.2937 80.9744 32.7199C80.4432 33.1469 79.8217 33.4668 79.1089 33.6801C78.3958 33.8936 77.6449 34.0001 76.8562 34.0001C75.8098 34.0001 74.7861 33.8058 73.7847 33.4171C72.7837 33.0286 71.9646 32.4536 71.3276 31.6913L73.3752 29.7714C73.7696 30.3198 74.2967 30.7542 74.9567 31.0741C75.6162 31.3944 76.2647 31.5542 76.9017 31.5542C77.2352 31.5542 77.5767 31.5124 77.9258 31.4287C78.2745 31.3451 78.5889 31.204 78.8698 31.0056C79.1505 30.808 79.3779 30.5599 79.5525 30.2628C79.7265 29.9657 79.8141 29.5967 79.8141 29.1543C79.8141 28.7276 79.7153 28.3735 79.5183 28.0913C79.3209 27.8095 79.0555 27.5655 78.722 27.36C78.3881 27.1542 77.994 26.9753 77.5389 26.8227C77.0838 26.6707 76.6059 26.5106 76.1053 26.3426C75.62 26.1907 75.1345 26.0077 74.6492 25.794C74.1637 25.5808 73.7279 25.2993 73.3412 24.9485C72.9543 24.598 72.6394 24.1677 72.3968 23.6571C72.1541 23.1465 72.0328 22.5104 72.0328 21.7483C72.0328 20.9254 72.2037 20.217 72.5446 19.6225C72.8861 19.0284 73.3331 18.5371 73.8871 18.1481C74.4405 17.7596 75.0701 17.4704 75.7756 17.2795C76.481 17.0894 77.1977 16.9942 77.9258 16.9942C78.7449 16.9942 79.575 17.1389 80.4171 17.4281C81.2587 17.7178 81.9904 18.1522 82.6126 18.7311L80.7471 20.7882ZM58.655 17.4055H69.3257V19.9198H61.5217V24.034H68.916V26.457H61.5217V31.0287H69.7354V33.5887H58.655V17.4055ZM40.9081 17.4055H44.7076L52.1934 29.52H52.2388V17.4055H55.1055V33.5887H51.4652L43.8203 21.0853H43.7748V33.5887H40.9081V17.4055ZM29.2819 17.4055H32.1488V31.0287H38.9971V33.5887H29.2819V17.4055ZM25.8694 27.6456C25.8694 28.6211 25.7023 29.501 25.3688 30.2856C25.0349 31.0705 24.58 31.7372 24.0036 32.2858C23.4271 32.8344 22.7444 33.2572 21.956 33.5543C21.167 33.8517 20.3099 34.0001 19.3848 34.0001C18.4594 34.0001 17.6025 33.8517 16.8141 33.5543C16.0251 33.2572 15.3386 32.8344 14.7547 32.2858C14.1709 31.7372 13.7157 31.0705 13.3896 30.2856C13.0634 29.501 12.9007 28.6211 12.9007 27.6456V17.4055H15.7674V27.5314C15.7674 28.004 15.8277 28.4725 15.9495 28.937C16.0706 29.4022 16.2714 29.8171 16.5523 30.1827C16.8327 30.5486 17.2044 30.8458 17.6671 31.0741C18.1297 31.3028 18.7026 31.4172 19.3848 31.4172C20.0675 31.4172 20.6399 31.3028 21.1027 31.0741C21.5652 30.8458 21.9368 30.5486 22.2178 30.1827C22.4982 29.8171 22.699 29.4022 22.8205 28.937C22.9419 28.4725 23.0026 28.004 23.0026 27.5314V17.4055H25.8694V27.6456Z" fill="#7E5181"/>
</svg>
