<svg width="90" height="18" viewBox="0 0 90 18" fill="none" xmlns="http://www.w3.org/2000/svg">
<g clip-path="url(#clip0_600_850)">
<path fill-rule="evenodd" clip-rule="evenodd" d="M3.4511 14.1804C3.15424 13.6998 2.92712 12.9053 2.92712 11.8706C2.92712 9.36189 3.63863 6.74953 4.80063 4.99571C5.62241 3.75456 6.60439 2.94314 7.76073 2.94314C9.18942 2.94314 10.0847 3.83654 10.7812 4.57633C11.1291 4.94602 11.613 5.55573 12.1756 6.35691L11.0233 8.12732C10.7711 8.51474 10.4826 8.97021 10.1736 9.45815L10.1736 9.45816L10.1735 9.45831C9.43544 10.6237 8.58002 11.9744 7.8201 13.026C6.47434 14.8872 5.77602 15.0767 5.01267 15.0767C4.42083 15.0767 3.84032 14.81 3.4511 14.1804ZM0.730546 15.409C0.240989 14.4054 0 13.1604 0 11.766C0 8.86806 0.795389 5.84763 2.30796 3.51517L2.30795 3.51517C2.8112 2.73945 3.39807 2.0512 4.05221 1.4939C5.14245 0.565074 6.41956 0 7.80784 0C9.09423 0 10.3731 0.380736 11.7085 1.47111C12.4124 2.04558 13.1386 2.79907 13.9195 3.78768C14.554 2.93053 15.2384 2.1199 15.9748 1.4777C17.0642 0.527752 18.2394 0 19.4221 0C21.4077 0 23.2992 1.15068 24.7467 3.3088C26.3309 5.67235 27.0999 8.64943 27.0999 11.7217C27.0999 13.5481 26.7399 14.89 26.1273 15.9503C26.0533 16.0784 25.9706 16.2066 25.8786 16.3327C25.2348 17.2157 24.1394 18 22.4416 18C21.2353 18 20.1666 17.738 18.9848 16.6231C18.0763 15.7674 17.0142 14.2473 16.1972 12.8808L13.7667 8.82094C13.6974 8.70516 13.6284 8.59106 13.5599 8.47869L13.3502 8.85015L12.4963 10.3627C10.7812 13.4039 10.3467 14.0965 9.48911 15.2397C7.98597 17.2414 6.70241 18 5.01267 18C3.00816 18 1.74062 17.132 0.955597 15.824C0.875493 15.6908 0.800483 15.5523 0.730546 15.409ZM15.2494 5.62125C15.7004 6.29045 16.1718 7.03443 16.6684 7.86158L17.3648 9.02263C19.0461 11.8235 20.0026 13.2644 20.5624 13.9439C21.2824 14.8165 21.7866 15.0767 22.4416 15.0767C24.103 15.0767 24.5177 13.5499 24.5177 11.8027C24.5177 9.31288 23.9372 6.54974 22.6583 4.57539C21.7508 3.17497 20.5747 2.31926 19.2807 2.31926C17.8813 2.31926 16.7551 3.37476 15.4894 5.25675C15.4097 5.37522 15.3297 5.49675 15.2494 5.62125ZM32.7902 0.568848H36.1763L41.934 10.984L47.6916 0.568848H51.0044V17.683H48.2417V4.56629L43.1931 13.649H40.6015L35.5528 4.56629V17.683H32.7902V0.568848ZM59.9157 17.9885C58.6362 17.9885 57.5116 17.7053 56.5418 17.1389C55.572 16.5725 54.8161 15.7881 54.2742 14.7857C53.7322 13.7833 53.4612 12.6342 53.4613 11.3384C53.4613 10.0264 53.7262 8.8651 54.2559 7.85449C54.7856 6.84408 55.5211 6.05355 56.4624 5.48288C57.4037 4.91258 58.4856 4.62735 59.708 4.6272C60.9222 4.6272 61.9674 4.91445 62.8435 5.48897C63.7194 6.06364 64.3938 6.86844 64.8666 7.90335C65.3392 8.93842 65.5755 10.1527 65.5756 11.5462V12.304H56.1996C56.3707 13.3474 56.7925 14.1685 57.4648 14.7673C58.1371 15.3663 58.9867 15.6658 60.0135 15.6657C60.8366 15.6657 61.5456 15.5435 62.1406 15.299C62.7354 15.0545 63.2937 14.6838 63.8154 14.1867L65.2823 15.9836C63.8233 17.3203 62.0345 17.9886 59.9157 17.9885ZM61.9328 7.83606C61.3541 7.24531 60.5962 6.94988 59.6591 6.94977C58.7462 6.94977 57.9822 7.25134 57.367 7.85449C56.7516 8.45757 56.3624 9.26845 56.1996 10.2871H62.923C62.8414 9.24394 62.5114 8.42692 61.9328 7.83606ZM66.3826 7.19429H68.9254V13.2453C68.9252 16.391 70.3636 17.9639 73.2405 17.9639C73.6394 17.965 74.0378 17.9364 74.4324 17.8783C74.7773 17.8286 75.1183 17.755 75.4531 17.6582V15.4212C75.1598 15.4702 74.8908 15.5089 74.6463 15.5373C74.4017 15.5658 74.1042 15.5801 73.754 15.5801C72.9633 15.5802 72.405 15.3765 72.0792 14.9689C71.7532 14.5614 71.5902 13.8809 71.5902 12.9275V7.19429H75.4531V4.93274H71.5902V1.19214H68.9254V4.93274H66.3826V7.19429ZM89.3403 17.6828H86.7243V15.8981C86.2598 16.5664 85.6689 17.0819 84.9518 17.4444C84.2346 17.8069 83.4196 17.9883 82.5069 17.9885C81.3823 17.9885 80.386 17.7012 79.5181 17.1266C78.6501 16.552 77.9676 15.7616 77.4705 14.7551C76.9733 13.7486 76.7247 12.5975 76.7248 11.3018C76.7248 9.99785 76.9774 8.84464 77.4827 7.84215C77.9879 6.83986 78.6867 6.05345 79.5792 5.48288C80.4715 4.91258 81.4963 4.62735 82.6535 4.6272C83.5256 4.6272 84.3079 4.79632 85.0006 5.13457C85.684 5.46514 86.2759 5.95832 86.7243 6.57087V4.93287H89.3403V17.6828ZM86.6754 9.39475C86.39 8.66942 85.9398 8.09688 85.3246 7.67713C84.7092 7.25748 83.9981 7.04765 83.1915 7.04765C82.0504 7.04765 81.1417 7.43067 80.4655 8.19669C79.7889 8.96277 79.4507 9.99778 79.4509 11.3017C79.4509 12.6139 79.7768 13.653 80.4288 14.419C81.0807 15.1851 81.9649 15.5681 83.0815 15.568C83.9045 15.568 84.6379 15.3561 85.2818 14.9323C85.9255 14.5087 86.39 13.9383 86.6754 13.2209L86.6754 9.39475Z" fill="#7E5181"/>
</g>
<defs>
<clipPath id="clip0_600_850">
<rect width="89.3403" height="18" fill="white"/>
</clipPath>
</defs>
</svg>
