<svg width="92" height="37" viewBox="0 0 92 37" fill="none" xmlns="http://www.w3.org/2000/svg">
<g clip-path="url(#clip0_665_30965)">
<path d="M0 11.0002V16.5693H5.62201V11.0002H0ZM3.64068 14.6078H1.97962V12.9626H3.64068V14.6078ZM11.8834 18.3538H14.4225C15.379 18.3538 15.839 18.7636 15.839 19.5157C15.839 20.4978 15.1046 20.7304 14.2575 20.7304H11.8834V18.3538ZM7.83884 23.7665H15.2872C17.6058 23.7665 19.8858 22.4436 19.8858 19.8902C19.8858 18.0149 18.7822 17.1046 17.6058 16.7104C18.5814 16.194 19.2225 15.496 19.2225 14.2109C19.2228 12.9059 18.489 11.0141 15.0303 11.0141H7.83884V23.7665ZM11.8834 14.0494H14.018C14.8457 14.0494 15.397 14.2814 15.397 14.9249C15.397 15.7465 14.8636 15.9791 14.018 15.9791H11.8834V14.0494ZM23.7631 18.0861C23.9298 17.0863 24.5538 16.5326 25.6409 16.5326C26.5775 16.5326 27.2394 17.2286 27.2394 18.0875H23.7634L23.7631 18.0861ZM30.735 19.9255C30.735 16.3185 29.0973 14.2637 25.3087 14.2637C22.2901 14.2637 20.2678 16.4613 20.2678 19.1586C20.2678 22.2475 22.5677 23.9982 25.6219 23.9982C27.7906 23.9982 29.7973 23.0694 30.5317 21.0679H27.1299C26.8352 21.5147 26.1907 21.7288 25.6008 21.7288C24.4631 21.7288 23.8374 20.9775 23.7449 19.9247L30.7345 19.9242L30.735 19.9255ZM35.3001 11.6736H31.6569V14.4968H30.0385V16.6751H31.6569V21.106C31.6569 23.6414 33.368 23.8734 34.9136 23.8734C35.6855 23.8734 36.5143 23.7668 37.2499 23.7668V21.0858C36.9731 21.1237 36.6981 21.1405 36.421 21.1405C35.5023 21.1405 35.299 20.7654 35.299 19.9087V16.6745H37.2493V14.4968H35.2981V11.6736H35.3001ZM37.8543 23.7665H41.4958V18.8724C41.4958 17.3893 42.3235 17.0847 42.9501 17.0847C44.0155 17.0847 44.1447 17.8359 44.1447 18.907V23.7665H47.7882V17.4064C47.7882 15.2812 46.2224 14.2634 44.511 14.2634C42.9677 14.2634 42.1568 14.7826 41.5311 15.4958H41.4949V11.0141H37.8543V23.7665ZM51.7543 18.0861C51.9192 17.0863 52.5461 16.5326 53.6321 16.5326C54.5707 16.5326 55.2305 17.2286 55.2305 18.0875H51.7546L51.7543 18.0861ZM58.7262 19.9255C58.7262 16.3185 57.0907 14.2637 53.2998 14.2637C50.2821 14.2637 48.2586 16.4613 48.2586 19.1586C48.2586 22.2475 50.5588 23.9982 53.6144 23.9982C55.7818 23.9982 57.7898 22.899 58.5228 20.8983H55.1222C54.8292 21.3449 54.1836 21.7282 53.5937 21.7282C52.4548 21.7282 51.8282 20.977 51.7375 19.9247H58.727L58.7262 19.9255ZM67.8893 17.1929C67.7994 14.8183 65.3152 14.2642 63.2548 14.2642C61.3415 14.2642 58.7472 14.8719 58.7472 17.2117C58.7472 18.8009 59.8687 19.6588 62.6467 20.1227C64.3391 20.4083 64.6519 20.5691 64.6519 21.106C64.6519 21.6418 63.8982 21.8205 63.4209 21.8205C62.9787 21.8205 62.6302 21.7114 62.4454 21.5517C62.1686 21.3209 62.0233 21.2231 62.0053 20.8999H58.5296C58.5831 23.2945 61.0497 24.0002 63.2915 24.0002C65.6096 24.0002 68.1501 23.3022 68.1501 20.7301C68.1501 19.211 67.0824 18.5151 65.8682 18.1394C64.6537 17.7473 63.2762 17.6754 62.6683 17.4241C62.4673 17.3357 62.2463 17.2114 62.2463 16.9422C62.2463 16.3359 62.8339 16.229 63.3498 16.229C63.6439 16.229 63.9395 16.3183 64.1576 16.4969C64.3988 16.6571 64.5629 16.8891 64.5828 17.1929L67.8907 17.1918L67.8893 17.1929ZM78.6302 11.0141H74.9895V15.5143H74.9519C74.4007 14.7277 73.4246 14.2642 72.3398 14.2642C69.1388 14.2642 68.2744 16.9085 68.2744 19.0865C68.2744 21.4092 69.58 23.9999 72.2849 23.9999C74.0697 23.9999 74.62 23.3381 75.0808 22.7474H75.1186V23.7665H78.6313V11.0149L78.6302 11.0141ZM75.1183 19.1229C75.1183 20.2288 74.824 21.4264 73.5199 21.4264C72.2129 21.4264 71.9174 20.2288 71.9174 19.1229C71.9174 18.0334 72.2118 16.8361 73.5187 16.8361C74.822 16.8361 75.1172 18.0334 75.1172 19.1229M85.5045 20.4619C85.4488 21.4264 84.8065 21.9075 83.9771 21.9075C83.3173 21.9075 82.8366 21.4802 82.8366 21.0529C82.8366 20.426 83.2595 20.2288 84.0687 20.0518C84.5676 19.9424 85.0628 19.8187 85.5042 19.6043V20.4619H85.5045ZM89.0007 17.8898C89.0007 16.1042 89.0348 14.2634 84.4732 14.2634C82.2111 14.2634 79.6735 14.6921 79.5631 17.2995H82.9458C82.9657 16.9079 83.1884 16.3531 84.3082 16.3531C84.899 16.3531 85.5045 16.5864 85.5045 17.212C85.5045 17.8019 85.0068 17.9439 84.5119 18.0339C82.6528 18.3731 79.1234 18.2648 79.1234 21.1963C79.1234 23.1423 80.6473 23.9996 82.4887 23.9996C83.6677 23.9996 84.7875 23.7483 85.5605 22.8915H85.5975C85.5788 23.142 85.6331 23.5179 85.7264 23.7671H89.4421C89.0365 23.1777 89.0021 22.3916 89.0021 21.6943V17.8911L89.0007 17.8898ZM90.0639 15.9377H89.7872V14.844H89.3642V14.612H90.4743V14.844H90.0648V15.9377H90.0639ZM90.8973 15.9377H90.6376V14.612H91.0708L91.3177 15.527L91.566 14.6122H92V15.9379H91.7366V14.8807L91.4397 15.9377H91.1914L90.8984 14.881L90.8989 15.9388L90.8973 15.9377Z" fill="#7E5181"/>
</g>
<defs>
<clipPath id="clip0_665_30965">
<rect width="92" height="13" fill="white" transform="translate(0 11)"/>
</clipPath>
</defs>
</svg>
