<svg width="174" height="38" viewBox="0 0 174 38" fill="none" xmlns="http://www.w3.org/2000/svg">
<g clip-path="url(#clip0_665_30733)">
<path fill-rule="evenodd" clip-rule="evenodd" d="M30.0668 37.5H0V7.5H30.0668V37.5ZM20.2899 12.4974L1.83873 24.9007V31.1637L22.7001 12.4207C21.9002 12.3959 21.0897 12.4171 20.2899 12.4974ZM23.0846 12.4431L1.83873 33.3302V35.3029H15.6919L25.78 12.7879C24.8879 12.6049 23.9862 12.4892 23.0846 12.4431ZM12.8711 14.8031L1.83873 19.7793V23.4392L19.7645 12.5482C16.674 13.0476 12.8711 14.8031 12.8711 14.8031ZM27.782 13.3203C27.2235 13.1373 26.6662 12.9838 26.1054 12.8575L18.3281 35.3029H27.782V13.3203ZM102.851 22.4066C102.673 22.4226 102.494 22.4286 102.315 22.4246C101.526 22.4246 101.065 22.156 100.572 21.8682C100.2 21.651 99.8089 21.4229 99.2433 21.2909C96.5783 21.2909 95.4146 20.0471 95.4146 17.9848C95.4034 17.5083 95.4947 17.035 95.6824 16.5967C95.8701 16.1584 96.1498 15.7654 96.5027 15.4441C96.8555 15.1229 97.2733 14.8808 97.7278 14.7343C98.1823 14.5878 98.6631 14.5402 99.1376 14.5947C101.466 14.5947 102.7 15.8014 102.7 17.6972C102.782 18.3042 102.684 18.922 102.417 19.4736C102.15 20.0253 101.726 20.4864 101.199 20.7996C101.419 20.8323 101.607 20.9232 101.81 21.0212C102.12 21.1712 102.465 21.3377 103.013 21.3377H103.363L102.851 22.4066ZM99.08 15.8949C98.1372 15.8949 97.7409 16.6834 97.7409 17.9201C97.7409 19.5738 98.2417 19.9812 99.1028 19.9812C99.9891 19.9812 100.372 19.5642 100.372 17.9009C100.372 16.2844 99.9771 15.8949 99.08 15.8949ZM70.3161 18.1058C70.3161 20.0471 71.6204 21.291 73.9707 21.291C76.8687 21.291 77.6013 19.5546 77.6013 17.6972C77.6013 16.276 76.7991 14.5947 74.0404 14.5947C73.5562 14.5429 73.0664 14.5964 72.6049 14.7516C72.1434 14.9068 71.7211 15.16 71.3672 15.4937C71.0132 15.8275 70.7359 16.2338 70.5545 16.6847C70.373 17.1357 70.2917 17.6205 70.3161 18.1058ZM72.6436 17.9201C72.6436 16.6834 73.04 15.8949 73.9827 15.8949C74.8787 15.8949 75.275 16.2844 75.275 17.9009C75.275 19.5642 74.8907 19.9812 74.0056 19.9812C73.1445 19.9812 72.6436 19.5738 72.6436 17.9201ZM66.3616 21.2913C65.335 21.3038 64.317 21.1047 63.3711 20.7066L64.1037 19.4052C64.8204 19.7322 65.5965 19.9096 66.3844 19.9264C67.1998 19.9264 67.5253 19.6844 67.5253 19.3321C67.5253 19.0445 67.2695 18.9139 66.711 18.8024L65.7563 18.6071C64.5817 18.3662 63.7782 17.845 63.7782 16.7305C63.7782 15.4483 65.1041 14.5939 66.92 14.5939C67.9232 14.5669 68.9178 14.784 69.818 15.2266L68.8176 16.4058C68.2502 16.1192 67.6255 15.9636 66.9897 15.9504C66.4552 15.9504 66.1634 16.1541 66.1634 16.4154C66.1634 16.6287 66.3495 16.842 66.9548 16.963L67.7811 17.1308C68.6542 17.3069 69.9117 17.6221 69.9117 18.9223C69.9117 20.4741 68.4681 21.2913 66.3616 21.2913ZM58.6914 20.3995C58.3893 20.6779 58.0328 20.8909 57.6442 21.0252C57.2557 21.1594 56.8435 21.212 56.4335 21.1796H53.4887V14.7063H56.3531C57.0204 14.6722 57.6853 14.8096 58.2843 15.1053C58.7439 15.384 59.1134 15.7888 59.3487 16.2713C59.5841 16.7539 59.6752 17.2938 59.6113 17.8267C59.6519 18.2963 59.5907 18.7691 59.432 19.213C59.2733 19.6569 59.0207 20.0615 58.6914 20.3995ZM56.2126 16.0711H55.5724V19.7955H56.2714C56.8527 19.7955 57.3187 19.5642 57.3187 17.7716C57.3187 16.2665 56.8407 16.0711 56.2126 16.0711ZM50.2283 19.9356L50.6463 21.1794H52.9041L50.4493 14.7061H48.2839L45.6778 21.1794H47.8648L48.308 19.9356H50.2283ZM49.3084 16.5635C49.3285 16.8713 49.3792 17.1764 49.4597 17.4742L49.8092 18.6534H48.7619L49.0874 17.5953C49.1968 17.26 49.2709 16.9142 49.3084 16.5635ZM43.1139 21.1798L42.9157 18.5699C42.8809 18.1612 42.8581 17.8269 42.8581 17.2697H42.846C42.793 17.6833 42.6993 18.0907 42.5662 18.486L41.5778 21.1798H39.8087L38.9476 18.5615C38.8088 18.1397 38.719 17.7035 38.6798 17.2613H38.6678C38.6678 17.8365 38.6558 18.1888 38.633 18.5974L38.4696 21.1798H36.3751L37.1666 14.7065H39.7151L40.5065 17.2697C40.6347 17.6689 40.7244 18.0794 40.7743 18.4956H40.7864C40.8431 18.0462 40.9482 17.6043 41.0998 17.1774L41.9273 14.7065H44.3941L45.1387 21.1798H43.1139ZM41.1212 31.2641H36.2056V24.7879H40.9684L40.8155 26.1538H38.3106V27.2409H40.3568V28.5603H38.3106V29.8796H41.1212V31.2641ZM48.1778 31.2641H46.014L44.5675 29.0155C44.3323 28.6501 44.1206 28.2443 43.9324 27.7983C44.0108 28.2134 44.05 28.7616 44.05 29.4429V31.2641H42.0508V24.7879H44.0736L45.5671 27.0086C45.8101 27.3678 46.0375 27.7798 46.2492 28.2443C46.2021 27.9408 46.1786 27.4577 46.1786 26.7949V24.7879H48.1778V31.2641ZM54.7347 26.163L54.9816 24.7879H48.7959V26.163H50.701V31.2641H52.8296V26.163H54.7347ZM60.3336 31.2641H55.4179V24.7879H60.1807L60.0278 26.1538H57.5229V27.2409H59.5692V28.5603H57.5229V29.8796H60.3336V31.2641ZM65.1908 31.2641H67.6251C67.2018 30.5022 66.7902 29.796 66.3904 29.1456C66.1473 28.7492 65.8729 28.5169 65.5672 28.4488C66.0768 28.3806 66.4805 28.201 66.7784 27.9099C67.1077 27.5939 67.2723 27.1696 67.2723 26.6369C67.2723 25.4042 66.21 24.7879 64.0854 24.7879H61.263V31.2641H63.368V28.6996C63.6503 28.6996 63.862 28.7709 64.0031 28.9133C64.0893 28.9939 64.1991 29.1735 64.3324 29.4522L65.1908 31.2641ZM63.368 26.1538H63.956C64.6068 26.1538 64.9321 26.3582 64.9321 26.767C64.9321 27.2378 64.6107 27.4732 63.9678 27.4732H63.368V26.1538ZM73.6426 24.7879L73.3957 26.163H71.4906V31.2641H69.362V26.163H67.4569V24.7879H73.6426ZM78.0066 31.2641H80.288L77.8066 24.7879H75.6193L72.985 31.2641H75.1959L75.6428 30.019H77.5832L78.0066 31.2641ZM76.807 27.5568L77.1598 28.7368H76.1014L76.4307 27.6776C76.5483 27.2935 76.6228 26.9497 76.6542 26.6462C76.6698 26.9621 76.7208 27.2656 76.807 27.5568ZM82.788 31.2641H80.6359V24.7879H82.788V31.2641ZM88.1703 31.2641H90.3342V24.7879H88.335V26.7949C88.335 27.4577 88.3585 27.9408 88.4055 28.2443C88.1938 27.7798 87.9665 27.3678 87.7234 27.0086L86.2299 24.7879H84.2072V31.2641H86.2064V29.4429C86.2064 28.7616 86.1672 28.2134 86.0888 27.7983C86.277 28.2443 86.4887 28.6501 86.7239 29.0155L88.1703 31.2641ZM100.395 31.2641H98.3493L98.1493 28.6532C98.1101 28.139 98.0905 27.7054 98.0905 27.3524H98.0788C97.9847 27.916 97.8906 28.3218 97.7965 28.5695L96.7969 31.2641H95.0094L94.1392 28.6439C94.0059 28.2474 93.9157 27.8138 93.8687 27.3431H93.8569C93.8569 27.8634 93.8452 28.3094 93.8217 28.681L93.657 31.2641H91.5402L92.3399 24.7879H94.9153L95.715 27.3524C95.8404 27.7488 95.9306 28.1576 95.9855 28.5788H95.9973C96.06 28.139 96.1658 27.6992 96.3148 27.2594L97.1497 24.7879H99.6429L100.395 31.2641ZM101.617 31.2641H106.532V29.8796H103.722V28.5603H105.768V27.2409H103.722V26.1538H106.227L106.379 24.7879H101.617V31.2641ZM113.589 31.2641H111.425L109.978 29.0155C109.743 28.6501 109.532 28.2443 109.343 27.7983C109.422 28.2134 109.461 28.7616 109.461 29.4429V31.2641H107.462V24.7879H109.485L110.978 27.0086C111.221 27.3678 111.448 27.7798 111.66 28.2443C111.613 27.9408 111.59 27.4577 111.59 26.7949V24.7879H113.589V31.2641ZM120.146 26.163L120.393 24.7879H114.207V26.163H116.112V31.2641H118.241V26.163H120.146ZM62.7775 14.7057H60.6481V21.1791H62.7775V14.7057ZM82.548 21.1798L81.1153 18.9329C80.8758 18.5433 80.6658 18.1363 80.4871 17.7154C80.5712 18.2593 80.6102 18.8092 80.6036 19.3595V21.1798H78.6256V14.7065H80.6265L82.1049 16.9258C82.3628 17.3188 82.5886 17.7319 82.7798 18.1612C82.7266 17.6802 82.7037 17.1963 82.7114 16.7125V14.7065H84.6894V21.1798L82.548 21.1798ZM88.2943 20.7066C89.2402 21.1047 90.2582 21.3038 91.2848 21.2914C93.3913 21.2914 94.8349 20.4741 94.8349 18.9223C94.8349 17.6221 93.5775 17.3069 92.7043 17.1308L91.8793 16.963C91.274 16.842 91.0878 16.6287 91.0878 16.4154C91.0878 16.1542 91.3784 15.9504 91.9129 15.9504C92.5487 15.9636 93.1734 16.1192 93.7408 16.4058L94.7412 15.2267C93.8411 14.7839 92.8464 14.5667 91.8432 14.5939C90.0273 14.5939 88.7014 15.4484 88.7014 16.7306C88.7014 17.845 89.5049 18.3663 90.6795 18.6071L91.6343 18.8024C92.1915 18.9139 92.4485 19.0445 92.4485 19.3321C92.4485 19.6844 92.1231 19.9265 91.3076 19.9265C90.5197 19.9097 89.7436 19.7323 89.0269 19.4052L88.2943 20.7066ZM108.242 21.1212C108.738 20.94 109.184 20.6417 109.539 20.2516C109.713 19.9238 109.782 19.5508 109.738 19.1827V14.7057H107.655V18.9598C107.655 19.5925 107.445 19.9268 106.699 19.9268C105.966 19.9268 105.733 19.5266 105.733 18.9322V14.7057H103.639V19.1096C103.639 19.9724 103.721 20.1401 104.034 20.484C104.397 20.7933 104.82 21.0246 105.277 21.1636C105.734 21.3025 106.214 21.3461 106.688 21.2917C107.212 21.3608 107.745 21.3023 108.242 21.1212ZM115.018 21.1794L114.6 19.9356H112.679L112.237 21.1794H110.049L112.656 14.7061H114.82L117.276 21.1794H115.018ZM113.832 17.4742C113.751 17.1765 113.7 16.8714 113.68 16.5635C113.643 16.9143 113.569 17.2601 113.458 17.5953L113.133 18.6534H114.181L113.832 17.4742ZM120.899 19.3691L121.748 21.1798H124.156C123.89 20.6969 123.204 19.4986 122.935 19.0624C122.757 18.7393 122.468 18.4918 122.121 18.3661C122.351 18.358 122.577 18.3046 122.787 18.2091C122.996 18.1136 123.184 17.9778 123.341 17.8095C123.498 17.6412 123.62 17.4437 123.7 17.2283C123.78 17.0129 123.817 16.7839 123.808 16.5543C123.808 15.477 123.041 14.7065 120.654 14.7065H117.861V21.1798H119.943V18.6166C120.399 18.6166 120.585 18.7005 120.899 19.3691ZM119.943 16.0714H120.526C121.178 16.0714 121.493 16.22 121.493 16.6837C121.493 17.1211 121.248 17.3907 120.539 17.3907H119.943V16.0714ZM124.896 14.7065H129.609L129.459 16.0714H126.979V17.1582H129.004V18.4764H126.979V19.7957H129.761V21.1798H124.896V14.7065ZM136.868 15.9505C137.46 15.9344 138.04 16.1106 138.522 16.4526L139.673 15.4208C138.835 14.8688 137.849 14.5838 136.845 14.6036C136.212 14.5812 135.58 14.6952 134.995 14.9379C134.373 15.1862 133.843 15.6205 133.479 16.1811C133.114 16.7418 132.933 17.4013 132.959 18.0691C132.94 18.4552 132.997 18.8414 133.129 19.2049C133.261 19.5685 133.464 19.9022 133.727 20.1866C134.108 20.5789 134.572 20.8817 135.085 21.0728C135.599 21.2639 136.148 21.3386 136.694 21.2914C137.705 21.3101 138.706 21.0904 139.616 20.6503V17.4927H136.311L136.544 18.8109H137.532V19.8331C137.287 19.9035 137.031 19.9351 136.776 19.9265C135.81 19.9265 135.333 19.2938 135.333 18.0032C135.333 16.5545 135.775 15.9505 136.868 15.9505ZM145.07 21.1794L144.651 19.9356H142.731L142.288 21.1794H140.101L142.708 14.7061H144.872L147.328 21.1794H145.07ZM143.884 17.4742C143.803 17.1763 143.752 16.8713 143.73 16.5635C143.695 16.9144 143.621 17.2604 143.51 17.5953L143.185 18.6534H144.232L143.884 17.4742ZM150.95 19.3691L151.799 21.1798H154.208C153.94 20.6969 153.253 19.4986 152.986 19.0624C152.808 18.7393 152.518 18.4918 152.171 18.3661C152.401 18.3581 152.628 18.3048 152.837 18.2093C153.047 18.1138 153.235 17.978 153.392 17.8097C153.549 17.6414 153.671 17.4438 153.751 17.2284C153.831 17.013 153.867 16.7839 153.859 16.5543C153.859 15.477 153.091 14.7065 150.706 14.7065H147.913V21.1798H149.995V18.6166C150.449 18.6166 150.636 18.7005 150.95 19.3691ZM149.995 16.0714H150.578C151.23 16.0714 151.543 16.22 151.543 16.6837C151.543 17.1211 151.299 17.3907 150.588 17.3907H149.995V16.0714ZM160.149 20.3995C159.847 20.6778 159.49 20.8908 159.102 21.0251C158.713 21.1593 158.301 21.2119 157.891 21.1796H154.947V14.7063H157.809C158.477 14.6721 159.142 14.8095 159.742 15.1053C160.201 15.384 160.571 15.7888 160.806 16.2714C161.041 16.7539 161.133 17.2939 161.069 17.8267C161.109 18.2963 161.048 18.7691 160.889 19.213C160.731 19.6569 160.478 20.0616 160.149 20.3995ZM157.67 16.0712H157.03V19.7955H157.729C158.31 19.7955 158.775 19.5643 158.775 17.7716C158.775 16.2665 158.298 16.0712 157.67 16.0712ZM166.806 14.7065H162.092V21.1798H166.957V19.7957H164.176V18.4764H166.199V17.1582H164.176V16.0714H166.655L166.806 14.7065ZM171.86 21.1798L170.428 18.9329C170.188 18.5436 169.978 18.1366 169.799 17.7154C169.883 18.2593 169.922 18.8092 169.915 19.3595V21.1798H167.936V14.7065H169.938L171.417 16.9258C171.675 17.319 171.901 17.7321 172.093 18.1612C172.039 17.6803 172.015 17.1964 172.022 16.7125V14.7065H174V21.1798L171.86 21.1798Z" fill="#7E5181"/>
</g>
<defs>
<clipPath id="clip0_665_30733">
<rect width="174" height="30" fill="white" transform="translate(0 7.5)"/>
</clipPath>
</defs>
</svg>
