<svg width="85" height="24" viewBox="0 0 85 24" fill="none" xmlns="http://www.w3.org/2000/svg">
<g clip-path="url(#clip0_600_15319)">
<path fill-rule="evenodd" clip-rule="evenodd" d="M67.1412 0L72.5678 8.689H69.5529L63.8737 3.76075L59.5905 8.689H57.8235L61.2089 1.44798L63.8736 3.76019L67.1412 0ZM70.5407 22.0996C70.1086 22.0713 69.6699 21.95 69.2245 21.7348C68.7112 21.4871 68.3012 21.1508 67.9945 20.7263L66.4019 22.2126C66.8973 22.8028 67.5344 23.2479 68.3129 23.5487C68.7659 23.7238 69.2251 23.8463 69.69 23.9195L70.5407 22.0996ZM67.968 16.9924C68.2688 17.264 68.6077 17.4819 68.9855 17.647C69.363 17.8124 69.7404 17.9541 70.1181 18.0717C70.5072 18.2018 70.8791 18.3257 71.2331 18.4434C71.5532 18.5504 71.8329 18.6749 72.0762 18.8154L72.9987 16.842C72.9809 16.8345 72.9631 16.8268 72.9454 16.8191C72.9147 16.8056 72.8839 16.7922 72.8521 16.7801C72.4212 16.6148 72.0054 16.4676 71.6046 16.3375C71.2506 16.2314 70.926 16.1251 70.6312 16.019C70.3362 15.9129 70.0855 15.789 69.8791 15.6473C69.6725 15.5057 69.5104 15.3349 69.3926 15.1342C69.2744 14.9336 69.2156 14.6918 69.2156 14.4087C69.2156 14.102 69.2833 13.8396 69.4192 13.6211C69.5545 13.403 69.7289 13.226 69.9411 13.0903C70.1534 12.9548 70.3894 12.8543 70.649 12.7895C70.9083 12.7248 71.1679 12.6922 71.4276 12.6922C71.8638 12.6922 72.2973 12.7955 72.7283 13.0017C73.1586 13.2085 73.2908 13.3028 74.2653 14.1301L75.0051 12.5502L75.1789 12.1787C74.695 11.7307 74.1262 11.3944 73.4715 11.1701C72.8167 10.9463 72.1709 10.8342 71.5338 10.8342C70.9675 10.8342 70.4101 10.9079 69.8616 11.0551C69.3127 11.2029 68.8232 11.4268 68.3926 11.7276C67.9621 12.0287 67.614 12.4091 67.3486 12.869C67.0832 13.3293 66.9504 13.8778 66.9504 14.5148C66.9504 15.1048 67.0447 15.5973 67.2334 15.9926C67.4222 16.3879 67.6673 16.7211 67.968 16.9924ZM3.92913 11.1527L3.01902 13.0992H8.8545V11.1527H3.92913ZM2.99706 13.1463L0.767395 17.9154V23.6816H2.99706V18.408H8.51837V16.5323H2.99706V13.1463ZM63.5707 13.7715C63.3343 13.465 63.0012 13.2085 62.5709 13.0017C62.1398 12.7955 61.7064 12.6922 61.2699 12.6922C61.0105 12.6922 60.7507 12.7248 60.4914 12.7895C60.2318 12.8543 59.996 12.9548 59.7834 13.0903C59.5714 13.226 59.397 13.403 59.2615 13.6211C59.1257 13.8396 59.0581 14.102 59.0581 14.4087C59.0581 14.6918 59.1169 14.9336 59.2351 15.1342C59.3529 15.3349 59.515 15.5057 59.7216 15.6473C59.928 15.789 60.1787 15.9129 60.4737 16.019C60.7685 16.1251 61.0931 16.2314 61.4471 16.3375C61.848 16.4676 62.2638 16.6148 62.6946 16.7801C63.1251 16.9453 63.5202 17.1636 63.8802 17.4348C64.24 17.7063 64.5349 18.0482 64.7652 18.461C64.995 18.8742 65.11 19.3875 65.11 20.0008C65.11 20.6732 64.9863 21.2602 64.7386 21.7614C64.4907 22.263 64.1605 22.679 63.7475 23.009C63.3343 23.3395 62.851 23.5872 62.2965 23.7523C61.7419 23.9176 61.1579 24 60.5444 24C59.7306 24 58.9344 23.8497 58.1555 23.5487C57.3769 23.2479 56.7399 22.8028 56.2444 22.2126L57.837 20.7263C58.1437 21.1508 58.5537 21.4871 59.0671 21.7348C59.58 21.9827 60.0844 22.1065 60.5798 22.1065C60.8392 22.1065 61.1048 22.0741 61.3764 22.0093C61.6475 21.9446 61.8921 21.8353 62.1106 21.6818C62.3289 21.5288 62.5057 21.3367 62.6416 21.1067C62.7769 20.8766 62.845 20.591 62.845 20.2485C62.845 19.9181 62.7682 19.644 62.615 19.4255C62.4614 19.2074 62.255 19.0185 61.9956 18.8593C61.736 18.7 61.4294 18.5616 61.0754 18.4434C60.7214 18.3257 60.3498 18.2018 59.9604 18.0717C59.583 17.9541 59.2053 17.8124 58.8279 17.647C58.4503 17.4819 58.1113 17.264 57.8106 16.9924C57.5096 16.7211 57.2647 16.3879 57.076 15.9926C56.8873 15.5973 56.7929 15.1048 56.7929 14.5148C56.7929 13.8778 56.9258 13.3293 57.191 12.869C57.4566 12.4091 57.8043 12.0287 58.2351 11.7276C58.6656 11.4268 59.1553 11.2029 59.7039 11.0551C60.2526 10.9079 60.81 10.8342 61.3764 10.8342C62.0135 10.8342 62.6591 10.9463 63.314 11.1701C63.9686 11.3944 64.5377 11.7307 65.0216 12.1789L63.5707 13.7715ZM46.3879 11.1527H54.6874V13.0992H48.6176V16.2844H54.3687V18.1603H48.6176V21.6996H55.006V23.6816H46.3879V11.1527ZM32.5848 11.1527H35.54L41.3622 20.5316H41.3976V11.1527H43.6273V23.6816H40.7959L34.8499 14.0015H34.8145V23.6816H32.5848V11.1527ZM23.5422 11.1527H25.7721V21.6996H31.0985V23.6816H23.5422V11.1527ZM20.888 19.0804C20.888 19.8357 20.7581 20.5169 20.4986 21.1244C20.239 21.732 19.8852 22.2481 19.4369 22.6728C18.9885 23.0976 18.4575 23.4249 17.8443 23.655C17.2306 23.8852 16.564 24 15.8445 24C15.1247 24 14.4583 23.8852 13.845 23.655C13.2314 23.4249 12.6974 23.0976 12.2433 22.6728C11.7892 22.2481 11.4352 21.732 11.1815 21.1244C10.9278 20.5169 10.8013 19.8357 10.8013 19.0804V11.1527H13.0309V18.992C13.0309 19.3579 13.0778 19.7207 13.1726 20.0803C13.2667 20.4404 13.4229 20.7616 13.6414 21.0447C13.8595 21.328 14.1486 21.558 14.5085 21.7348C14.8683 21.9118 15.3138 22.0004 15.8445 22.0004C16.3754 22.0004 16.8206 21.9118 17.1806 21.7348C17.5403 21.558 17.8294 21.328 18.0479 21.0447C18.266 20.7616 18.4222 20.4404 18.5167 20.0803C18.6111 19.7207 18.6583 19.3579 18.6583 18.992V11.1527H20.888V19.0804Z" fill="#7E5181"/>
</g>
<defs>
<clipPath id="clip0_600_15319">
<rect width="84" height="24" fill="white" transform="translate(0.443542)"/>
</clipPath>
</defs>
</svg>
