<svg width="203" height="38" viewBox="0 0 203 38" fill="none" xmlns="http://www.w3.org/2000/svg">
<path d="M20.9728 12.017C21.9274 12.017 22.7534 11.666 23.4506 10.9651C24.0709 10.3443 24.3937 9.69714 24.419 9.02259C24.4443 8.56516 24.2766 8.11301 23.9158 7.66822C23.554 7.22344 23.1025 7 22.5603 7C21.6299 7 20.785 7.32463 20.0234 7.96966C19.2607 8.61786 18.8672 9.29347 18.8419 9.99331C18.7902 11.3424 19.5012 12.017 20.9728 12.017ZM72.7243 20.7492C72.6715 22.053 72.2981 23.3009 71.6008 24.4961C70.7749 25.9369 69.7801 26.6557 68.6198 26.6557C68.1029 26.6557 67.7021 26.3574 67.4183 25.7598C67.1609 25.2434 67.0438 24.6458 67.0702 23.966C67.12 22.5852 67.52 21.2397 68.2326 20.0557C69.0829 18.5622 70.1673 17.8149 71.4848 17.8149C71.8962 17.8149 72.2126 18.1216 72.4331 18.7319C72.6525 19.3432 72.7496 20.0156 72.7243 20.7492ZM53.3507 23.7109C53.3359 23.361 53.3359 23.1839 53.3507 23.1839C53.3749 22.1605 53.7884 21.0886 54.587 19.9693C55.3865 18.8499 56.1714 18.2903 56.9456 18.2903C57.5385 18.2903 57.8212 18.6549 57.7969 19.3822C57.7705 19.9218 57.3834 20.6238 56.6366 21.487C55.7278 22.4718 54.6031 23.233 53.3507 23.7109ZM71.7949 14.4885C68.9805 14.4885 66.6451 15.571 64.7864 17.7348C63.0543 19.6847 62.2547 21.8232 62.3845 24.1504C62.394 24.3222 62.4077 24.4877 62.4246 24.6531C62.3286 24.6974 62.2347 24.7427 62.1345 24.786C59.9393 25.7799 57.9119 26.2752 56.0543 26.2752C55.1239 26.2752 54.4266 25.938 53.9625 25.2624C56.4657 24.8292 58.5448 23.8152 60.1978 22.2195C61.7463 20.7597 62.4699 19.34 62.3666 17.9614C62.2115 15.7986 60.8687 14.7162 58.3391 14.7162C55.6028 14.7162 53.2272 15.8018 51.2135 17.9677C49.3802 19.9482 48.4498 22.034 48.4255 24.2284C48.4181 24.5973 48.4361 24.9514 48.4783 25.2929C48.0447 25.5912 47.7167 25.743 47.4972 25.743C47.0046 25.743 46.6955 25.6355 46.5669 25.4194C46.4382 25.2033 46.3865 24.8123 46.4118 24.2442C46.4118 24.0281 46.5732 23.1987 46.897 21.7547C47.2188 20.3097 47.3928 19.2083 47.4192 18.4526C47.4698 17.3459 47.2631 16.4953 46.7989 15.9009C46.2567 15.1715 45.3664 14.8606 44.127 14.9692C43.0953 15.0514 42.1006 15.4582 41.1449 16.1897C40.5774 16.6239 39.9972 17.2057 39.4043 17.9372C39.1965 18.1269 39.0035 18.305 38.8221 18.4663C38.8463 17.3554 38.6406 16.5006 38.2029 15.9051C37.6596 15.1726 36.7566 14.8617 35.4919 14.9692C34.0203 15.1051 32.6902 15.7154 31.5034 16.7989C30.9866 17.2605 30.534 17.8033 30.1479 18.4262C30.1986 18.1817 30.2239 17.9245 30.2239 17.6537C30.2239 16.8136 30.0171 16.0748 29.6036 15.4371C29.1912 14.8005 28.649 14.5096 27.9781 14.5644C27.591 14.5918 26.8557 15.1336 25.7713 16.1897C24.2734 17.6537 23.4612 18.4399 23.3314 18.5474L24.2597 19.6457C24.9833 19.0976 25.4222 18.8236 25.5783 18.8236C25.861 18.8236 25.977 19.066 25.9264 19.5519C25.9011 20.2559 25.7819 21.2351 25.5698 22.4925C25.4534 23.1615 25.3577 23.8339 25.2829 24.5088L25.2492 24.5393C24.3188 25.3425 23.6732 25.743 23.3124 25.743C22.4865 25.743 22.0856 25.1633 22.112 24.0007C22.4991 21.4627 22.861 19.3706 23.1975 17.7222C23.2987 16.7504 23.151 15.962 22.7512 15.3528C22.3504 14.7447 21.7249 14.4822 20.8736 14.5623C20.3303 14.6171 19.5044 15.1599 18.3947 16.1897C18.0091 16.5566 17.6234 16.9234 17.2375 17.29C17.1615 15.3718 16.3282 14.3853 14.7322 14.3357C12.3419 14.2556 10.7237 15.6711 9.87456 18.5875C10.2739 18.3986 10.7091 18.2973 11.1509 18.2903C12.0286 18.2903 12.4157 18.8088 12.3123 19.8417C12.2607 20.4688 11.8735 21.3805 11.152 22.5779C10.4284 23.7752 9.88616 24.3738 9.5254 24.3738C9.0602 24.3738 8.6351 23.4516 8.24796 21.6061C8.11716 21.0633 7.88509 19.6794 7.5507 17.4534C7.24057 15.3908 6.41461 14.4285 5.07177 14.5634C4.50426 14.6171 3.65193 15.1599 2.5169 16.1897C1.69094 16.9759 0.850219 17.7612 0 18.5474L0.812242 19.6457C1.5844 19.0765 2.03588 18.792 2.16457 18.792C2.75635 18.792 3.31015 19.7669 3.82598 21.7157L5.2184 27.0773C5.91355 29.0272 6.76377 30.0021 7.76905 30.0021C9.39143 30.0021 11.3756 28.4001 13.7206 25.2002C15.3683 22.9742 16.4347 21.0928 16.9253 19.5529C17.5761 19.0481 17.978 18.792 18.1236 18.792C18.5877 18.792 18.8208 19.145 18.8208 19.848C18.8208 19.984 18.5677 20.9863 18.0656 22.8551C17.5613 24.7248 17.2966 26.1066 17.2723 27.0004C17.2459 27.8678 17.4464 28.5708 17.8715 29.1125C18.2966 29.6543 18.9105 29.9252 19.7111 29.9252C21.4411 29.9252 23.17 29.14 24.9011 27.5695C25.0551 27.4272 25.2038 27.2839 25.3504 27.1374C25.4876 27.7455 25.7217 28.2472 26.0625 28.634C26.8061 29.473 28.0646 29.8651 29.8368 29.8103C29.6005 29.2137 29.5076 28.1576 29.5604 26.6389C29.6377 24.9585 30.0596 23.3119 30.7998 21.8011C31.5488 20.2559 32.2482 19.4823 32.8948 19.4823C33.6437 19.4823 33.994 19.984 33.9423 20.9863C33.9159 21.6651 33.7893 22.4377 33.5625 23.3051C33.3363 24.1548 33.2085 25.0275 33.1817 25.9063C33.129 27.2902 33.4243 28.2778 34.0699 28.8754C34.7893 29.5521 36.052 29.8651 37.8526 29.8103C37.5837 29.1884 37.475 28.2926 37.5267 27.1258C37.6037 25.4731 38.1364 23.7657 39.1206 22.0034C40.0531 20.3234 40.8558 19.4823 41.5288 19.4823C42.1512 19.4823 42.4487 19.9988 42.4223 21.0264C42.397 21.7041 42.2345 22.6527 41.9381 23.8721C41.6428 25.0906 41.4803 26.1329 41.455 27.0004C41.4033 28.9502 42.2156 29.9252 43.8949 29.9252C45.6249 29.9252 47.3538 29.14 49.0848 27.5695L49.1681 27.4894C49.2272 27.5969 49.2873 27.7034 49.3549 27.8067C50.2578 29.2696 51.7557 30.0021 53.8475 30.0021C56.6608 30.0021 59.4362 29.1768 62.1725 27.5253C62.4805 27.344 62.7716 27.1616 63.0501 26.9803C63.2231 27.3461 63.4235 27.6897 63.6619 28.0069C64.721 29.3876 66.2696 30.078 68.3097 30.078C70.7612 30.078 72.8139 29.1716 74.4669 27.3587C76.1188 25.5448 76.9964 23.3926 77.0998 20.902C77.1768 19.0628 76.7781 17.5609 75.8994 16.3963C74.969 15.1251 73.6008 14.4885 71.7949 14.4885ZM99.6243 27.0099V12.3606H101.326V26.6336C101.326 28.2883 102.077 28.5392 102.727 28.5392C102.952 28.5392 103.153 28.5149 103.153 28.5149V30.0443C103.153 30.0443 102.852 30.0949 102.527 30.0949C101.476 30.0949 99.6243 29.7681 99.6243 27.0099ZM104.933 14.4928H106.711V12.3606H104.933V14.4938V14.4928ZM104.984 29.9947H106.686V17.3775H104.984V29.9937V29.9947ZM112.946 29.9947L108.117 17.3775H109.919L113.421 26.6336C113.647 27.2607 113.847 28.1387 113.847 28.1387H113.897C113.897 28.1387 114.097 27.2849 114.347 26.6336L117.826 17.3775H119.602L114.797 29.9937H112.946V29.9947ZM120.157 23.5033C120.157 19.3643 122.96 16.8811 126.363 16.8811C129.842 16.8811 131.618 19.5656 131.618 22.7012C131.618 23.0016 131.569 23.5791 131.569 23.5791H121.909C121.984 26.8149 124.187 28.5697 126.789 28.5697C129.091 28.5697 130.618 27.0404 130.618 27.0404L131.394 28.3442C131.394 28.3442 129.567 30.1001 126.738 30.1001C122.985 30.1001 120.157 27.3914 120.157 23.5033ZM121.984 22.1742H129.891C129.791 19.5403 128.19 18.3113 126.313 18.3113C124.211 18.3113 122.385 19.6404 121.984 22.1742ZM132.899 28.2694L133.825 27.0404C133.825 27.0404 135.226 28.5697 137.578 28.5697C138.929 28.5697 140.106 27.8931 140.106 26.564C140.106 23.8047 133.325 24.4814 133.325 20.3677C133.325 18.1111 135.351 16.8811 137.629 16.8811C140.281 16.8811 141.508 18.2618 141.508 18.2618L140.731 19.5656C140.731 19.5656 139.655 18.4115 137.578 18.4115C136.302 18.4115 135.076 18.9638 135.076 20.3677C135.076 23.1523 141.858 22.3997 141.858 26.564C141.858 28.6203 140.081 30.1001 137.554 30.1001C134.501 30.1001 132.899 28.2694 132.899 28.2694ZM144.54 25.4046V18.9574H142.888V17.5293H144.566V13.8909H146.242V17.5272H149.395V18.9574H146.241V25.2286C146.241 28.1882 148.118 28.5645 149.069 28.5645C149.419 28.5645 149.645 28.5149 149.645 28.5149V30.0443C149.645 30.0443 149.369 30.0949 148.919 30.0949C147.468 30.0949 144.54 29.6185 144.54 25.4046ZM151.501 29.9947V17.3775H153.179V19.6098C153.179 20.1621 153.128 20.6132 153.128 20.6132H153.177C153.779 18.7066 155.18 17.2521 157.156 17.2521C157.507 17.2521 157.832 17.3269 157.832 17.3269V19.008C157.832 19.008 157.532 18.9574 157.206 18.9574C155.43 18.9574 154.104 20.3624 153.553 22.2185C153.314 23.0157 153.196 23.8442 153.203 24.6763V29.9947H151.501ZM158.437 23.5033C158.437 19.3643 161.24 16.8811 164.643 16.8811C168.122 16.8811 169.898 19.5656 169.898 22.7012C169.898 23.0016 169.847 23.5791 169.847 23.5791H160.189C160.264 26.8149 162.466 28.5697 165.069 28.5697C167.371 28.5697 168.898 27.0404 168.898 27.0404L169.672 28.3442C169.672 28.3442 167.846 30.1001 165.018 30.1001C161.265 30.1001 158.437 27.3914 158.437 23.5033ZM160.264 22.1742H168.171C168.071 19.5403 166.47 18.3113 164.593 18.3113C162.491 18.3113 160.665 19.6404 160.264 22.1742ZM171.179 26.3627C171.179 22.0983 176.709 21.9992 178.887 21.9992H179.587V21.6725C179.587 19.2388 178.261 18.4115 176.459 18.4115C174.381 18.4115 172.905 19.6151 172.905 19.6151L172.105 18.3113C172.105 18.3113 173.757 16.8811 176.584 16.8811C179.611 16.8811 181.288 18.5622 181.288 21.7231V29.7997H179.662V28.419C179.662 27.793 179.711 27.3661 179.711 27.3661H179.662C179.662 27.3661 178.611 30.1001 175.458 30.1001C173.356 30.1001 171.179 28.8712 171.179 26.3627ZM172.93 26.2626C172.93 27.442 173.856 28.6446 175.734 28.6446C178.135 28.6446 179.587 26.1372 179.587 23.9544V23.4031H178.861C176.884 23.4031 172.931 23.478 172.931 26.2626H172.93ZM183.645 29.9937V17.3786H185.322V19.2599C185.322 19.8112 185.272 20.2633 185.272 20.2633H185.322C185.922 18.558 187.925 17.0771 189.876 17.0771C192.203 17.0771 193.405 18.1564 193.779 20.238H193.83C194.505 18.5327 196.332 17.0771 198.46 17.0771C201.512 17.0771 202.638 18.8584 202.638 21.9687V29.9958H200.936V22.3955C200.936 20.3381 200.511 18.6328 198.208 18.6328C196.282 18.6328 194.706 20.3381 194.231 22.1953C194.055 22.7465 194.005 23.3483 194.005 24.026V29.9958H192.303V22.3955C192.303 20.4889 192.029 18.6328 189.651 18.6328C187.599 18.6328 186.048 20.414 185.522 22.3449C185.399 22.8967 185.34 23.4608 185.347 24.026V29.9958H183.645V29.9937ZM88.3404 24.2642C88.5872 24.2643 88.8316 24.2157 89.0597 24.1214C89.2877 24.027 89.4949 23.8887 89.6694 23.7144C89.844 23.54 89.9824 23.333 90.0769 23.1052C90.1713 22.8774 90.2199 22.6332 90.2199 22.3866C90.2199 22.14 90.1713 21.8958 90.0769 21.6679C89.9824 21.4401 89.844 21.2331 89.6694 21.0587C89.4949 20.8844 89.2877 20.7461 89.0597 20.6517C88.8316 20.5574 88.5872 20.5089 88.3404 20.5089C87.8421 20.509 87.3641 20.7068 87.0118 21.0589C86.6594 21.4111 86.4615 21.8886 86.4615 22.3866C86.4615 22.8845 86.6594 23.362 87.0118 23.7142C87.3641 24.0663 87.8421 24.2642 88.3404 24.2642Z" fill="#7E5181"/>
</svg>
