<svg width="117" height="38" viewBox="0 0 117 38" fill="none" xmlns="http://www.w3.org/2000/svg">
<g clip-path="url(#clip0_665_30965)">
<path d="M0 10.0002V17.2829H7.14973V10.0002H0ZM4.63 14.7178H2.51756V12.5664H4.63V14.7178ZM15.1126 19.6164H18.3417C19.5581 19.6164 20.143 20.1524 20.143 21.1358C20.143 22.4201 19.2091 22.7242 18.1319 22.7242H15.1126V19.6164ZM9.96896 26.6946H19.4413C22.39 26.6946 25.2895 24.9646 25.2895 21.6256C25.2895 19.1732 23.8861 17.9828 22.39 17.4674C23.6307 16.792 24.446 15.8794 24.446 14.1988C24.4464 12.4923 23.5131 10.0183 19.1146 10.0183H9.96896V26.6946ZM15.1126 13.9876H17.8273C18.8799 13.9876 19.5809 14.2909 19.5809 15.1325C19.5809 16.2069 18.9027 16.511 17.8273 16.511H15.1126V13.9876ZM30.2205 19.2664C30.4325 17.959 31.2261 17.2348 32.6086 17.2348C33.7997 17.2348 34.6414 18.145 34.6414 19.2682H30.2209L30.2205 19.2664ZM39.0869 21.6718C39.0869 16.9549 37.0042 14.2678 32.1861 14.2678C28.3472 14.2678 25.7753 17.1416 25.7753 20.6688C25.7753 24.7081 28.7002 26.9976 32.5843 26.9976C35.3424 26.9976 37.8943 25.783 38.8283 23.1656H34.5021C34.1274 23.75 33.3078 24.0299 32.5576 24.0299C31.1107 24.0299 30.3149 23.0475 30.1973 21.6707L39.0862 21.67L39.0869 21.6718ZM44.8925 10.8808H40.2593V14.5726H38.2011V17.4212H40.2593V23.2154C40.2593 26.531 42.4354 26.8344 44.4009 26.8344C45.3826 26.8344 46.4367 26.6949 47.3721 26.6949V23.1891C47.0201 23.2385 46.6704 23.2606 46.318 23.2606C45.1497 23.2606 44.8911 22.7701 44.8911 21.6498V17.4205H47.3714V14.5726H44.89V10.8808H44.8925ZM48.1407 26.6946H52.7718V20.2947C52.7718 18.3552 53.8244 17.9568 54.6213 17.9568C55.9763 17.9568 56.1405 18.9392 56.1405 20.3398V26.6946H60.7741V18.3776C60.7741 15.5984 58.7829 14.2675 56.6064 14.2675C54.6437 14.2675 53.6125 14.9465 52.8167 15.879H52.7707V10.0183H48.1407V26.6946ZM65.8179 19.2664C66.0277 17.959 66.825 17.2348 68.206 17.2348C69.3997 17.2348 70.2388 18.145 70.2388 19.2682H65.8183L65.8179 19.2664ZM74.6844 21.6718C74.6844 16.9549 72.6045 14.2678 67.7835 14.2678C63.9457 14.2678 61.3724 17.1416 61.3724 20.6688C61.3724 24.7081 64.2976 26.9976 68.1836 26.9976C70.9399 26.9976 73.4936 25.5601 74.4257 22.9438H70.101C69.7285 23.5278 68.9074 24.0291 68.1572 24.0291C66.7088 24.0291 65.912 23.0468 65.7966 21.6707H74.6855L74.6844 21.6718ZM86.3375 18.0984C86.2232 14.9931 83.0639 14.2685 80.4436 14.2685C78.0104 14.2685 74.7111 15.0631 74.7111 18.1229C74.7111 20.2011 76.1374 21.3229 79.6703 21.9297C81.8225 22.3031 82.2204 22.5133 82.2204 23.2154C82.2204 23.9161 81.2619 24.1498 80.6549 24.1498C80.0924 24.1498 79.6493 24.0071 79.4142 23.7984C79.0622 23.4964 78.8774 23.3686 78.8546 22.946H74.4344C74.5024 26.0773 77.6392 27.0001 80.4903 27.0001C83.4383 27.0001 86.6692 26.0875 86.6692 22.7239C86.6692 20.7374 85.3113 19.8273 83.7671 19.3361C82.2226 18.8233 80.4708 18.7293 79.6978 18.4007C79.4421 18.2851 79.161 18.1226 79.161 17.7704C79.161 16.9777 79.9083 16.8379 80.5645 16.8379C80.9385 16.8379 81.3143 16.9546 81.5917 17.1882C81.8985 17.3977 82.1072 17.7011 82.1325 18.0984L86.3393 18.097L86.3375 18.0984ZM99.9971 10.0183H95.3671V15.9032H95.3193C94.6183 14.8746 93.3769 14.2685 91.9973 14.2685C87.9265 14.2685 86.8272 17.7264 86.8272 20.5746C86.8272 23.612 88.4875 26.9998 91.9275 26.9998C94.1973 26.9998 94.8972 26.1344 95.4832 25.3619H95.5313V26.6946H99.9985V10.0194L99.9971 10.0183ZM95.5309 20.6222C95.5309 22.0684 95.1565 23.6344 93.4981 23.6344C91.836 23.6344 91.4601 22.0684 91.4601 20.6222C91.4601 19.1974 91.8345 17.6318 93.4966 17.6318C95.154 17.6318 95.5295 19.1974 95.5295 20.6222M108.739 22.3732C108.669 23.6344 107.852 24.2635 106.797 24.2635C105.958 24.2635 105.347 23.7048 105.347 23.1461C105.347 22.3262 105.884 22.0684 106.913 21.8369C107.548 21.6938 108.178 21.532 108.739 21.2518V22.3732H108.739ZM113.186 19.0096C113.186 16.6747 113.229 14.2675 107.428 14.2675C104.551 14.2675 101.324 14.828 101.183 18.2378H105.485C105.511 17.7257 105.794 17.0001 107.218 17.0001C107.969 17.0001 108.739 17.3053 108.739 18.1233C108.739 18.8948 108.106 19.0804 107.477 19.1981C105.113 19.6417 100.624 19.5001 100.624 23.3335C100.624 25.8783 102.562 26.9994 104.904 26.9994C106.403 26.9994 107.828 26.6707 108.811 25.5504H108.858C108.834 25.878 108.903 26.3695 109.022 26.6953H113.747C113.231 25.9246 113.187 24.8967 113.187 23.9847V19.0114L113.186 19.0096ZM114.538 16.4569H114.186V15.0266H113.648V14.7233H115.06V15.0266H114.539V16.4569H114.538ZM115.598 16.4569H115.267V14.7233H115.818L116.132 15.9198L116.448 14.7236H117V16.4572H116.665V15.0747L116.287 16.4569H115.972L115.599 15.075L115.6 16.4583L115.598 16.4569Z" fill="#7E5181"/>
</g>
<defs>
<clipPath id="clip0_665_30965">
<rect width="117" height="17" fill="white" transform="translate(0 10)"/>
</clipPath>
</defs>
</svg>
