<svg width="90" height="38" viewBox="0 0 90 38" fill="none" xmlns="http://www.w3.org/2000/svg">
<g clip-path="url(#clip0_665_30849)">
<path fill-rule="evenodd" clip-rule="evenodd" d="M3.4426 27.7116C3.14648 27.2281 2.91991 26.4289 2.91991 25.3879C2.91991 22.8642 3.62968 20.2362 4.78881 18.4719L4.78882 18.4719C5.37802 17.5745 6.04978 16.9004 6.80934 16.5922C6.97446 16.5252 7.14373 16.4755 7.3172 16.4445C7.45598 16.4198 7.59744 16.407 7.74163 16.407L7.74163 16.407C9.16681 16.407 10.0599 17.3058 10.7546 18.05C11.1017 18.4219 11.5845 19.0353 12.1456 19.8412L10.9962 21.6222C10.7446 22.0119 10.4569 22.4701 10.1487 22.9609L10.1486 22.961C9.4123 24.1335 8.55893 25.4923 7.80085 26.5502C6.45841 28.4226 5.7618 28.6132 5.00033 28.6132C4.40995 28.6132 3.83086 28.3449 3.4426 27.7116ZM0.728748 28.9475C0.240396 27.9379 0 26.6854 0 25.2827C0 22.3674 0.793431 19.3289 2.30228 16.9825C3.30629 15.4218 4.64398 14.213 6.18486 13.7062C6.44979 13.619 6.72072 13.5527 6.997 13.5088C7.25635 13.4676 7.52041 13.4463 7.78863 13.4463H7.78863C9.07186 13.4463 10.3476 13.8293 11.6797 14.9262C12.3818 15.5041 13.1063 16.2621 13.8853 17.2566C14.5182 16.3943 15.2009 15.5789 15.9354 14.9328C17.0222 13.9772 18.1945 13.4463 19.3743 13.4463C21.355 13.4463 23.2418 14.6039 24.6858 16.7749C26.2661 19.1526 27.0332 22.1475 27.0332 25.2381C27.0332 26.8458 26.7582 28.0803 26.2801 29.0783C26.2118 29.2209 26.1394 29.3587 26.063 29.492C25.5095 30.459 24.4636 31.4252 22.7401 31.5422C22.6252 31.55 22.5073 31.554 22.3863 31.554C21.183 31.554 20.117 31.2904 18.9381 30.1689C18.0318 29.3081 16.9724 27.7789 16.1573 26.4042L13.7328 22.32C13.6637 22.2035 13.5949 22.0887 13.5265 21.9757L13.3173 22.3494L12.4656 23.871C10.7546 26.9304 10.3212 27.6272 9.46575 28.7772C7.96631 30.7908 6.68591 31.554 5.00033 31.554C3.00076 31.554 1.73634 30.6808 0.953245 29.365C0.873338 29.2309 0.798513 29.0917 0.728748 28.9475ZM15.2119 19.1012C15.6618 19.7744 16.132 20.5228 16.6274 21.3549L17.3221 22.5229C18.9992 25.3405 19.9534 26.7901 20.5118 27.4736C21.23 28.3515 21.733 28.6132 22.3863 28.6132C24.0437 28.6132 24.4573 27.0773 24.4573 25.3196C24.4573 22.8149 23.8782 20.0352 22.6025 18.0491C21.6972 16.6403 20.524 15.7794 19.2333 15.7794C17.8372 15.7794 16.7138 16.8412 15.4513 18.7345C15.3718 18.8537 15.292 18.9759 15.2119 19.1012ZM32.7094 14.019H36.0873L41.8307 24.4965L47.5742 14.019H50.8789V31.2355H48.123V18.0404L43.0868 27.1774H40.5015L35.4653 18.0404V31.2355H32.7094V14.019ZM59.7682 31.5429C58.4918 31.5429 57.37 31.258 56.4027 30.6882C55.4352 30.1184 54.6811 29.3293 54.1406 28.3209C53.5999 27.3125 53.3296 26.1565 53.3297 24.853C53.3297 23.5332 53.5939 22.3649 54.1223 21.3482C54.6507 20.3318 55.3844 19.5365 56.3234 18.9624C57.2624 18.3887 58.3416 18.1018 59.561 18.1016C60.7722 18.1016 61.8148 18.3906 62.6888 18.9686C63.5626 19.5467 64.2353 20.3563 64.7069 21.3974C65.1783 22.4386 65.4141 23.6602 65.4142 25.0621V25.8244H56.0612C56.232 26.874 56.6527 27.7 57.3234 28.3024C57.994 28.905 58.8415 29.2063 59.8658 29.2062C60.6869 29.2062 61.3941 29.0833 61.9876 28.8373C62.581 28.5914 63.1379 28.2184 63.6583 27.7183L65.1216 29.526C63.6662 30.8707 61.8818 31.543 59.7682 31.5429ZM61.7803 21.3297C61.203 20.7354 60.447 20.4382 59.5122 20.4381C58.6016 20.4381 57.8395 20.7415 57.2258 21.3482C56.6119 21.9549 56.2237 22.7706 56.0612 23.7954H62.7681C62.6867 22.746 62.3575 21.9241 61.7803 21.3297ZM66.2192 20.6843H68.7557V26.7715C68.7556 29.936 70.1904 31.5183 73.0602 31.5183C73.4581 31.5194 73.8555 31.4906 74.2492 31.4322C74.5932 31.3822 74.9334 31.3082 75.2674 31.2108V28.9604C74.9747 29.0097 74.7065 29.0486 74.4626 29.0772C74.2185 29.1059 73.9218 29.1202 73.5724 29.1202C72.7837 29.1204 72.2268 28.9154 71.9018 28.5054C71.5766 28.0954 71.414 27.4109 71.414 26.4517V20.6843H75.2674V18.4092H71.414V14.6462H68.7557V18.4092H66.2192V20.6843ZM89.1204 31.2354H86.5108V29.4399C86.0474 30.1123 85.4581 30.6308 84.7427 30.9955C84.0273 31.3602 83.2143 31.5427 82.3038 31.5429C81.182 31.5429 80.1882 31.2538 79.3223 30.6758C78.4565 30.0978 77.7757 29.3026 77.2798 28.2902C76.7839 27.2776 76.5359 26.1196 76.5359 24.8161C76.5359 23.5044 76.788 22.3443 77.292 21.3358C77.796 20.3275 78.4931 19.5364 79.3833 18.9624C80.2735 18.3887 81.2958 18.1018 82.4501 18.1016C83.32 18.1016 84.1004 18.2718 84.7914 18.612C85.4731 18.9446 86.0635 19.4407 86.5108 20.0569V18.4091H89.1204V31.2354ZM86.4621 22.8977C86.1774 22.168 85.7282 21.5921 85.1146 21.1698C84.5007 20.7476 83.7914 20.5366 82.9867 20.5366C81.8485 20.5366 80.942 20.9219 80.2674 21.6925C79.5926 22.4631 79.2552 23.5043 79.2553 24.8161C79.2553 26.1361 79.5805 27.1814 80.2308 27.952C80.8811 28.7227 81.7632 29.108 82.877 29.1079C83.698 29.1079 84.4296 28.8947 85.0719 28.4684C85.714 28.0423 86.1774 27.4684 86.4621 26.7468L86.4621 22.8977Z" fill="#7E5181"/>
</g>
<defs>
<clipPath id="clip0_665_30849">
<rect width="89.1204" height="18.1077" fill="white" transform="translate(0 13.4463)"/>
</clipPath>
</defs>
</svg>
