<svg width="79" height="38" viewBox="0 0 79 38" fill="none" xmlns="http://www.w3.org/2000/svg">
<path fill-rule="evenodd" clip-rule="evenodd" d="M70.4666 0L76.2278 9.39107H73.027L66.9976 4.0646L62.4503 9.39107H60.5743L64.1685 1.56498L66.9975 4.06403L70.4666 0ZM74.0758 23.8851C73.617 23.8546 73.1513 23.7234 72.6784 23.4909C72.1335 23.2231 71.6982 22.8596 71.3725 22.4008L69.6817 24.0072C70.2077 24.6451 70.8841 25.1263 71.7106 25.4513C72.1916 25.6406 72.679 25.773 73.1726 25.852L74.0758 23.8851ZM71.3445 18.3653C71.6638 18.6588 72.0236 18.8943 72.4247 19.0727C72.8254 19.2516 73.2262 19.4046 73.6271 19.5318C74.0402 19.6724 74.435 19.8063 74.8108 19.9335C75.1507 20.0491 75.4477 20.1837 75.7059 20.3356L76.6854 18.2027C76.6664 18.1946 76.6476 18.1863 76.6288 18.1779C76.5961 18.1634 76.5634 18.1489 76.5297 18.1358C76.0723 17.9571 75.6309 17.798 75.2052 17.6574C74.8294 17.5427 74.4848 17.4279 74.1718 17.3132C73.8586 17.1986 73.5925 17.0646 73.3734 16.9115C73.154 16.7585 72.9819 16.5738 72.8568 16.3569C72.7314 16.1401 72.6689 15.8788 72.6689 15.5728C72.6689 15.2413 72.7409 14.9577 72.8851 14.7216C73.0288 14.4858 73.2139 14.2945 73.4392 14.1479C73.6646 14.0014 73.9152 13.8928 74.1908 13.8228C74.466 13.7528 74.7417 13.7176 75.0173 13.7176C75.4805 13.7176 75.9407 13.8292 76.3983 14.0521C76.8551 14.2756 76.9954 14.3776 78.03 15.2717L78.8154 13.5641L79 13.1626C78.4863 12.6784 77.8824 12.315 77.1873 12.0726C76.4922 11.8306 75.8065 11.7095 75.1301 11.7095C74.5289 11.7095 73.9371 11.7891 73.3548 11.9483C72.7721 12.108 72.2524 12.35 71.7952 12.675C71.3382 13.0005 70.9687 13.4117 70.6869 13.9087C70.4051 14.4062 70.264 14.999 70.264 15.6875C70.264 16.3252 70.3642 16.8574 70.5646 17.2847C70.7649 17.7119 71.0252 18.072 71.3445 18.3653ZM3.3567 12.0537L2.39047 14.1575H8.58578V12.0537H3.3567ZM2.36716 14.2084L0 19.3628V25.5949H2.36716V19.8952H8.22893V17.868H2.36716V14.2084ZM66.676 14.8841C66.425 14.5528 66.0713 14.2756 65.6145 14.0521C65.1569 13.8292 64.6967 13.7176 64.2333 13.7176C63.9579 13.7176 63.682 13.7528 63.4068 13.8228C63.1312 13.8928 62.8808 14.0014 62.6552 14.1479C62.4301 14.2945 62.245 14.4858 62.1011 14.7216C61.9569 14.9577 61.8851 15.2413 61.8851 15.5728C61.8851 15.8788 61.9476 16.1401 62.073 16.3569C62.1981 16.5738 62.3702 16.7585 62.5896 16.9115C62.8087 17.0646 63.0748 17.1986 63.388 17.3132C63.701 17.4279 64.0456 17.5427 64.4214 17.6574C64.847 17.798 65.2885 17.9571 65.7459 18.1358C66.2029 18.3144 66.6224 18.5503 67.0046 18.8434C67.3865 19.1369 67.6997 19.5064 67.9441 19.9526C68.1881 20.3991 68.3102 20.9539 68.3102 21.6167C68.3102 22.3435 68.1788 22.9779 67.9159 23.5196C67.6527 24.0617 67.3021 24.5113 66.8637 24.868C66.425 25.2252 65.9119 25.493 65.3232 25.6714C64.7344 25.85 64.1144 25.9391 63.4631 25.9391C62.599 25.9391 61.7537 25.7766 60.9268 25.4513C60.1003 25.1263 59.4239 24.6451 58.8979 24.0072L60.5887 22.4008C60.9144 22.8596 61.3497 23.2231 61.8946 23.4909C62.4392 23.7588 62.9747 23.8926 63.5007 23.8926C63.7761 23.8926 64.0581 23.8576 64.3464 23.7876C64.6342 23.7176 64.8939 23.5995 65.1258 23.4335C65.3576 23.2682 65.5453 23.0606 65.6896 22.812C65.8332 22.5633 65.9055 22.2546 65.9055 21.8845C65.9055 21.5274 65.8239 21.2311 65.6613 20.995C65.4983 20.7592 65.2792 20.555 65.0037 20.383C64.7281 20.2109 64.4027 20.0612 64.0268 19.9335C63.651 19.8063 63.2564 19.6724 62.8431 19.5318C62.4423 19.4046 62.0414 19.2516 61.6407 19.0727C61.2398 18.8943 60.88 18.6588 60.5607 18.3653C60.2412 18.072 59.9811 17.7119 59.7808 17.2847C59.5804 16.8574 59.4802 16.3252 59.4802 15.6875C59.4802 14.999 59.6213 14.4062 59.9029 13.9087C60.1849 13.4117 60.554 13.0005 61.0114 12.675C61.4684 12.35 61.9883 12.108 62.5708 11.9483C63.1533 11.7891 63.7451 11.7095 64.3464 11.7095C65.0227 11.7095 65.7082 11.8306 66.4035 12.0726C67.0984 12.315 67.7027 12.6784 68.2164 13.1628L66.676 14.8841ZM48.4336 12.0537H57.2449V14.1575H50.8008V17.6001H56.9066V19.6275H50.8008V23.4529H57.5832V25.5949H48.4336V12.0537ZM33.7794 12.0537H36.9168L43.0981 22.1904H43.1356V12.0537H45.5028V25.5949H42.4968L36.1841 15.1327H36.1466V25.5949H33.7794V12.0537ZM24.1792 12.0537H26.5465V23.4529H32.2014V25.5949H24.1792V12.0537ZM21.3613 20.622C21.3613 21.4383 21.2234 22.1745 20.948 22.8311C20.6723 23.4879 20.2967 24.0457 19.8207 24.5047C19.3447 24.9637 18.781 25.3175 18.1299 25.5662C17.4784 25.815 16.7707 25.9391 16.0068 25.9391C15.2427 25.9391 14.5351 25.815 13.884 25.5662C13.2326 25.3175 12.6657 24.9637 12.1835 24.5047C11.7014 24.0457 11.3256 23.4879 11.0563 22.8311C10.787 22.1745 10.6526 21.4383 10.6526 20.622V12.0537H13.0198V20.5265C13.0198 20.9219 13.0695 21.314 13.1701 21.7026C13.2701 22.0918 13.4359 22.439 13.6679 22.745C13.8994 23.0511 14.2063 23.2998 14.5884 23.4909C14.9704 23.6822 15.4434 23.7779 16.0068 23.7779C16.5705 23.7779 17.0431 23.6822 17.4253 23.4909C17.8072 23.2998 18.1141 23.0511 18.3461 22.745C18.5776 22.439 18.7434 22.0918 18.8438 21.7026C18.944 21.314 18.9942 20.9219 18.9942 20.5265V12.0537H21.3613V20.622Z" fill="#7E5181"/>
</svg>
