<svg width="88" height="38" viewBox="0 0 88 38" fill="none" xmlns="http://www.w3.org/2000/svg">
<path d="M37.6588 23.3141C37.6588 27.4818 34.3985 30.5528 30.3973 30.5528C26.3961 30.5528 23.1357 27.4818 23.1357 23.3141C23.1357 19.1171 26.3961 16.0755 30.3973 16.0755C34.3985 16.0755 37.6588 19.1171 37.6588 23.3141ZM34.48 23.3141C34.48 20.7098 32.5904 18.9279 30.3973 18.9279C28.2041 18.9279 26.3145 20.7098 26.3145 23.3141C26.3145 25.8924 28.2041 27.7004 30.3973 27.7004C32.5904 27.7004 34.48 25.8891 34.48 23.3141Z" fill="#7E5181"/>
<path d="M53.3241 23.3141C53.3241 27.4818 50.0638 30.5528 46.0626 30.5528C42.0614 30.5528 38.8011 27.4818 38.8011 23.3141C38.8011 19.1204 42.0614 16.0755 46.0626 16.0755C50.0638 16.0755 53.3241 19.1171 53.3241 23.3141ZM50.1454 23.3141C50.1454 20.7098 48.2557 18.9279 46.0626 18.9279C43.8695 18.9279 41.9798 20.7098 41.9798 23.3141C41.9798 25.8924 43.8695 27.7004 46.0626 27.7004C48.2557 27.7004 50.1454 25.8891 50.1454 23.3141Z" fill="#7E5181"/>
<path d="M68.3367 16.5128V29.5085C68.3367 34.8543 65.1841 37.0376 61.4571 37.0376C57.9487 37.0376 55.8371 34.6911 55.0408 32.7721L57.8083 31.62C58.3011 32.7982 59.5087 34.1885 61.4538 34.1885C63.8395 34.1885 65.3179 32.7166 65.3179 29.9458V28.9047H65.2069C64.4955 29.7826 63.1248 30.5496 61.395 30.5496C57.7757 30.5496 54.4599 27.3969 54.4599 23.3403C54.4599 19.2542 57.7757 16.0755 61.395 16.0755C63.1215 16.0755 64.4922 16.8424 65.2069 17.6942H65.3179V16.516H68.3367V16.5128ZM65.5431 23.3403C65.5431 20.7914 63.8428 18.9279 61.679 18.9279C59.4858 18.9279 57.6484 20.7914 57.6484 23.3403C57.6484 25.863 59.4858 27.7004 61.679 27.7004C63.8428 27.7004 65.5431 25.863 65.5431 23.3403Z" fill="#7E5181"/>
<path d="M73.3137 8.89552V30.109H70.2133V8.89552H73.3137Z" fill="#7E5181"/>
<path d="M85.3956 25.6966L87.8629 27.3414C87.0666 28.5196 85.1476 30.5496 81.8318 30.5496C77.7196 30.5496 74.6486 27.3708 74.6486 23.3109C74.6486 19.0062 77.7457 16.0722 81.476 16.0722C85.2325 16.0722 87.0699 19.0617 87.6704 20.6772L88 21.4996L78.3234 25.5073C79.0642 26.9596 80.2163 27.7004 81.8318 27.7004C83.4505 27.7004 84.5732 26.9041 85.3956 25.6966ZM77.8012 23.0922L84.2697 20.4063C83.914 19.5023 82.8435 18.8724 81.5837 18.8724C79.9682 18.8724 77.7196 20.2986 77.8012 23.0922Z" fill="#7E5181"/>
<path d="M11.3998 21.431V18.36H21.7487C21.8499 18.8952 21.9021 19.5284 21.9021 20.2137C21.9021 22.5178 21.2722 25.367 19.2422 27.3969C17.2678 29.453 14.745 30.5496 11.4031 30.5496C5.20872 30.5496 0 25.504 0 19.3097C0 13.1154 5.20872 8.06982 11.4031 8.06982C14.8298 8.06982 17.271 9.41443 19.1052 11.167L16.9381 13.334C15.6229 12.1004 13.841 11.1409 11.3998 11.1409C6.87643 11.1409 3.33867 14.7863 3.33867 19.3097C3.33867 23.8331 6.87643 27.4785 11.3998 27.4785C14.3338 27.4785 16.0047 26.3004 17.0752 25.2299C17.9433 24.3618 18.5145 23.1216 18.7397 21.4278L11.3998 21.431Z" fill="#7E5181"/>
</svg>
