<svg width="117" height="38" viewBox="0 0 117 38" fill="none" xmlns="http://www.w3.org/2000/svg">
<g clip-path="url(#clip0_665_30732)">
<path d="M0 14.0002V21.2829H7.14973V14.0002H0ZM4.63 18.7178H2.51756V16.5664H4.63V18.7178ZM15.1126 23.6164H18.3417C19.5581 23.6164 20.143 24.1524 20.143 25.1358C20.143 26.4201 19.2091 26.7242 18.1319 26.7242H15.1126V23.6164ZM9.96896 30.6946H19.4413C22.39 30.6946 25.2895 28.9646 25.2895 25.6256C25.2895 23.1732 23.8861 21.9828 22.39 21.4674C23.6307 20.792 24.446 19.8794 24.446 18.1988C24.4464 16.4923 23.5131 14.0183 19.1146 14.0183H9.96896V30.6946ZM15.1126 17.9876H17.8273C18.8799 17.9876 19.5809 18.2909 19.5809 19.1325C19.5809 20.2069 18.9027 20.511 17.8273 20.511H15.1126V17.9876ZM30.2205 23.2664C30.4325 21.959 31.2261 21.2348 32.6086 21.2348C33.7997 21.2348 34.6414 22.145 34.6414 23.2682H30.2209L30.2205 23.2664ZM39.0869 25.6718C39.0869 20.9549 37.0042 18.2678 32.1861 18.2678C28.3472 18.2678 25.7753 21.1416 25.7753 24.6688C25.7753 28.7081 28.7002 30.9976 32.5843 30.9976C35.3424 30.9976 37.8943 29.783 38.8283 27.1656H34.5021C34.1274 27.75 33.3078 28.0299 32.5576 28.0299C31.1107 28.0299 30.3149 27.0475 30.1973 25.6707L39.0862 25.67L39.0869 25.6718ZM44.8925 14.8808H40.2593V18.5726H38.2011V21.4212H40.2593V27.2154C40.2593 30.531 42.4354 30.8344 44.4009 30.8344C45.3826 30.8344 46.4367 30.6949 47.3721 30.6949V27.1891C47.0201 27.2385 46.6704 27.2606 46.318 27.2606C45.1497 27.2606 44.8911 26.7701 44.8911 25.6498V21.4205H47.3714V18.5726H44.89V14.8808H44.8925ZM48.1407 30.6946H52.7718V24.2947C52.7718 22.3552 53.8244 21.9568 54.6213 21.9568C55.9763 21.9568 56.1405 22.9392 56.1405 24.3398V30.6946H60.7741V22.3776C60.7741 19.5984 58.7829 18.2675 56.6064 18.2675C54.6437 18.2675 53.6125 18.9465 52.8167 19.879H52.7707V14.0183H48.1407V30.6946ZM65.8179 23.2664C66.0277 21.959 66.825 21.2348 68.206 21.2348C69.3997 21.2348 70.2388 22.145 70.2388 23.2682H65.8183L65.8179 23.2664ZM74.6844 25.6718C74.6844 20.9549 72.6045 18.2678 67.7835 18.2678C63.9457 18.2678 61.3724 21.1416 61.3724 24.6688C61.3724 28.7081 64.2976 30.9976 68.1836 30.9976C70.9399 30.9976 73.4936 29.5601 74.4257 26.9438H70.101C69.7285 27.5278 68.9074 28.0291 68.1572 28.0291C66.7088 28.0291 65.912 27.0468 65.7966 25.6707H74.6855L74.6844 25.6718ZM86.3375 22.0984C86.2232 18.9931 83.0639 18.2685 80.4436 18.2685C78.0104 18.2685 74.7111 19.0631 74.7111 22.1229C74.7111 24.2011 76.1374 25.3229 79.6703 25.9297C81.8225 26.3031 82.2204 26.5133 82.2204 27.2154C82.2204 27.9161 81.2619 28.1498 80.6549 28.1498C80.0924 28.1498 79.6493 28.0071 79.4142 27.7984C79.0622 27.4964 78.8774 27.3686 78.8546 26.946H74.4344C74.5024 30.0773 77.6392 31.0001 80.4903 31.0001C83.4383 31.0001 86.6692 30.0875 86.6692 26.7239C86.6692 24.7374 85.3113 23.8273 83.7671 23.3361C82.2226 22.8233 80.4708 22.7293 79.6978 22.4007C79.4421 22.2851 79.161 22.1226 79.161 21.7704C79.161 20.9777 79.9083 20.8379 80.5645 20.8379C80.9385 20.8379 81.3143 20.9546 81.5917 21.1882C81.8985 21.3977 82.1072 21.7011 82.1325 22.0984L86.3393 22.097L86.3375 22.0984ZM99.9971 14.0183H95.3671V19.9032H95.3193C94.6183 18.8746 93.3769 18.2685 91.9973 18.2685C87.9265 18.2685 86.8272 21.7264 86.8272 24.5746C86.8272 27.612 88.4875 30.9998 91.9275 30.9998C94.1973 30.9998 94.8972 30.1344 95.4832 29.3619H95.5313V30.6946H99.9985V14.0194L99.9971 14.0183ZM95.5309 24.6222C95.5309 26.0684 95.1565 27.6344 93.4981 27.6344C91.836 27.6344 91.4601 26.0684 91.4601 24.6222C91.4601 23.1974 91.8345 21.6318 93.4966 21.6318C95.154 21.6318 95.5295 23.1974 95.5295 24.6222M108.739 26.3732C108.669 27.6344 107.852 28.2635 106.797 28.2635C105.958 28.2635 105.347 27.7048 105.347 27.1461C105.347 26.3262 105.884 26.0684 106.913 25.8369C107.548 25.6938 108.178 25.532 108.739 25.2518V26.3732H108.739ZM113.186 23.0096C113.186 20.6747 113.229 18.2675 107.428 18.2675C104.551 18.2675 101.324 18.828 101.183 22.2378H105.485C105.511 21.7257 105.794 21.0001 107.218 21.0001C107.969 21.0001 108.739 21.3053 108.739 22.1233C108.739 22.8948 108.106 23.0804 107.477 23.1981C105.113 23.6417 100.624 23.5001 100.624 27.3335C100.624 29.8783 102.562 30.9994 104.904 30.9994C106.403 30.9994 107.828 30.6707 108.811 29.5504H108.858C108.834 29.878 108.903 30.3695 109.022 30.6953H113.747C113.231 29.9246 113.187 28.8967 113.187 27.9847V23.0114L113.186 23.0096ZM114.538 20.4569H114.186V19.0266H113.648V18.7233H115.06V19.0266H114.539V20.4569H114.538ZM115.598 20.4569H115.267V18.7233H115.818L116.132 19.9198L116.448 18.7236H117V20.4572H116.665V19.0747L116.287 20.4569H115.972L115.599 19.075L115.6 20.4583L115.598 20.4569Z" fill="#7E5181"/>
</g>
<defs>
<clipPath id="clip0_665_30732">
<rect width="117" height="17" fill="white" transform="translate(0 14)"/>
</clipPath>
</defs>
</svg>
