<svg width="139" height="37" viewBox="0 0 139 37" fill="none" xmlns="http://www.w3.org/2000/svg">
<g clip-path="url(#clip0_665_30968)">
<path fill-rule="evenodd" clip-rule="evenodd" d="M24.0189 30H0V6H24.0189V30ZM16.2086 9.99795L1.46887 19.9206V24.931L18.134 9.93655C17.495 9.91672 16.8475 9.93371 16.2086 9.99795ZM18.4412 9.95451L1.46887 26.6641V28.2423H12.5355L20.5944 10.2303C19.8817 10.0839 19.1614 9.99134 18.4412 9.95451ZM10.2821 11.8425L1.46887 15.8235V18.7513L15.7889 10.0386C13.32 10.4381 10.2821 11.8425 10.2821 11.8425ZM22.1937 10.6562C21.7475 10.5099 21.3023 10.3871 20.8543 10.286L14.6414 28.2423H22.1937V10.6562ZM82.1626 17.9252C82.0204 17.9379 81.8775 17.9427 81.7347 17.9395C81.1038 17.9395 80.7361 17.7247 80.3421 17.4945C80.0448 17.3207 79.7324 17.1382 79.2806 17.0326C77.1516 17.0326 76.222 16.0376 76.222 14.3877C76.2131 14.0065 76.286 13.6279 76.436 13.2773C76.5859 12.9266 76.8094 12.6122 77.0912 12.3552C77.3731 12.0982 77.7068 11.9045 78.0699 11.7873C78.433 11.6701 78.8171 11.632 79.1962 11.6757C81.0564 11.6757 82.0418 12.641 82.0418 14.1576C82.1075 14.6433 82.0289 15.1375 81.8156 15.5788C81.6024 16.0201 81.264 16.389 80.8425 16.6396C81.0188 16.6657 81.1691 16.7385 81.3311 16.8169C81.5789 16.9368 81.8541 17.07 82.2922 17.07H82.5714L82.1626 17.9252ZM79.1501 12.7158C78.397 12.7158 78.0804 13.3466 78.0804 14.3359C78.0804 15.6589 78.4804 15.9848 79.1683 15.9848C79.8764 15.9848 80.1824 15.6512 80.1824 14.3206C80.1824 13.0274 79.8668 12.7158 79.1501 12.7158ZM56.172 14.4845C56.172 16.0376 57.2139 17.0327 59.0915 17.0327C61.4066 17.0327 61.9918 15.6436 61.9918 14.1576C61.9918 13.0207 61.3509 11.6757 59.1472 11.6757C58.7603 11.6342 58.3691 11.677 58.0004 11.8012C57.6318 11.9254 57.2944 12.1279 57.0116 12.3949C56.7289 12.6619 56.5074 12.9869 56.3624 13.3477C56.2175 13.7084 56.1525 14.0963 56.172 14.4845ZM58.0314 14.336C58.0314 13.3466 58.348 12.7158 59.1011 12.7158C59.8168 12.7158 60.1334 13.0274 60.1334 14.3206C60.1334 15.6512 59.8264 15.9848 59.1193 15.9848C58.4314 15.9848 58.0314 15.6589 58.0314 14.336ZM53.013 17.0331C52.1929 17.043 51.3796 16.8838 50.624 16.5652L51.2093 15.5241C51.7818 15.7857 52.4018 15.9276 53.0312 15.9412C53.6826 15.9412 53.9426 15.7475 53.9426 15.4657C53.9426 15.2356 53.7383 15.1311 53.2921 15.0419L52.5294 14.8857C51.5911 14.693 50.9493 14.276 50.9493 13.3844C50.9493 12.3587 52.0084 11.6751 53.4591 11.6751C54.2605 11.6535 55.055 11.8272 55.7741 12.1813L54.9749 13.1246C54.5217 12.8954 54.0226 12.7709 53.5147 12.7603C53.0878 12.7603 52.8546 12.9233 52.8546 13.1323C52.8546 13.3029 53.0034 13.4736 53.4869 13.5704L54.147 13.7046C54.8445 13.8455 55.849 14.0977 55.849 15.1378C55.849 16.3793 54.6958 17.0331 53.013 17.0331ZM46.8856 16.3197C46.6443 16.5424 46.3595 16.7128 46.0491 16.8203C45.7387 16.9277 45.4094 16.9697 45.0819 16.9438H42.7294V11.7651H45.0176C45.5507 11.7379 46.0819 11.8478 46.5604 12.0843C46.9275 12.3073 47.2227 12.6311 47.4107 13.0172C47.5987 13.4032 47.6715 13.8352 47.6205 14.2614C47.6529 14.6371 47.604 15.0154 47.4772 15.3705C47.3504 15.7256 47.1486 16.0493 46.8856 16.3197ZM44.9054 12.857H44.394V15.8365H44.9524C45.4167 15.8365 45.789 15.6515 45.789 14.2174C45.789 13.0133 45.4071 12.857 44.9054 12.857ZM40.1249 15.9485L40.4588 16.9435H42.2625L40.3015 11.7649H38.5717L36.4897 16.9435H38.2368L38.5909 15.9485H40.1249ZM39.39 13.2508C39.4061 13.4971 39.4466 13.7411 39.5109 13.9794L39.7901 14.9227H38.9535L39.2135 14.0762C39.3009 13.808 39.3601 13.5313 39.39 13.2508ZM34.4415 16.9437L34.2832 14.8558C34.2554 14.5289 34.2371 14.2614 34.2371 13.8156H34.2275C34.1852 14.1465 34.1103 14.4725 34.004 14.7887L33.2144 16.9437H31.8012L31.1133 14.8491C31.0024 14.5117 30.9306 14.1627 30.8993 13.8089H30.8897C30.8897 14.2691 30.8801 14.5509 30.8619 14.8778L30.7314 16.9437H29.0582L29.6905 11.7651H31.7263L32.3586 13.8156C32.461 14.135 32.5327 14.4634 32.5725 14.7963H32.5821C32.6275 14.4369 32.7114 14.0833 32.8325 13.7418L33.4936 11.7651H35.4642L36.059 16.9437H34.4415ZM32.8498 25.0113H28.9229V19.8303H32.7277L32.6055 20.923H30.6045V21.7927H32.2392V22.8482H30.6045V23.9037H32.8498V25.0113ZM38.4868 25.0113H36.7582L35.6027 23.2124C35.4148 22.9201 35.2457 22.5955 35.0954 22.2387C35.158 22.5707 35.1893 23.0093 35.1893 23.5544V25.0113H33.5923V19.8303H35.2081L36.4012 21.6069C36.5954 21.8943 36.777 22.2238 36.9461 22.5955C36.9085 22.3527 36.8897 21.9661 36.8897 21.4359V19.8303H38.4868V25.0113ZM43.7249 20.9304L43.9222 19.8303H38.9807V20.9304H40.5026V25.0113H42.203V20.9304H43.7249ZM48.1973 25.0113H44.2704V19.8303H48.0752L47.9531 20.923H45.9521V21.7927H47.5867V22.8482H45.9521V23.9037H48.1973V25.0113ZM52.0778 25.0113H54.0224C53.6842 24.4017 53.3554 23.8368 53.036 23.3165C52.8418 22.9993 52.6226 22.8135 52.3784 22.759C52.7855 22.7045 53.108 22.5608 53.346 22.3279C53.609 22.0752 53.7406 21.7357 53.7406 21.3095C53.7406 20.3234 52.8919 19.8303 51.1947 19.8303H48.94V25.0113H50.6216V22.9597C50.8471 22.9597 51.0162 23.0167 51.1289 23.1307C51.1978 23.1951 51.2855 23.3388 51.392 23.5618L52.0778 25.0113ZM50.6216 20.923H51.0913C51.6112 20.923 51.8711 21.0865 51.8711 21.4136C51.8711 21.7902 51.6143 21.9785 51.1007 21.9785H50.6216V20.923ZM58.8294 19.8303L58.6321 20.9304H57.1102V25.0113H55.4098V20.9304H53.8879V19.8303H58.8294ZM62.3154 25.0113H64.138L62.1557 19.8303H60.4084L58.304 25.0113H60.0702L60.4272 24.0152H61.9772L62.3154 25.0113ZM61.3572 22.0454L61.639 22.9894H60.7935L61.0566 22.142C61.1505 21.8348 61.21 21.5598 61.2351 21.317C61.2476 21.5697 61.2883 21.8125 61.3572 22.0454ZM66.1353 25.0113H64.4161V19.8303H66.1353V25.0113ZM70.4348 25.0113H72.1634V19.8303H70.5663V21.4359C70.5663 21.9661 70.5851 22.3527 70.6227 22.5955C70.4536 22.2238 70.272 21.8943 70.0778 21.6069L68.8847 19.8303H67.2689V25.0113H68.8659V23.5544C68.8659 23.0093 68.8346 22.5707 68.772 22.2387C68.9223 22.5955 69.0914 22.9201 69.2793 23.2124L70.4348 25.0113ZM80.201 25.0113H78.5664L78.4066 22.9225C78.3753 22.5112 78.3597 22.1644 78.3597 21.8819H78.3503C78.2751 22.3328 78.2 22.6574 78.1248 22.8556L77.3263 25.0113H75.8983L75.2031 22.9151C75.0967 22.598 75.0246 22.2511 74.9871 21.8745H74.9777C74.9777 22.2907 74.9683 22.6475 74.9495 22.9448L74.818 25.0113H73.127L73.7658 19.8303H75.8232L76.462 21.8819C76.5622 22.199 76.6342 22.5261 76.6781 22.8631H76.6875C76.7376 22.5112 76.8221 22.1594 76.9411 21.8076L77.6081 19.8303H79.5997L80.201 25.0113ZM81.1765 25.0113H85.1033V23.9037H82.8581V22.8482H84.4927V21.7927H82.8581V20.923H84.8591L84.9812 19.8303H81.1765V25.0113ZM90.7403 25.0113H89.0118L87.8562 23.2124C87.6684 22.9201 87.4993 22.5955 87.3489 22.2387C87.4116 22.5707 87.4429 23.0093 87.4429 23.5544V25.0113H85.8458V19.8303H87.4617L88.6548 21.6069C88.8489 21.8943 89.0305 22.2238 89.1996 22.5955C89.1621 22.3527 89.1433 21.9661 89.1433 21.4359V19.8303H90.7403V25.0113ZM95.9785 20.9304L96.1757 19.8303H91.2343V20.9304H92.7561V25.0113H94.4566V20.9304H95.9785ZM50.1498 11.7647H48.4487V16.9434H50.1498V11.7647ZM65.9435 16.9437L64.7989 15.1462C64.6076 14.8345 64.4399 14.5089 64.2971 14.1722C64.3643 14.6074 64.3954 15.0473 64.3902 15.4875V16.9437H62.8101V11.7651H64.4084L65.5895 13.5405C65.7955 13.8549 65.9759 14.1854 66.1287 14.5289C66.0861 14.1441 66.0679 13.757 66.074 13.3699V11.7651H67.6541V16.9437L65.9435 16.9437ZM70.534 16.5653C71.2896 16.8838 72.1029 17.043 72.9229 17.0331C74.6057 17.0331 75.7589 16.3793 75.7589 15.1378C75.7589 14.0977 74.7544 13.8456 74.0569 13.7046L73.3978 13.5704C72.9143 13.4736 72.7656 13.303 72.7656 13.1323C72.7656 12.9233 72.9978 12.7604 73.4247 12.7604C73.9326 12.7709 74.4317 12.8954 74.8849 13.1246L75.6841 12.1813C74.9651 11.8271 74.1704 11.6534 73.369 11.6752C71.9184 11.6752 70.8592 12.3587 70.8592 13.3844C70.8592 14.276 71.5011 14.693 72.4394 14.8857L73.2021 15.042C73.6473 15.1311 73.8526 15.2356 73.8526 15.4657C73.8526 15.7475 73.5926 15.9412 72.9412 15.9412C72.3117 15.9278 71.6917 15.7859 71.1192 15.5242L70.534 16.5653ZM86.4691 16.897C86.8657 16.7521 87.2213 16.5134 87.5056 16.2014C87.6444 15.9391 87.6996 15.6407 87.6639 15.3462V11.7647H86.0003V15.1679C86.0003 15.6741 85.8324 15.9416 85.2366 15.9416C84.6513 15.9416 84.4652 15.6214 84.4652 15.1459V11.7647H82.792V15.2878C82.792 15.978 82.8572 16.1122 83.1076 16.3873C83.3977 16.6347 83.7357 16.8198 84.1005 16.931C84.4653 17.0421 84.8491 17.077 85.2279 17.0335C85.6466 17.0888 86.0724 17.0419 86.4691 16.897ZM91.8826 16.9435L91.5487 15.9485H90.0136L89.6606 16.9435H87.9125L89.9954 11.7649H91.7243L93.6863 16.9435H91.8826ZM90.9347 13.9794C90.8699 13.7412 90.8294 13.4971 90.8138 13.2508C90.7839 13.5314 90.7244 13.8081 90.6363 14.0762L90.3763 14.9227H91.2139L90.9347 13.9794ZM96.5804 15.4952L97.2588 16.9437H99.1824C98.9694 16.5574 98.4216 15.5987 98.2066 15.2498C98.0648 14.9913 97.8335 14.7933 97.5562 14.6928C97.74 14.6863 97.9207 14.6436 98.088 14.5672C98.2553 14.4907 98.4059 14.3821 98.5311 14.2475C98.6563 14.1128 98.7537 13.9548 98.8177 13.7825C98.8817 13.6102 98.9111 13.427 98.9041 13.2433C98.9041 12.3815 98.2911 11.7651 96.3847 11.7651H94.1531V16.9437H95.8168V14.8932C96.1804 14.8932 96.3291 14.9603 96.5804 15.4952ZM95.8168 12.857H96.2821C96.803 12.857 97.0544 12.9759 97.0544 13.3469C97.0544 13.6968 96.8587 13.9125 96.2926 13.9125H95.8168V12.857ZM99.7734 11.7651H103.538L103.418 12.857H101.437V13.7265H103.055V14.781H101.437V15.8365H103.66V16.9437H99.7734V11.7651ZM109.337 12.7604C109.81 12.7475 110.273 12.8885 110.658 13.1621L111.578 12.3367C110.909 11.895 110.121 11.667 109.319 11.6829C108.813 11.665 108.309 11.7562 107.841 11.9503C107.344 12.1489 106.921 12.4964 106.63 12.9449C106.339 13.3934 106.193 13.9211 106.214 14.4553C106.199 14.7642 106.245 15.0731 106.35 15.3639C106.456 15.6548 106.618 15.9217 106.828 16.1492C107.132 16.4632 107.503 16.7053 107.913 16.8582C108.323 17.0111 108.762 17.0708 109.198 17.0331C110.006 17.048 110.806 16.8723 111.532 16.5202V13.9942H108.892L109.078 15.0487H109.868V15.8664C109.672 15.9228 109.468 15.948 109.263 15.9412C108.492 15.9412 108.111 15.435 108.111 14.4026C108.111 13.2436 108.464 12.7604 109.337 12.7604ZM115.889 16.9435L115.555 15.9485H114.02L113.666 16.9435H111.919L114.002 11.7649H115.731L117.693 16.9435H115.889ZM114.941 13.9794C114.877 13.7411 114.836 13.4971 114.819 13.2508C114.791 13.5315 114.732 13.8083 114.643 14.0762L114.383 14.9227H115.22L114.941 13.9794ZM120.586 15.4952L121.265 16.9437H123.189C122.975 16.5574 122.427 15.5987 122.213 15.2498C122.071 14.9913 121.84 14.7933 121.562 14.6928C121.746 14.6864 121.927 14.6437 122.094 14.5673C122.261 14.4909 122.412 14.3823 122.537 14.2476C122.662 14.113 122.76 13.955 122.824 13.7826C122.888 13.6103 122.917 13.427 122.91 13.2433C122.91 12.3815 122.297 11.7651 120.392 11.7651H118.16V16.9437H119.824V14.8932C120.186 14.8932 120.336 14.9603 120.586 15.4952ZM119.824 12.857H120.289C120.81 12.857 121.06 12.9759 121.06 13.3469C121.06 13.6968 120.866 13.9125 120.298 13.9125H119.824V12.857ZM127.935 16.3197C127.693 16.5424 127.409 16.7128 127.098 16.8202C126.788 16.9276 126.459 16.9696 126.131 16.9438H123.78V11.7651H126.066C126.599 11.7378 127.131 11.8477 127.61 12.0844C127.977 12.3073 128.272 12.6312 128.46 13.0172C128.648 13.4032 128.721 13.8352 128.67 14.2615C128.702 14.6371 128.653 15.0154 128.526 15.3705C128.4 15.7256 128.198 16.0494 127.935 16.3197ZM125.955 12.857H125.443V15.8365H126.002C126.466 15.8365 126.837 15.6515 126.837 14.2174C126.837 13.0133 126.456 12.857 125.955 12.857ZM133.253 11.7651H129.487V16.9437H133.374V15.8365H131.152V14.781H132.768V13.7265H131.152V12.857H133.132L133.253 11.7651ZM137.29 16.9437L136.147 15.1462C135.955 14.8347 135.787 14.5091 135.644 14.1722C135.711 14.6074 135.742 15.0473 135.737 15.4875V16.9437H134.156V11.7651H135.755L136.936 13.5405C137.142 13.8551 137.323 14.1856 137.476 14.5289C137.433 14.1441 137.414 13.757 137.42 13.3699V11.7651H139V16.9437L137.29 16.9437Z" fill="#7E5181"/>
</g>
<defs>
<clipPath id="clip0_665_30968">
<rect width="139" height="24" fill="white" transform="translate(0 6)"/>
</clipPath>
</defs>
</svg>
