<svg width="60" height="38" viewBox="0 0 60 38" fill="none" xmlns="http://www.w3.org/2000/svg">
<g clip-path="url(#clip0_928_1166)">
<path d="M25.7349 19.4173C25.7349 22.2654 23.5069 24.364 20.7726 24.364C18.0384 24.364 15.8103 22.2654 15.8103 19.4173C15.8103 16.5492 18.0384 14.4707 20.7726 14.4707C23.5069 14.4707 25.7349 16.5492 25.7349 19.4173ZM23.5626 19.4173C23.5626 17.6376 22.2713 16.4199 20.7726 16.4199C19.2739 16.4199 17.9826 17.6376 17.9826 19.4173C17.9826 21.1792 19.2739 22.4148 20.7726 22.4148C22.2713 22.4148 23.5626 21.177 23.5626 19.4173Z" fill="#7E5181"/>
<path d="M36.4399 19.4173C36.4399 22.2654 34.2119 24.364 31.4777 24.364C28.7434 24.364 26.5154 22.2654 26.5154 19.4173C26.5154 16.5515 28.7434 14.4707 31.4777 14.4707C34.2119 14.4707 36.4399 16.5492 36.4399 19.4173ZM34.2677 19.4173C34.2677 17.6376 32.9763 16.4199 31.4777 16.4199C29.979 16.4199 28.6876 17.6376 28.6876 19.4173C28.6876 21.1792 29.979 22.4148 31.4777 22.4148C32.9763 22.4148 34.2677 21.177 34.2677 19.4173Z" fill="#7E5181"/>
<path d="M46.699 14.7695V23.6504C46.699 27.3035 44.5446 28.7955 41.9977 28.7955C39.6002 28.7955 38.1572 27.192 37.613 25.8806L39.5043 25.0933C39.841 25.8984 40.6662 26.8485 41.9955 26.8485C43.6258 26.8485 44.6361 25.8427 44.6361 23.9492V23.2378H44.5602C44.0741 23.8377 43.1374 24.3618 41.9553 24.3618C39.482 24.3618 37.2161 22.2074 37.2161 19.4352C37.2161 16.6429 39.482 14.4707 41.9553 14.4707C43.1351 14.4707 44.0718 14.9948 44.5602 15.5769H44.6361V14.7717H46.699V14.7695ZM44.79 19.4352C44.79 17.6934 43.628 16.4199 42.1494 16.4199C40.6506 16.4199 39.395 17.6934 39.395 19.4352C39.395 21.1592 40.6506 22.4148 42.1494 22.4148C43.628 22.4148 44.79 21.1592 44.79 19.4352Z" fill="#7E5181"/>
<path d="M50.1002 9.56421V24.0608H47.9814V9.56421H50.1002Z" fill="#7E5181"/>
<path d="M58.3566 21.0455L60.0427 22.1695C59.4985 22.9747 58.1871 24.3619 55.9212 24.3619C53.1111 24.3619 51.0125 22.1896 51.0125 19.4152C51.0125 16.4735 53.1289 14.4685 55.6781 14.4685C58.2451 14.4685 59.5008 16.5114 59.9111 17.6154L60.1364 18.1774L53.5237 20.9161C54.0299 21.9086 54.8172 22.4148 55.9212 22.4148C57.0274 22.4148 57.7946 21.8707 58.3566 21.0455ZM53.1668 19.2657L57.5872 17.4303C57.3441 16.8125 56.6126 16.3821 55.7517 16.3821C54.6477 16.3821 53.1111 17.3567 53.1668 19.2657Z" fill="#7E5181"/>
<path d="M7.79025 18.1306V16.032H14.8623C14.9315 16.3977 14.9672 16.8304 14.9672 17.2987C14.9672 18.8733 14.5367 20.8203 13.1495 22.2075C11.8002 23.6126 10.0762 24.3619 7.7925 24.3619C3.55947 24.3619 0 20.9139 0 16.681C0 12.448 3.55947 9 7.7925 9C10.1342 9 11.8024 9.91886 13.0559 11.1165L11.5749 12.5974C10.6762 11.7544 9.45848 11.0987 7.79025 11.0987C4.69913 11.0987 2.28154 13.5898 2.28154 16.681C2.28154 19.7721 4.69913 22.2633 7.79025 22.2633C9.79525 22.2633 10.9371 21.4582 11.6686 20.7266C12.2619 20.1334 12.6522 19.2859 12.8061 18.1284L7.79025 18.1306Z" fill="#7E5181"/>
</g>
<defs>
<clipPath id="clip0_928_1166">
<rect width="60" height="38" fill="white"/>
</clipPath>
</defs>
</svg>
